<svg width="20" height="20" viewBox="0 0 20 20" fill="none" xmlns="http://www.w3.org/2000/svg">
<path d="M14.1365 7.48503C14.1345 5.02657 14.0973 3.75316 13.3815 2.88123C13.2434 2.71284 13.089 2.55845 12.9206 2.42026C12.0007 1.66541 10.6341 1.66541 7.90077 1.66541C5.16746 1.66541 3.8008 1.66541 2.88095 2.42026C2.71255 2.55844 2.55814 2.71284 2.41994 2.88123C1.66504 3.80102 1.66504 5.16759 1.66504 7.90071C1.66504 10.6339 1.66504 12.0004 2.41994 12.9202C2.55813 13.0885 2.71255 13.243 2.88095 13.3811C3.75293 14.0968 5.02644 14.134 7.48506 14.136" stroke="#141B34" stroke-width="1.5" stroke-linecap="round" stroke-linejoin="round"/>
<path d="M11.6903 7.5205L14.1617 7.48499M11.6786 18.3345L14.15 18.2989M18.3097 11.6851L18.2864 14.1515M7.50866 11.6965L7.48535 14.1628M9.5728 7.5205C8.8788 7.6448 7.76489 7.77265 7.50866 9.20738M16.2456 18.2989C16.9414 18.1853 18.0571 18.0745 18.3355 16.6439M16.2456 7.5205C16.9396 7.6448 18.0535 7.77265 18.3097 9.20738M9.58338 18.2978C8.88938 18.1739 7.77538 18.0466 7.51836 16.612" stroke="#141B34" stroke-width="1.5" stroke-linecap="round" stroke-linejoin="round"/>
</svg>
