<svg width="14" height="14" viewBox="0 0 14 14" fill="none" xmlns="http://www.w3.org/2000/svg">
<path d="M9.89504 5.23951C9.89364 3.51859 9.86762 2.6272 9.3666 2.01685C9.26988 1.89897 9.16179 1.7909 9.04395 1.69417C8.40001 1.16577 7.4434 1.16577 5.53005 1.16577C3.61673 1.16577 2.66007 1.16577 2.01617 1.69417C1.89829 1.79089 1.79021 1.89897 1.69347 2.01685C1.16504 2.6607 1.16504 3.6173 1.16504 5.53049C1.16504 7.4437 1.16504 8.40025 1.69347 9.04413C1.7902 9.16196 1.89829 9.27006 2.01617 9.36677C2.62656 9.86774 3.51802 9.89376 5.23905 9.89516" stroke="white" stroke-width="1.5" stroke-linecap="round" stroke-linejoin="round"/>
<path d="M8.18272 5.26436L9.91271 5.2395M8.17456 12.8341L9.90449 12.8092M12.8163 8.1796L12.8 9.90609M5.25557 8.18753L5.23926 9.91397M6.70047 5.26436C6.21467 5.35137 5.43494 5.44087 5.25557 6.44518M11.3714 12.8092C11.8585 12.7297 12.6395 12.6522 12.8343 11.6507M11.3714 5.26436C11.8572 5.35137 12.6369 5.44087 12.8163 6.44518M6.70788 12.8085C6.22208 12.7217 5.44228 12.6327 5.26236 11.6284" stroke="white" stroke-width="1.5" stroke-linecap="round" stroke-linejoin="round"/>
</svg>
