<svg width="14" height="14" viewBox="0 0 14 14" fill="none" xmlns="http://www.w3.org/2000/svg">
<path d="M7.98601 11.3497C7.875 11.0818 7.875 10.742 7.875 10.0625C7.875 9.38297 7.875 9.04324 7.98601 8.77526C8.134 8.41791 8.41791 8.134 8.77526 7.98601C9.04324 7.875 9.38297 7.875 10.0625 7.875C10.742 7.875 11.0818 7.875 11.3497 7.98601C11.7071 8.134 11.991 8.41791 12.139 8.77526C12.25 9.04324 12.25 9.38297 12.25 10.0625C12.25 10.742 12.25 11.0818 12.139 11.3497C11.991 11.7071 11.7071 11.991 11.3497 12.139C11.0818 12.25 10.742 12.25 10.0625 12.25C9.38297 12.25 9.04324 12.25 8.77526 12.139C8.41791 11.991 8.134 11.7071 7.98601 11.3497Z" stroke="white" stroke-width="1.5" stroke-linecap="square" stroke-linejoin="round"/>
<path d="M7.98601 5.22475C7.875 4.95675 7.875 4.617 7.875 3.9375C7.875 3.258 7.875 2.91825 7.98601 2.65025C8.134 2.29292 8.41791 2.00902 8.77526 1.86101C9.04324 1.75 9.38297 1.75 10.0625 1.75C10.742 1.75 11.0818 1.75 11.3497 1.86101C11.7071 2.00902 11.991 2.29292 12.139 2.65025C12.25 2.91825 12.25 3.258 12.25 3.9375C12.25 4.617 12.25 4.95675 12.139 5.22475C11.991 5.58208 11.7071 5.866 11.3497 6.01399C11.0818 6.125 10.742 6.125 10.0625 6.125C9.38297 6.125 9.04324 6.125 8.77526 6.01399C8.41791 5.866 8.134 5.58208 7.98601 5.22475Z" stroke="white" stroke-width="1.5" stroke-linecap="square" stroke-linejoin="round"/>
<path d="M1.86101 11.3497C1.75 11.0818 1.75 10.742 1.75 10.0625C1.75 9.38297 1.75 9.04324 1.86101 8.77526C2.00902 8.41791 2.29292 8.134 2.65025 7.98601C2.91825 7.875 3.258 7.875 3.9375 7.875C4.617 7.875 4.95675 7.875 5.22475 7.98601C5.58208 8.134 5.866 8.41791 6.01399 8.77526C6.125 9.04324 6.125 9.38297 6.125 10.0625C6.125 10.742 6.125 11.0818 6.01399 11.3497C5.866 11.7071 5.58208 11.991 5.22475 12.139C4.95675 12.25 4.617 12.25 3.9375 12.25C3.258 12.25 2.91825 12.25 2.65025 12.139C2.29292 11.991 2.00902 11.7071 1.86101 11.3497Z" stroke="white" stroke-width="1.5" stroke-linecap="square" stroke-linejoin="round"/>
<path d="M1.86101 5.22475C1.75 4.95675 1.75 4.617 1.75 3.9375C1.75 3.258 1.75 2.91825 1.86101 2.65025C2.00902 2.29292 2.29292 2.00902 2.65025 1.86101C2.91825 1.75 3.258 1.75 3.9375 1.75C4.617 1.75 4.95675 1.75 5.22475 1.86101C5.58208 2.00902 5.866 2.29292 6.01399 2.65025C6.125 2.91825 6.125 3.258 6.125 3.9375C6.125 4.617 6.125 4.95675 6.01399 5.22475C5.866 5.58208 5.58208 5.866 5.22475 6.01399C4.95675 6.125 4.617 6.125 3.9375 6.125C3.258 6.125 2.91825 6.125 2.65025 6.01399C2.29292 5.866 2.00902 5.58208 1.86101 5.22475Z" stroke="white" stroke-width="1.5" stroke-linecap="square" stroke-linejoin="round"/>
</svg>
