<svg width="41" height="47" viewBox="0 0 41 47" fill="none" xmlns="http://www.w3.org/2000/svg">
<g clip-path="url(#clip0_18_103)">
<mask id="mask0_18_103" style="mask-type:luminance" maskUnits="userSpaceOnUse" x="-18" y="-10" width="76" height="67">
<path d="M-17.3164 -9.54623H57.4153V56.7097H-17.3164V-9.54623Z" fill="white"/>
</mask>
<g mask="url(#mask0_18_103)">
<path fill-rule="evenodd" clip-rule="evenodd" d="M36.6432 3.43323e-05H3.66003C0.986624 3.43323e-05 0 0.995438 0 3.69388V36.2548C0 36.5602 0.0122057 36.8438 0.038943 37.1066C0.0998078 37.6957 0.111267 38.2664 0.654234 38.9162C0.707294 38.9799 1.26164 39.3961 1.26164 39.3961C1.55982 39.5436 1.76342 39.6523 2.09971 39.7888L18.3411 46.6539C19.1842 47.0439 19.5368 47.1959 20.1492 47.1836V47.1837C20.15 47.1837 20.1507 47.1837 20.1516 47.1837C20.1524 47.1837 20.1531 47.1837 20.154 47.1837V47.1836C20.7664 47.1959 21.1189 47.0439 21.9621 46.6539L38.2034 39.7888C38.5398 39.6523 38.7433 39.5436 39.0416 39.3961C39.0416 39.3961 39.5959 38.9799 39.6489 38.9162C40.1919 38.2664 40.2033 37.6957 40.2642 37.1066C40.2909 36.8438 40.3032 36.5602 40.3032 36.2548V3.69388C40.3032 0.995438 39.3165 3.43323e-05 36.6432 3.43323e-05Z" fill="#799CBC"/>
<path d="M34.4335 32.7357L34.426 32.8109L34.4186 32.8934L34.4037 32.9686L34.3814 33.0436L34.367 33.1112L34.3446 33.1864L34.3148 33.254L34.285 33.3141L34.2557 33.3816L34.2185 33.4417L34.1813 33.5019L34.1371 33.5619L34.0998 33.622L34.0556 33.6745L34.0035 33.7271L33.9592 33.7722L33.8997 33.8248L33.848 33.8699L33.7885 33.9149L33.7293 33.952L33.6702 33.997L33.6032 34.0346L33.5366 34.0647L33.4701 34.1022L33.3956 34.1323L33.3216 34.1623L33.2477 34.1848L33.1737 34.2074L33.1067 34.2299L33.0327 34.2449L32.9661 34.2599L32.8996 34.2749L32.8251 34.29L32.751 34.2975L32.6845 34.305L32.61 34.3125L32.5287 34.3201L32.4546 34.3275H32.3806H32.2992H32.2173H32.1433L32.0692 34.3201H31.9879L31.9138 34.3125L31.8394 34.305L31.7579 34.2975L31.6839 34.2825L31.61 34.2749L31.5355 34.2599L31.4614 34.2449L31.3874 34.2299L31.3134 34.2149L31.239 34.1924L31.1724 34.1773L31.0985 34.1548L31.0244 34.1323L30.9575 34.1022L30.8835 34.0796L30.8169 34.0572L30.7428 34.0271L30.6759 33.997L30.6093 33.967L30.5427 33.9299L30.4758 33.8999L30.4092 33.8623L30.3501 33.8248L30.2831 33.7872L30.2239 33.7497L30.1644 33.7121L30.1053 33.6671L30.0462 33.622L29.9866 33.5769L29.9274 33.5318L29.8754 33.4868L29.8162 33.4343L29.8609 33.3742L29.9126 33.3216L29.9572 33.2614L30.009 33.2014L30.0536 33.1488L30.0978 33.0888L30.15 33.0286L30.1941 32.9761L30.2463 32.916L30.2905 32.8634L30.3426 32.8033L30.3869 32.7432L30.4315 32.6907L30.4832 32.6306L30.5278 32.5705L30.5795 32.5179L30.6242 32.4579L30.6833 32.5029L30.7499 32.548L30.8094 32.5931L30.876 32.6381L30.9355 32.6757L31.0021 32.7207L31.0612 32.7583L31.1283 32.7883L31.1873 32.8259L31.2539 32.856L31.3209 32.886L31.3874 32.916L31.4541 32.9386L31.521 32.9686L31.595 32.9911L31.6691 33.0136L31.7356 33.0362L31.8101 33.0512L31.8841 33.0662L31.958 33.0812L32.0395 33.0888L32.1139 33.1038H32.188L32.2693 33.1112H32.3434H32.4323L32.5137 33.1038L32.5882 33.0888L32.6547 33.0737L32.7213 33.0587L32.7808 33.0362L32.8326 33.0062L32.8921 32.9611L32.9363 32.9085L32.9661 32.8483L32.9885 32.7808L32.9958 32.7057V32.6907L32.9885 32.6005L32.9587 32.5254L32.9214 32.4729L32.8698 32.4278L32.8102 32.3827L32.751 32.3527L32.6845 32.3227L32.61 32.2926L32.5212 32.2551L32.4695 32.2401L32.4104 32.2251L32.3434 32.2024L32.2768 32.1874L32.2028 32.1649L32.1283 32.1499L32.047 32.1274L31.9729 32.1124L31.8914 32.0898L31.8175 32.0749L31.743 32.0523L31.6691 32.0372L31.595 32.0147L31.528 31.9922L31.4541 31.9772L31.3874 31.9546L31.3209 31.9321L31.2539 31.9096L31.1724 31.8795L31.0985 31.8494L31.0244 31.8194L30.95 31.7893L30.8835 31.7518L30.8094 31.7143L30.7499 31.6768L30.6833 31.6392L30.6242 31.5942L30.5646 31.5566L30.513 31.5115L30.4609 31.4589L30.4092 31.4063L30.3645 31.3537L30.3203 31.3012L30.2831 31.2487L30.2463 31.1885L30.2091 31.121L30.1793 31.0689L30.1569 31.0087L30.1351 30.9411L30.1128 30.8811L30.0978 30.8059L30.0829 30.7383L30.0755 30.6633L30.0681 30.5881L30.0606 30.5056V30.4229V30.4079V30.3328L30.0681 30.2577L30.0755 30.1901L30.0829 30.115L30.0978 30.0474L30.1128 29.9798L30.1351 29.9121L30.15 29.8446L30.1793 29.777L30.2091 29.7094L30.2388 29.6419L30.2757 29.5742L30.3128 29.5067L30.357 29.4465L30.4018 29.3865L30.4534 29.3264L30.5055 29.2739L30.5572 29.2137L30.6168 29.1611L30.6684 29.1236L30.728 29.0785L30.7872 29.0334L30.8462 28.9959L30.9132 28.9584L30.9798 28.9283L31.0463 28.8908L31.1133 28.8608L31.1873 28.8382L31.2613 28.8082L31.3283 28.7856L31.3874 28.7706L31.4541 28.7556L31.521 28.7406L31.595 28.7256L31.6616 28.7105L31.7356 28.703L31.8101 28.6955L31.8841 28.688L31.958 28.6805H32.032H32.1139H32.1954H32.2768L32.3583 28.688L32.4397 28.6955H32.5137L32.5956 28.703L32.6696 28.718L32.751 28.7256L32.8251 28.7406L32.8921 28.7556L32.9661 28.7706L33.0401 28.7856L33.1067 28.8006L33.1811 28.8232L33.2477 28.8457L33.3143 28.8608L33.3887 28.8908L33.4552 28.9133L33.5218 28.9433L33.5884 28.9734L33.6628 29.0034L33.7293 29.041L33.7885 29.071L33.8555 29.1086L33.9221 29.1461L33.9812 29.1837L34.0481 29.2288L34.1073 29.2662L34.1669 29.3114L34.226 29.3565L34.285 29.4015L34.2408 29.4616L34.2036 29.5217L34.1594 29.5817L34.1147 29.6419L34.0705 29.7094L34.0333 29.7695L33.9886 29.8296L33.9443 29.8897L33.9072 29.9498L33.8629 30.0099L33.8183 30.07L33.781 30.13L33.7368 30.1976L33.6921 30.2577L33.6479 30.3178L33.6107 30.3778L33.5664 30.4379L33.5069 30.3929L33.4404 30.3553L33.3812 30.3178L33.3216 30.2727L33.2551 30.2427L33.1955 30.2051L33.129 30.175L33.0699 30.145L33.0029 30.115L32.9438 30.085L32.8772 30.0624L32.8177 30.0324L32.7362 30.0099L32.6622 29.9873L32.5882 29.9648L32.5137 29.9498L32.4397 29.9348L32.3657 29.9197L32.2918 29.9121L32.2173 29.9047L32.1508 29.8971H32.0767H31.9879L31.9064 29.9121L31.8319 29.9272L31.7654 29.9422L31.7063 29.9723L31.6541 30.0023L31.5875 30.0624L31.5429 30.13L31.5136 30.1976L31.5061 30.2727V30.2878L31.5136 30.3854L31.5503 30.468L31.5801 30.5131L31.6318 30.5657L31.6988 30.6032L31.7579 30.6407L31.8319 30.6708L31.9138 30.7009L32.0027 30.7309L32.0618 30.7459L32.121 30.7684L32.188 30.7834L32.2545 30.8059L32.3285 30.821L32.4104 30.8435L32.4919 30.866L32.5733 30.8886L32.6547 30.9036L32.7287 30.9261L32.8102 30.9487L32.8846 30.9637L32.9587 30.9862L33.0327 31.0087L33.0992 31.0313L33.1737 31.0538L33.2403 31.0763L33.3068 31.0989L33.3887 31.1285L33.4626 31.1661L33.5366 31.1961L33.6107 31.2336L33.6777 31.2712L33.7443 31.3087L33.8033 31.3463L33.8629 31.3913L33.9221 31.4289L33.9812 31.4815L34.0407 31.534L34.0924 31.5942L34.1444 31.6467L34.1887 31.7068L34.2334 31.7744L34.2702 31.8344L34.3074 31.9021L34.3372 31.9622L34.3595 32.0297L34.3814 32.0973L34.3963 32.1649L34.4111 32.2401L34.426 32.3152L34.4335 32.3903L34.441 32.4729V32.5555V32.5705V32.6531L34.4335 32.7357ZM29.236 34.2375H29.1616H29.0876H29.0136H28.9396H28.8651H28.7911H28.7172H28.6431H28.5612H28.4873H28.4133H28.3393H28.2647H28.1908H28.1168H28.0428H27.9683H27.8943H27.8203H27.7463H27.6723H27.5979H27.5239H27.4499H27.3758H27.3013H27.2274H27.1534H27.0719H26.9975H26.9235H26.8495H26.7755H26.7011H26.627H26.553H26.479H26.4046H26.3306H26.2566H26.1825H26.108H26.0341H25.9601H25.8861H25.8117H25.7376H25.6562H25.5822H25.5082H25.4337H25.3597H25.2857H25.2118H25.1374H25.0633H24.9893V34.1623V34.0872V34.0121V33.9374V33.8623V33.7872V33.7121V33.6371V33.5619V33.4868V33.4117V33.3366V33.2614V33.1864V33.1112V33.0362V32.9611V32.886V32.8183V32.7432V32.6681V32.5931V32.5179V32.4428V32.3677V32.2926V32.2174V32.1424V32.0673V31.9922V31.9171V31.842V31.7669V31.6918V31.6166V31.5415V31.4664V31.3913V31.3163V31.2411V31.1661V31.0913V31.0163V30.9411V30.866V30.7909V30.7159V30.6407V30.5657V30.4905V30.4154V30.3403V30.2652V30.1901V30.1225V30.0474V29.9723V29.8971V29.8221V29.7469V29.6719V29.5967V29.5217V29.4465V29.3715V29.2963V29.2212V29.1461V29.071V28.9959V28.9208V28.8457V28.7706H25.0633H25.1374H25.2118H25.2857H25.3597H25.4337H25.5082H25.5822H25.6562H25.7302H25.8046H25.8787H25.9526H26.0267H26.0936H26.1677H26.2417H26.3157H26.3901H26.4641H26.5381H26.6122H26.6866H26.7605H26.8345H26.9086H26.9831H27.0571H27.131H27.205H27.2795H27.3536H27.4275H27.5015H27.5755H27.65H27.724H27.798H27.872H27.9464H28.0204H28.0944H28.1684H28.2355H28.3095H28.3835H28.4575H28.5319H28.6059H28.6799H28.7539H28.8284H28.9023H28.9763H29.0504H29.1248H29.1989H29.2729V28.8457V28.9133V28.9884V29.0635V29.1386V29.2062V29.2813V29.3565V29.424V29.4991V29.5742V29.6419V29.7169V29.792V29.8672V29.9348V30.0099H29.1989H29.1248H29.0504H28.9763H28.9023H28.8284H28.7614H28.6874H28.6134H28.5393H28.4649H28.3909H28.3169H28.2429H28.1684H28.0944H28.0204H27.9464H27.872H27.8055H27.7314H27.6574H27.5829H27.509H27.4349H27.361H27.2865H27.2125H27.1385H27.0645H26.99H26.916H26.8495H26.7755H26.7011H26.627H26.553H26.479H26.4046V30.085V30.16V30.2351V30.3102V30.3854V30.453V30.528V30.6032V30.6783V30.7534V30.8285V30.9036H26.479H26.553H26.627H26.7011H26.7755H26.8495H26.9235H26.9975H27.0645H27.1385H27.2125H27.2865H27.361H27.4349H27.509H27.5829H27.6574H27.7314H27.8055H27.8794H27.9538H28.0278H28.1019H28.176H28.2504H28.3243H28.3909H28.4649H28.5393H28.6134H28.6874H28.7614H28.8358H28.9098H28.9838V30.9787V31.0463V31.121V31.1961V31.2637V31.3387V31.4139V31.4815V31.5566V31.6317V31.7068V31.7744V31.8494V31.9246V31.9922V32.0673H28.9098H28.8358H28.7614H28.6874H28.6134H28.5393H28.4649H28.3909H28.3243H28.2504H28.176H28.1019H28.0278H27.9538H27.8794H27.8055H27.7314H27.6574H27.5829H27.509H27.4349H27.361H27.2865H27.2125H27.1385H27.0645H26.9975H26.9235H26.8495H26.7755H26.7011H26.627H26.553H26.479H26.4046V32.1424V32.2251V32.3001V32.3753V32.4579V32.533V32.6081V32.6907V32.7657V32.8409V32.9235V32.9985H26.479H26.553H26.627H26.7011H26.7755H26.8495H26.9235H26.9975H27.0719H27.1534H27.2274H27.3013H27.3758H27.4499H27.5239H27.5979H27.6723H27.7463H27.8203H27.8943H27.9683H28.0428H28.1168H28.1908H28.2647H28.3393H28.4133H28.4873H28.5612H28.6431H28.7172H28.7911H28.8651H28.9396H29.0136H29.0876H29.1616H29.236H29.3101V33.0737V33.1413V33.2164V33.2915V33.3666V33.4343V33.5093V33.5844V33.6521V33.7271V33.8022V33.8699V33.9445V34.0196V34.0946V34.1623V34.2375H29.236ZM23.8209 34.2375H23.7469H23.6729H23.5911H23.5171H23.443H23.369H23.2946H23.2206H23.1391H23.0651H22.9911H22.9167H22.8427H22.7687H22.6872H22.6128H22.5388H22.4647V34.1623V34.0872V34.0121V33.937V33.8614V33.7864V33.7112V33.6361V33.561V33.4859V33.4108V33.3353V33.2602V33.185V33.11V33.0348V32.9593V32.8841V32.809V32.734V32.6588V32.5838V32.5082V32.4332V32.358V32.2829V32.2078V32.1327V32.0571V31.9819V31.9069V31.8318V31.7568V31.6816V31.6061V31.531V31.4558V31.3808V31.3056V31.2301V31.155V31.0799V31.0047L22.4276 31.0648L22.3833 31.1329L22.3461 31.193L22.3019 31.2531L22.2647 31.3206L22.2199 31.3808L22.1832 31.4408L22.1459 31.5089L22.1018 31.5689L22.0645 31.629L22.0199 31.6892L21.9831 31.7572L21.9384 31.8172L21.9017 31.8773L21.8644 31.9449L21.8197 32.0054L21.7829 32.0656L21.7382 32.1331L21.7015 32.1932L21.6569 32.2533L21.6201 32.3213L21.5828 32.3815L21.5382 32.4415L21.5014 32.5091L21.4567 32.5696L21.42 32.6297L21.3753 32.6898L21.338 32.7574L21.3012 32.8178L21.2566 32.878L21.2198 32.9456L21.1752 33.0057L21.138 33.0657L21.0937 33.1338L21.0565 33.1939H21.0271L20.9825 33.1263L20.9453 33.0657L20.901 32.9981L20.8638 32.9381L20.8195 32.8705L20.7823 32.81L20.7382 32.7424L20.7009 32.6822L20.6562 32.6147L20.6194 32.5546L20.5747 32.4865L20.538 32.4265L20.4934 32.3588L20.4561 32.2988L20.4119 32.2308L20.3746 32.1707L20.3305 32.1031L20.2858 32.043L20.2486 31.975L20.2043 31.9149L20.1671 31.8473L20.1229 31.7873L20.0857 31.7191L20.0414 31.6591L20.0042 31.5915L19.9595 31.5314L19.9228 31.4638L19.8781 31.4032L19.8413 31.3357L19.7966 31.2756L19.7594 31.208L19.7153 31.148L19.6779 31.0799L19.6337 31.0198V31.0949V31.17V31.2452V31.3206V31.3958V31.4708V31.546V31.6211V31.6966V31.7718V31.8394V31.9144V31.9896V32.0646V32.1402V32.2153V32.2904V32.3655V32.4406V32.5158V32.5912V32.6664V32.7415V32.8166V32.8917V32.9668V33.0424V33.1174V33.1926V33.2676V33.3428V33.4183V33.4859V33.561V33.6361V33.7112V33.7864V33.8614V33.937V34.0121V34.0872V34.1623V34.2375H19.5597H19.4853H19.4113H19.3373H19.2633H19.1889H19.1148H19.0408H18.9668H18.8924H18.8184H18.7443H18.6703H18.5959H18.522H18.4479H18.3738H18.2994H18.2254V34.1623V34.0872V34.0121V33.9374V33.8623V33.7872V33.7121V33.6371V33.5619V33.4868V33.4117V33.3366V33.2614V33.1864V33.1112V33.0362V32.9611V32.886V32.8183V32.7432V32.6681V32.5931V32.5179V32.4428V32.3677V32.2926V32.2174V32.1424V32.0673V31.9922V31.9171V31.842V31.7669V31.6918V31.6166V31.5415V31.4664V31.3913V31.3163V31.2411V31.1661V31.0913V31.0163V30.9411V30.866V30.7909V30.7159V30.6407V30.5657V30.4905V30.4154V30.3403V30.2652V30.1901V30.1225V30.0474V29.9723V29.8971V29.8221V29.7469V29.6719V29.5967V29.5217V29.4465V29.3715V29.2963V29.2212V29.1461V29.071V28.9959V28.9208V28.8457V28.7706H18.2994H18.3738H18.4405H18.5144H18.5885H18.6629H18.7295H18.8034H18.8779H18.9519H19.0185H19.0925H19.167H19.241H19.3075H19.3814H19.4559H19.53H19.5965H19.6705H19.745L19.7818 28.8307L19.819 28.8982L19.8631 28.9579L19.9004 29.0255L19.9376 29.0855L19.9744 29.1532L20.0116 29.2128L20.0559 29.2805L20.0931 29.3406L20.1303 29.4006L20.1671 29.4677L20.2043 29.5279L20.2486 29.5954L20.2858 29.6555L20.323 29.7226L20.3598 29.7827L20.4044 29.8428L20.4417 29.91L20.4784 29.97L20.5156 30.0376L20.5525 30.0978L20.5972 30.1649L20.6344 30.225L20.6711 30.2926L20.7084 30.3522L20.7451 30.4123L20.7898 30.4799L20.827 30.54L20.8638 30.6076L20.901 30.6673L20.9378 30.7349L20.9825 30.795L21.0197 30.8621L21.0565 30.9222L21.0937 30.8621L21.1309 30.795L21.1752 30.7349L21.2123 30.6673L21.2492 30.6076L21.2864 30.54L21.3306 30.4799L21.3678 30.4123L21.4051 30.3522L21.4418 30.2926L21.4865 30.225L21.5233 30.1649L21.5605 30.0978L21.5977 30.0376L21.6419 29.97L21.6791 29.91L21.7164 29.8428L21.7531 29.7827L21.7905 29.7226L21.8346 29.6555L21.8718 29.5954L21.909 29.5279L21.9459 29.4677L21.9905 29.4006L22.0274 29.3406L22.0645 29.2805L22.1018 29.2128L22.1459 29.1532L22.1832 29.0855L22.2199 29.0255L22.2572 28.9579L22.3019 28.8982L22.3387 28.8307L22.3759 28.7706H22.4498H22.5239H22.5908H22.6649H22.7389H22.8129H22.8799H22.954H23.0279H23.1019H23.1689H23.2429H23.3169H23.391H23.4579H23.532H23.6059H23.6799H23.7469H23.8209H23.8949V28.8457V28.9208V28.9959V29.071V29.1461V29.2212V29.2963V29.3715V29.4465V29.5217V29.5967V29.6719V29.7469V29.8221V29.8971V29.9723V30.0474V30.1225V30.1901V30.2652V30.3403V30.4154V30.4905V30.5657V30.6407V30.7159V30.7909V30.866V30.9411V31.0163V31.0913V31.1661V31.2411V31.3163V31.3913V31.4664V31.5415V31.6166V31.6918V31.7669V31.842V31.9171V31.9922V32.0673V32.1424V32.2174V32.2926V32.3677V32.4428V32.5179V32.5931V32.6681V32.7432V32.8183V32.886V32.9611V33.0362V33.1112V33.1864V33.2614V33.3366V33.4117V33.4868V33.5619V33.6371V33.7121V33.7872V33.8623V33.9374V34.0121V34.0872V34.1623V34.2375H23.8209ZM15.2219 31.9847L15.1995 31.9167L15.1702 31.8415L15.1404 31.7739L15.1181 31.7059L15.0888 31.6383L15.0591 31.5632L15.0366 31.4951L15.0068 31.4275L14.9776 31.36L14.9552 31.292L14.9254 31.2168L14.9035 31.1492L14.8737 31.0812L14.8439 31.0136L14.8217 30.946L14.7923 30.8705L14.7625 30.8028L14.7402 30.7353L14.7104 30.6673L14.6811 30.5921L14.6587 30.5241L14.6289 30.4565L14.5996 30.5241L14.5774 30.5921L14.5476 30.6673L14.5177 30.7353L14.4958 30.8028L14.4661 30.8705L14.4363 30.946L14.407 31.0136L14.3846 31.0812L14.3548 31.1492L14.325 31.2168L14.3031 31.292L14.2734 31.36L14.2436 31.4275L14.2213 31.4951L14.1919 31.5632L14.1621 31.6383L14.1324 31.7059L14.1105 31.7739L14.0807 31.8415L14.0509 31.9167L14.0286 31.9847L13.9993 32.0523H14.0733H14.1472H14.2213H14.2957H14.3697H14.4437H14.5177H14.5922H14.6587H14.7327H14.8072H14.8812H14.9552H15.0292H15.1032H15.1776H15.2516L15.2219 31.9847ZM17.5494 34.2375H17.475H17.4083H17.3344H17.2599H17.1859H17.1118H17.0453H16.9709H16.8969H16.8229H16.7488H16.6744H16.6078H16.5338H16.4598H16.3854H16.3114H16.2448H16.1708H16.0964L16.067 34.1698L16.0447 34.1022L16.015 34.0346L15.9851 33.9595L15.9632 33.8923L15.9335 33.8248L15.9037 33.7572L15.8818 33.6896L15.852 33.622L15.8222 33.5544L15.8 33.4868L15.7706 33.4117L15.7408 33.3441L15.7184 33.2765L15.6886 33.2089H15.6146H15.5407H15.4667H15.3927H15.3257H15.2516H15.1776H15.1032H15.0292H14.9552H14.8812H14.8072H14.7327H14.6587H14.5922H14.5177H14.4437H14.3697H14.2957H14.2213H14.1472H14.0733H13.9993H13.9253H13.8582H13.7843H13.7102H13.6357H13.5618L13.5325 33.2765L13.5101 33.3441L13.4803 33.4117L13.4506 33.4868L13.4287 33.5544L13.3989 33.622L13.3691 33.6896L13.3468 33.7572L13.3175 33.8248L13.2877 33.8923L13.2653 33.9595L13.2359 34.0346L13.2062 34.1022L13.1839 34.1698L13.1541 34.2375H13.0801H13.0061H12.9321H12.8576H12.7836H12.7022H12.6282H12.5541H12.4797H12.4057H12.3318H12.2577H12.1832H12.1093H12.0353H11.9539H11.8794H11.8054H11.7313H11.6573L11.6867 34.1698L11.7165 34.1022L11.7462 34.0346L11.7756 33.9595L11.7979 33.8923L11.8277 33.8248L11.8575 33.7572L11.8868 33.6896L11.9166 33.622L11.9464 33.5468L11.9757 33.4792L12.0055 33.4117L12.0278 33.3441L12.0576 33.2765L12.0869 33.2089L12.1167 33.1338L12.1464 33.0662L12.1758 32.9985L12.2056 32.931L12.2354 32.8634L12.2577 32.7958L12.287 32.7207L12.3168 32.6531L12.3466 32.5855L12.3759 32.5179L12.4057 32.4503L12.4356 32.3827L12.4649 32.3076L12.4872 32.2401L12.517 32.1724L12.5467 32.1048L12.5761 32.0372L12.6059 31.9696L12.6356 31.8946L12.665 31.827L12.6947 31.7594L12.717 31.6918L12.7469 31.6242L12.7762 31.5566L12.806 31.4815L12.8358 31.4139L12.8651 31.3463L12.8948 31.2787L12.9246 31.2111L12.947 31.1435L12.9764 31.0763L13.0061 31.0012L13.0358 30.9337L13.0652 30.866L13.0949 30.7984L13.1247 30.7309L13.1541 30.6633L13.1764 30.5881L13.2062 30.5206L13.2359 30.453L13.2653 30.3854L13.2951 30.3178L13.3249 30.2502L13.3543 30.175L13.384 30.1075L13.4063 30.0399L13.436 29.9723L13.4654 29.9047L13.4952 29.8371L13.525 29.762L13.5543 29.6944L13.5841 29.6268L13.6139 29.5592L13.6357 29.4917L13.6656 29.424L13.6954 29.3489L13.7252 29.2813L13.7545 29.2137L13.7843 29.1461L13.814 29.0785L13.8433 29.011L13.8658 28.9358L13.8955 28.8682L13.9253 28.8006L13.9546 28.733H14.0286H14.0956H14.1696H14.2436H14.318H14.3846H14.4585H14.5326H14.6071H14.6737H14.7476H14.8217H14.8961H14.9626H15.0366H15.1106H15.1851H15.2516H15.3257L15.3554 28.8006L15.3852 28.8682L15.4146 28.9358L15.4443 29.011L15.4667 29.0785L15.496 29.1461L15.5258 29.2137L15.5555 29.2813L15.5853 29.3489L15.6146 29.424L15.6445 29.4917L15.6743 29.5592L15.6961 29.6268L15.7259 29.6944L15.7557 29.762L15.7855 29.8371L15.8148 29.9047L15.8446 29.9723L15.8744 30.0399L15.9037 30.1075L15.926 30.175L15.9557 30.2502L15.9851 30.3178L16.015 30.3854L16.0447 30.453L16.0745 30.5206L16.1038 30.5881L16.1335 30.6633L16.1559 30.7309L16.1853 30.7984L16.215 30.866L16.2448 30.9337L16.2746 31.0012L16.3039 31.0763L16.3337 31.1435L16.3635 31.2111L16.3854 31.2787L16.4151 31.3463L16.4449 31.4139L16.4743 31.4815L16.504 31.5566L16.5338 31.6242L16.5637 31.6918L16.593 31.7594L16.6153 31.827L16.645 31.8946L16.6744 31.9696L16.7041 32.0372L16.734 32.1048L16.7637 32.1724L16.7931 32.2401L16.8229 32.3076L16.8451 32.3827L16.8745 32.4503L16.9043 32.5179L16.9341 32.5855L16.9634 32.6531L16.9932 32.7207L17.023 32.7958L17.0528 32.8634L17.0746 32.931L17.1045 32.9985L17.1343 33.0662L17.1636 33.1338L17.1933 33.2089L17.2231 33.2765L17.2528 33.3441L17.2822 33.4117L17.3046 33.4792L17.3344 33.5468L17.3637 33.622L17.3934 33.6896L17.4231 33.7572L17.4525 33.8248L17.4823 33.8923L17.5121 33.9595L17.5345 34.0346L17.5637 34.1022L17.5935 34.1698L17.6233 34.2375H17.5494ZM11.0566 33.5393L10.9971 33.5844L10.9453 33.622L10.8858 33.6671L10.8267 33.7046L10.7675 33.7497L10.708 33.7872L10.6489 33.8248L10.5819 33.8623L10.5153 33.8999L10.4487 33.9374L10.3818 33.967L10.3152 34.0046L10.2412 34.0346L10.1747 34.0647L10.1002 34.0946L10.0337 34.1247L9.967 34.1473L9.90007 34.1698L9.83348 34.1924L9.7595 34.2149L9.69299 34.2375L9.6185 34.2525L9.55191 34.2675L9.47793 34.2825L9.40353 34.2975L9.32946 34.305L9.248 34.3125L9.17402 34.3201L9.09256 34.3275L9.01808 34.3351L8.9367 34.3425H8.85525H8.7737H8.69233H8.61785L8.54386 34.3351L8.4624 34.3275L8.38842 34.3201L8.31444 34.3125L8.23995 34.305L8.16597 34.29L8.0919 34.2749L8.02539 34.2599L7.95099 34.2449L7.8844 34.2224L7.81041 34.2074L7.7434 34.1848L7.67681 34.1548L7.61021 34.1323L7.53631 34.1022L7.4693 34.0722L7.40271 34.0422L7.3362 34.0121L7.26911 33.9746L7.21007 33.9374L7.14347 33.8999L7.08394 33.8623L7.02482 33.8248L6.96528 33.7797L6.90616 33.7347L6.84696 33.6896L6.79489 33.6445L6.74324 33.5995L6.6911 33.5468L6.63945 33.5019L6.5873 33.4492L6.53565 33.3966L6.49098 33.3441L6.44673 33.284L6.40205 33.2314L6.36485 33.1714L6.32059 33.1112L6.28348 33.0512L6.24661 32.9911L6.20941 32.9235L6.17221 32.8634L6.1429 32.7958L6.11309 32.7282L6.08336 32.6606L6.05397 32.5931L6.03163 32.533L6.00182 32.4653L5.98696 32.3977L5.96504 32.3302L5.95017 32.2551L5.92784 32.1874L5.91297 32.1124L5.9055 32.0448L5.89056 31.9696L5.88325 31.9021L5.87569 31.827L5.86872 31.7518L5.86133 31.6768V31.5942V31.519V31.504V31.4289L5.86872 31.3463V31.2712L5.87569 31.1961L5.88325 31.1135L5.89811 31.0388L5.9055 30.9637L5.92037 30.8961L5.9427 30.821L5.95765 30.7459L5.97949 30.6783L6.00182 30.6032L6.02416 30.5356L6.05397 30.4604L6.08336 30.3929L6.11309 30.3253L6.1429 30.2577L6.17221 30.1901L6.20941 30.1225L6.24661 30.0624L6.28348 30.0023L6.32059 29.9422L6.35788 29.8821L6.40205 29.8221L6.44673 29.762L6.49098 29.702L6.53565 29.6493L6.5873 29.5967L6.63198 29.5441L6.68371 29.4917L6.73577 29.439L6.78742 29.394L6.84696 29.3414L6.89869 29.2963L6.95781 29.2512L7.01734 29.2137L7.07646 29.1686L7.13608 29.1311L7.19512 29.0936L7.26172 29.056L7.32873 29.0184L7.39524 28.9809L7.46183 28.9508L7.52876 28.9208L7.60282 28.8832L7.66195 28.8608L7.73593 28.8382L7.80302 28.8082L7.86953 28.7931L7.93604 28.7706L8.01044 28.7556L8.07704 28.733L8.15102 28.718L8.22509 28.7105L8.29949 28.6955L8.37356 28.688L8.44746 28.6805L8.52153 28.673L8.59601 28.6654H8.67746H8.75145H8.83282H8.91428L8.99624 28.673L9.0777 28.6805H9.15168L9.22566 28.688L9.30712 28.703L9.37413 28.7105L9.44812 28.7256L9.52218 28.7406L9.58911 28.7556L9.65562 28.7706L9.7223 28.7856L9.78931 28.8082L9.85582 28.8232L9.91494 28.8457L9.98195 28.8682L10.0485 28.8982L10.1151 28.9283L10.1821 28.9584L10.2487 28.9959L10.3152 29.026L10.3748 29.0635L10.4413 29.101L10.5004 29.1386L10.5674 29.1762L10.6265 29.2212L10.6857 29.2588L10.7452 29.3039L10.8043 29.3489L10.8639 29.4015L10.923 29.4465L10.8783 29.5067L10.8267 29.5592L10.782 29.6193L10.7303 29.6793L10.6857 29.7395L10.6414 29.792L10.5893 29.8521L10.5451 29.9121L10.5004 29.9648L10.4487 30.0249L10.4041 30.085L10.3524 30.145L10.3077 30.1976L10.2635 30.2577L10.2115 30.3178L10.1671 30.3778L10.1151 30.4305L10.0708 30.4905L10.0113 30.4454L9.95214 30.3929L9.8926 30.3553L9.83348 30.3102L9.77436 30.2727L9.71482 30.2351L9.65562 30.1976L9.58911 30.16L9.52957 30.13L9.47045 30.1L9.41092 30.0774L9.34432 30.0549L9.27781 30.0324L9.2108 30.0174L9.13682 30.0023L9.06283 29.9873L8.98876 29.9798L8.90731 29.9723L8.82543 29.9648H8.74398H8.66999L8.59601 29.9723L8.529 29.9798L8.45501 29.9948L8.38842 30.0099L8.32141 30.0324L8.2549 30.0549L8.18831 30.085L8.12171 30.115L8.06217 30.1525L8.00314 30.1901L7.94352 30.2277L7.89187 30.2727L7.83972 30.3178L7.78808 30.3628L7.7434 30.4154L7.69175 30.468L7.64708 30.528L7.61021 30.5807L7.57301 30.6407L7.53631 30.7083L7.49903 30.7684L7.4693 30.836L7.44697 30.9036L7.41757 30.9712L7.39524 31.0463L7.38037 31.121L7.36551 31.1885L7.35056 31.2712L7.34317 31.3463L7.3362 31.4213V31.504V31.519V31.5942L7.34317 31.6692L7.35056 31.7368L7.35804 31.812L7.3729 31.8795L7.38784 31.9472L7.40271 32.0147L7.42504 32.0823L7.44697 32.1424L7.47678 32.2174L7.5065 32.2851L7.54329 32.3527L7.58049 32.4128L7.61769 32.4729L7.66195 32.533L7.70662 32.5855L7.75826 32.6381L7.80302 32.6907L7.85459 32.7357L7.91421 32.7808L7.97333 32.8259L8.03237 32.8634L8.0919 32.9009L8.15858 32.931L8.22509 32.9611L8.29202 32.9911L8.36608 33.0136L8.44007 33.0362L8.51455 33.0512L8.58854 33.0662L8.66252 33.0737L8.74398 33.0812H8.82543H8.91428L8.99624 33.0737L9.0777 33.0662L9.15168 33.0587L9.22566 33.0436L9.30015 33.0286L9.37413 33.0062L9.44064 32.9911L9.50732 32.9611L9.56685 32.931L9.63337 32.9009L9.68543 32.871L9.74463 32.8333V32.7583V32.6832V32.6081V32.533V32.4503V32.3753V32.3001V32.2251V32.1499H9.67057H9.60364H9.52957H9.45559H9.3816H9.31459H9.24053H9.16654H9.09256H9.02563H8.95156H8.87758H8.80351H8.73659H8.66252V32.0749V32.0072V31.9321V31.857V31.7819V31.7143V31.6392V31.5641V31.489V31.4213V31.3463V31.2712V31.1961V31.1285V31.0538H8.73659H8.81099H8.88505H8.95896H9.03302H9.10701H9.18149H9.25547H9.32946H9.40353H9.47793H9.55191H9.62589H9.69988H9.77436H9.84843H9.92241H9.9964H10.0708H10.1449H10.2188H10.2928H10.3672H10.4413H10.5153H10.5893H10.6638H10.7377H10.8118H10.8858H10.9602H11.0342H11.1082V31.1285V31.2035V31.2787V31.3463V31.4213V31.4965V31.5715V31.6467V31.7218V31.7893V31.8645V31.9396V32.0147V32.0898V32.1649V32.2401V32.3076V32.3827V32.4579V32.533V32.6081V32.6832V32.7583V32.8259V32.9009V32.9761V33.0512V33.1263V33.2014V33.269V33.3441V33.4192V33.4943L11.0566 33.5393Z" fill="white"/>
<path d="M8.67391 16.401H11.886V13.8944H8.67391V8.77693H12.0138V6.27025H5.94629V24.3613H12.0647V21.8546H8.67391V16.401Z" fill="white"/>
<path d="M31.6806 16.9443V21.0277C31.6806 21.7515 31.349 22.0872 30.6611 22.0872H30.1509C29.4372 22.0872 29.1056 21.7515 29.1056 21.0277V9.60416C29.1056 8.88052 29.4372 8.54475 30.1509 8.54475H30.6098C31.2982 8.54475 31.6297 8.88052 31.6297 9.60416V13.1452H34.3062V9.44909C34.3062 7.20085 33.2355 6.1153 31.018 6.1153H29.692C27.4745 6.1153 26.3779 7.22648 26.3779 9.47515V21.1568C26.3779 23.4055 27.4745 24.5166 29.692 24.5166H31.0433C33.2614 24.5166 34.3574 23.4055 34.3574 21.1568V16.9443H31.6806Z" fill="white"/>
<path d="M22.208 24.3616H24.936V6.2704H22.208V24.3616Z" fill="white"/>
<path d="M18.2499 14.3078C18.2499 15.0315 17.9188 15.3677 17.2305 15.3677H16.1086V8.69961H17.2305C17.9188 8.69961 18.2499 9.03546 18.2499 9.75902V14.3078ZM17.6636 6.27016H13.3809V24.3613H16.1086V17.7966H17.6636C19.8815 17.7966 20.9776 16.6855 20.9776 14.4373V9.63C20.9776 7.38134 19.8815 6.27016 17.6636 6.27016Z" fill="white"/>
<path fill-rule="evenodd" clip-rule="evenodd" d="M12.3809 40.7196H27.996L20.0257 43.3713L12.3809 40.7196Z" fill="white"/>
</g>
</g>
<defs>
<clipPath id="clip0_18_103">
<rect width="40.4767" height="46.983" fill="white"/>
</clipPath>
</defs>
</svg>
