<svg width="45" height="45" viewBox="0 0 45 45" fill="none" xmlns="http://www.w3.org/2000/svg">
<path d="M35.201 19.6078C28.0715 15.3739 16.3116 14.9846 9.50561 17.0502C8.41263 17.3819 7.25682 16.7647 6.92575 15.672C6.59447 14.5784 7.21081 13.4234 8.30461 13.0911C16.1174 10.7197 29.105 11.1776 37.3126 16.0497C38.2956 16.6334 38.6181 17.903 38.0355 18.8844C37.4523 19.8674 36.1816 20.1914 35.201 19.6078ZM34.9675 25.879C34.4673 26.6906 33.4061 26.9452 32.5955 26.4468C26.6516 22.7932 17.5882 21.7348 10.5562 23.8693C9.64427 24.1449 8.68107 23.6307 8.40407 22.7205C8.12932 21.8086 8.64373 20.8472 9.55399 20.5699C17.587 18.1323 27.5734 19.313 34.4002 23.5082C35.2108 24.0075 35.4659 25.0692 34.9675 25.879ZM32.2612 31.9016C31.8637 32.5534 31.0151 32.7576 30.3656 32.3603C25.1717 29.186 18.6344 28.4691 10.9355 30.2276C10.1936 30.3977 9.45421 29.9328 9.28502 29.1909C9.11509 28.4493 9.57824 27.7098 10.3218 27.5405C18.7469 25.6145 25.974 26.4434 31.8037 30.0057C32.4537 30.4027 32.6584 31.2518 32.2612 31.9016ZM22.1177 0.000102997C9.9026 0.000102997 0 9.9025 0 22.1174C0 34.3338 9.9026 44.2354 22.1177 44.2354C34.3331 44.2354 44.2352 34.3338 44.2352 22.1174C44.2352 9.9025 34.3331 0.000102997 22.1177 0.000102997Z" fill="#799CBC"/>
</svg>
