<svg width="66" height="52" viewBox="0 0 66 52" fill="none" xmlns="http://www.w3.org/2000/svg">
<path d="M42.0429 3.67919C47.0722 3.67919 51.1974 25.0185 51.1974 51.2823H58.4871C58.4871 22.9808 51.1409 0 42.0429 0C36.9006 0 32.2668 6.90556 29.2718 17.6601C26.2203 6.90556 21.643 0 16.4442 0C7.3462 0 0 22.9808 0 51.2823H7.2897C7.2897 24.9619 11.3584 3.67919 16.4442 3.67919C21.4735 3.67919 25.5987 23.377 25.5987 47.6031H32.8884C32.8884 23.3204 37.0136 3.67919 42.0429 3.67919Z" fill="#799CBC"/>
<path d="M62.838 49.245H63.3466C63.7422 49.245 64.1378 49.245 64.1378 48.7356C64.1378 48.3394 63.7987 48.2828 63.4596 48.2828H62.838V49.245ZM62.386 47.9431H63.5162C64.1943 47.9431 64.5333 48.2261 64.5333 48.7922C64.5333 49.3582 64.1943 49.5846 63.7422 49.5846L64.5898 50.8865H64.0813L63.2901 49.5846H62.7815V50.9431H62.3295V47.9431H62.386ZM63.3466 51.6223C64.5333 51.6223 65.4375 50.6601 65.4375 49.4148C65.4375 48.1695 64.5333 47.2639 63.3466 47.2639C62.1599 47.2639 61.2558 48.2261 61.2558 49.4148C61.2558 50.6601 62.1599 51.6223 63.3466 51.6223ZM63.3466 46.8677C64.7594 46.8677 65.8895 47.9431 65.8895 49.4148C65.8895 50.8865 64.7029 51.9619 63.3466 51.9619C61.9339 51.9619 60.8037 50.8865 60.8037 49.4148C60.8037 47.9997 61.9339 46.8677 63.3466 46.8677Z" fill="#799CBC"/>
</svg>
