<svg width="99" height="42" viewBox="0 0 99 42" fill="none" xmlns="http://www.w3.org/2000/svg">
<path d="M40.1285 9.77154C40.1285 9.77154 40.5098 9.2015 40.8275 8.75813C41.3994 7.99808 42.416 6.92133 43.2421 6.22461C43.4962 6.03459 43.7504 5.78124 43.7504 5.78124C43.7504 5.78124 43.3056 5.84458 43.0514 5.90792C42.4796 6.03459 41.59 6.60464 41.1452 6.98467C40.4462 7.61805 39.6202 8.56812 40.0015 9.51819C40.065 9.58153 40.1285 9.77154 40.1285 9.77154ZM44.1317 10.8483C45.2754 10.785 46.3556 10.4683 47.3087 9.89822C48.2619 9.32818 49.7233 8.31477 49.5962 7.048C49.5327 6.66798 49.2785 6.35128 48.9608 6.22461C48.516 6.03459 48.3254 6.09793 47.7535 6.22461C47.3723 6.35128 47.1816 6.41462 46.8004 6.60464C45.6566 7.23802 44.0681 8.63146 43.2421 9.70821C43.0514 9.96156 42.8608 10.2782 42.6702 10.4683C42.5431 10.5949 42.4796 10.7216 42.4796 10.7216C42.5431 10.8483 43.6869 10.8483 44.1317 10.8483ZM41.2087 12.9385C41.0817 13.0651 40.9546 13.3818 40.8275 13.5718C40.764 13.6985 40.6369 13.8252 40.5733 13.8885C40.2556 14.0785 40.0014 14.1419 39.7473 13.8885C39.366 13.5085 39.1119 13.0018 39.1119 12.4317V11.735C39.0483 11.4183 38.7306 11.0383 38.54 10.7216C38.3494 10.3416 38.1587 9.70821 38.1587 9.26484C38.0952 7.93474 38.7942 6.73131 39.6837 5.78124C40.5733 4.83117 41.7806 4.00777 43.0514 3.50107C44.2587 2.99436 46.0379 2.61433 47.3723 3.12104C47.8171 3.24771 48.3889 3.62774 48.7066 4.00777C48.7702 4.07111 48.8337 4.19779 48.8973 4.19779C48.9608 4.26113 49.0879 4.26113 49.215 4.26113C49.6598 4.32446 50.2316 4.64115 50.4858 4.89451C50.9941 5.33787 51.2483 5.7179 51.3754 6.35128C51.6296 7.55471 50.9306 8.88481 50.1681 9.70821C48.8337 11.1016 47.4358 12.0517 45.7202 12.7484C44.9577 13.0651 43.7504 13.3185 42.9244 13.2551C42.6702 13.2551 42.3525 13.1918 42.0983 13.1285C41.9712 13.1285 41.4629 13.0018 41.3994 12.9385C41.3358 13.0018 41.2723 12.9385 41.2087 12.9385ZM42.7973 15.5987C42.8608 15.5987 42.9244 15.662 42.9879 15.662C43.6233 15.9153 43.8775 16.4854 44.0046 17.0554C44.3858 18.5122 44.5129 21.6791 44.5764 22.8825C44.64 23.8326 44.64 24.7193 44.7035 25.6694C44.7671 26.4295 44.7671 27.5062 44.64 28.2029C44.5764 28.4563 44.3858 28.773 44.1317 28.963C43.8139 29.153 43.1785 29.153 42.7973 29.0897C41.9077 28.8997 41.59 28.3296 41.4629 27.4429C41.1452 25.3527 41.3358 21.2357 41.4629 19.4623C41.5265 18.8922 41.7171 17.0554 42.0348 16.2954C42.1619 16.1054 42.416 15.5353 42.7973 15.5987ZM15.2838 18.7656C15.2838 18.7656 13.9494 18.8289 13.0598 18.9556C11.9161 19.0823 9.75566 19.4623 8.48483 19.9056C8.10358 20.0323 7.34108 20.349 7.27754 20.729C7.214 21.1091 7.46817 21.4258 7.72233 21.7425C7.91296 21.9325 8.80254 22.8192 9.05671 23.0092C10.1369 23.896 12.2973 25.2894 13.8859 25.9228C14.4577 26.1761 15.3473 26.4928 15.3473 26.4928C15.3473 26.4928 15.2838 23.896 15.2838 21.3624C15.2202 20.0957 15.2838 18.7656 15.2838 18.7656ZM39.4931 19.779C39.5567 20.4757 39.366 21.8058 39.366 21.9325C39.3025 22.3125 38.9848 23.2626 38.9848 23.3259C38.7306 23.896 38.4765 24.3393 38.2223 24.7827C37.7775 25.5427 36.7608 26.8095 36.1254 27.3162C33.8379 29.2797 30.3431 30.4198 27.2931 30.7365C25.2598 30.9898 22.9088 30.9265 20.6848 30.5465C19.9223 30.4198 18.8421 30.1664 18.8421 30.1664C18.8421 30.1664 18.8421 30.6098 18.7786 30.9265C18.7786 31.0532 18.6515 31.4332 18.5879 31.5599C18.4609 31.8766 18.1432 32.0666 17.8254 32.1299C17.3807 32.1932 16.8723 32.2566 16.4911 32.0666C15.7921 31.7499 15.5379 31.1165 15.4109 30.4198C15.2838 29.8497 15.2202 28.773 15.2202 28.773C15.2202 28.773 14.7119 28.5196 14.2671 28.3296C12.9327 27.6962 11.6619 26.8728 10.5817 26.0494C10.264 25.7961 8.99316 24.7193 8.67546 24.466C7.84942 23.7059 7.15046 22.9459 6.57858 21.9325C6.13379 21.1724 6.00671 20.4757 6.32442 19.6523C6.76921 18.5122 8.42129 17.6888 9.5015 17.1821C10.3275 16.8021 12.8692 15.9787 13.8859 15.852C14.3942 15.7887 15.1567 15.662 15.2202 15.5987C15.2202 15.5987 15.2838 15.5987 15.2838 15.5353C15.2838 15.472 15.3473 14.3952 15.3473 13.9519C15.3473 13.5718 15.665 10.9116 15.7286 10.3416C15.7921 10.0249 15.9827 8.88481 16.2369 8.56812C16.364 8.37811 16.6817 8.37811 16.8723 8.50478C18.0796 9.26484 18.4609 11.8617 18.5244 13.1918C18.5879 14.0152 18.5879 15.2186 18.5879 15.2186C18.5879 15.2186 19.9859 15.1553 20.8119 15.2186C21.6379 15.2186 22.5275 15.3453 23.4171 15.5353C24.4973 15.7253 26.6577 16.1687 27.865 16.8021C28.8817 17.3088 29.8348 18.1955 30.1525 19.0823C30.4067 19.9056 30.4067 20.4757 29.9619 21.2357C29.4536 22.0591 28.564 22.6925 27.6108 22.7559C27.3567 22.7559 26.2765 22.6292 25.9588 22.3758C25.8317 22.2492 25.8317 22.1225 25.9588 21.9958C26.0223 21.9325 26.4671 21.6791 26.7848 21.5524C26.9119 21.4891 27.039 21.3624 27.1661 21.2991C27.4202 21.1091 27.6108 20.8557 27.6108 20.6024C27.5473 20.2223 27.2296 20.0323 26.8483 19.9056C25.1963 19.2723 21.8286 18.7022 20.1765 18.5755C19.5411 18.5122 18.6515 18.5122 18.6515 18.5122L18.8421 27.4429C18.8421 27.4429 19.6046 27.5696 20.1765 27.6962C20.4942 27.7596 21.9556 27.8863 22.3369 27.8863C25.2598 27.9496 28.4369 27.6962 31.1056 26.4295C32.2494 25.8594 33.3296 25.2261 34.1556 24.276C35.2358 23.0726 35.8077 21.3624 35.6171 19.6523C35.4265 17.7521 34.0921 15.472 33.0119 14.0785C30.1525 10.4683 25.3233 7.42803 21.0025 5.7179C16.6182 3.94443 12.2973 2.86769 7.65879 2.74101C6.4515 2.67767 3.8463 2.74101 2.51192 3.12104C2.3213 3.18438 2.13067 3.24771 1.94005 3.24771C1.81297 3.24771 1.5588 3.37439 1.49526 3.43773C1.43172 3.43773 1.43172 3.50107 1.43172 3.50107C1.43172 3.50107 1.49526 3.56441 1.5588 3.56441C1.68588 3.62774 2.25776 3.69108 2.57547 3.69108C2.82963 3.75442 3.14734 3.8811 3.21088 4.07111C3.33796 4.26113 3.33796 4.3878 3.21088 4.57782C2.89317 4.95784 1.81297 4.89451 1.30463 4.83117C0.796301 4.76783 0.160886 4.57782 0.0338024 4.13445C-0.0932808 3.62774 0.160885 3.12104 0.415052 2.61433C0.986926 1.66426 1.74942 1.15756 2.89317 0.840865C4.48171 0.397498 6.57858 0.0808074 8.10358 0.0174693C11.5348 -0.109207 14.839 0.460836 18.2067 1.47425C20.1129 2.04429 22.6546 2.99436 24.4973 3.8811C25.8317 4.51448 27.9286 5.65456 29.0723 6.47796C29.4536 6.73131 31.614 8.31477 31.9317 8.56812C32.6306 9.13816 33.5202 9.96156 34.2192 10.5949C35.49 11.8617 37.0785 13.8252 37.841 15.3453C38.0317 15.7253 38.1587 16.1054 38.4129 16.4854C38.4765 16.6121 38.8577 17.4988 38.9212 17.7521C38.9848 18.0055 39.0483 18.3855 39.0483 18.3855C39.366 18.7656 39.4931 19.5256 39.4931 19.779ZM54.4254 20.4757H54.5525C55.6327 20.6024 56.6493 20.7924 57.4754 21.1724C58.2379 21.4891 58.6191 21.9325 59.0639 22.6292C59.6358 23.7693 59.6993 25.2894 59.191 26.4928C58.8098 27.3795 57.9202 28.0763 57.0941 28.5196C56.2681 28.8997 55.4421 29.0897 54.4889 29.2164C52.8368 29.4064 50.9941 29.0897 49.5327 28.3296C48.6431 27.8863 47.5629 27.1262 46.991 26.1761C46.6098 25.4794 46.6098 24.5293 47.1181 23.896C47.8806 22.8192 49.5962 22.6292 50.8035 22.6292C51.7566 22.6925 53.4723 22.9459 54.4254 23.2626C54.6796 23.3259 55.6327 23.7059 55.7598 23.896C55.8868 24.0226 55.9504 24.1493 55.8868 24.3393C55.6962 24.9727 54.1077 25.2894 53.6629 25.3527C52.4556 25.5427 51.8202 25.0994 50.4858 24.5293C50.1681 24.4027 49.7233 24.276 49.3421 24.2126C48.7066 24.1493 48.0077 24.3393 47.8806 24.9727C47.8171 25.2894 48.1983 25.6694 48.516 25.7961C49.215 26.1128 49.8504 26.2395 50.5494 26.2395C52.6462 26.3028 55.0608 25.9228 56.7764 24.7193C57.0306 24.5293 57.2212 24.276 57.2212 24.0226C57.2212 23.9593 57.1577 23.6426 57.0306 23.5793H56.967C56.9035 23.5793 56.84 23.4526 56.7764 23.3892C56.6493 23.2626 56.141 23.0092 56.0775 23.0092C54.9337 22.5025 52.7733 22.3125 51.6296 22.1858C50.4858 22.0591 48.6431 21.9325 48.1983 21.8691C47.7535 21.8058 47.2452 21.7425 46.8639 21.5524C46.4827 21.3624 46.1014 20.9824 45.9744 20.539C45.7837 19.7156 46.0379 18.7656 46.4827 18.1322C47.6264 16.4854 50.3587 15.852 52.3921 15.5987C54.3618 15.3453 57.5389 15.3453 59.4452 16.3587C59.7629 16.4854 59.89 16.6754 59.8264 16.9921C59.6993 17.5621 59.2545 17.9422 58.6827 18.1322C58.1108 18.3222 56.9035 18.3855 56.3952 18.3855C54.0441 18.5122 51.2483 18.4489 49.0244 19.0189C48.8337 19.0823 48.5796 19.1456 48.4525 19.2723C48.1348 19.6523 49.0879 19.779 49.2785 19.779H49.4056L54.4254 20.4757ZM61.6691 29.0897C60.716 28.773 60.5254 27.2529 60.4618 26.4928C60.3348 24.0226 60.9702 20.539 61.7962 18.1955C62.0504 17.4988 62.3681 16.422 63.1306 16.4854C63.6389 16.5487 64.0202 16.9288 64.2743 17.3088C65.0368 18.3222 65.99 19.7156 66.6254 20.729C67.3243 21.8058 68.0233 22.9459 68.7222 23.896C68.7858 24.0226 68.9129 24.1493 68.9764 24.2126C69.1035 24.3393 69.2306 24.3393 69.2306 24.2126C69.2306 24.1493 69.2306 22.9459 69.167 22.6925C69.1035 22.3125 69.1035 21.9958 69.0399 21.6158C68.9129 20.6024 68.5952 19.2089 68.341 18.2589C68.0868 17.1821 67.7056 16.1054 67.4514 15.0286C67.3879 14.7119 67.3243 14.3319 67.3243 14.0152C67.3243 13.5718 67.642 13.3185 68.0868 13.4452C69.0399 13.7618 70.3108 15.852 70.692 16.5487C70.8191 16.8021 71.3274 18.0055 71.4545 18.3855C71.8358 19.589 72.0899 20.6657 72.217 21.9958C72.3441 23.2626 72.217 25.0994 71.7087 26.3028C71.5181 26.7462 71.1368 27.3795 70.7556 27.6962C70.2472 28.2029 69.167 28.583 68.4681 28.1396C67.7056 27.6962 66.3712 25.4794 66.1806 25.0994C65.4181 23.7693 64.1472 21.2357 63.9566 20.9824C63.8931 20.9191 63.8295 20.8557 63.766 20.8557C63.7025 20.8557 63.6389 20.9824 63.6389 21.1091C63.5118 21.8691 63.4483 25.2894 63.4483 25.4161C63.4483 25.9861 63.3847 27.4429 63.2577 28.1396C63.1306 28.583 63.067 28.963 62.6222 29.153C62.241 29.2797 62.0504 29.2164 61.6691 29.0897ZM74.5681 28.8997C74.441 28.8363 74.3139 28.6463 74.1868 28.5196C74.1868 28.5196 73.8056 28.0129 73.742 27.8229C73.6785 27.6962 73.6149 27.5696 73.6149 27.5062C73.2972 26.6828 73.2972 25.9228 73.4879 25.0994C73.6785 24.276 73.8056 24.276 74.1868 23.1992C74.1868 23.1359 74.2504 23.0726 74.2504 23.0092C74.2504 22.8825 73.9962 21.8691 73.9962 21.5524C73.9962 21.0457 74.3774 20.729 75.0129 20.6657H75.1399C75.3941 20.6024 75.5847 20.0957 75.7118 19.7156C75.9024 19.1456 76.2201 18.3222 76.2201 18.3222C76.2201 18.3222 75.3941 18.1322 74.9493 18.0055C74.441 17.8155 74.1233 17.5621 73.8691 17.1188C73.6149 16.6121 73.8056 16.2954 74.3139 16.1687C74.5045 16.1054 76.0931 15.7887 76.6014 15.7253C77.2368 15.662 77.8087 15.5353 78.3806 15.472C78.8889 15.4086 81.2399 15.1553 82.0024 15.1553C83.1462 15.2186 83.9087 15.662 84.5441 16.6121C84.9254 17.1188 85.116 17.7521 84.6076 18.0688C83.7816 18.5755 81.1128 18.6389 80.6045 18.6389H78.7618L78.1899 20.4757H81.1764C81.4306 20.4757 81.6847 20.4757 81.8754 20.539C82.4472 20.6657 82.6379 21.1091 82.6379 21.6791C82.6379 22.3758 82.5108 22.7559 81.9389 22.8192C81.6212 22.8825 78.317 22.8825 77.8722 22.9459C77.6181 23.0092 77.3004 23.0092 77.3004 23.0092C77.3004 23.0092 77.0462 23.6426 76.8556 24.276C76.6649 24.9094 76.4743 25.6061 76.4743 25.6061H76.792C77.0462 25.6061 77.2368 25.6061 77.4274 25.5427C78.4441 25.3527 79.9691 25.1627 81.1764 24.9727C81.8118 24.846 82.1931 24.846 82.5108 25.2894C82.8285 25.6694 82.9556 25.9861 83.0191 26.4928C83.0191 26.9362 82.7014 27.2529 82.2566 27.5696C80.9858 28.583 78.6983 29.6597 77.0462 29.8497C76.2837 29.9131 76.0931 29.8497 75.3941 29.6597C75.267 29.5964 74.8222 29.4064 74.8222 29.4064C74.9493 29.153 74.6952 28.963 74.5681 28.8997ZM95.5368 19.7156C94.7107 20.4124 93.567 21.8691 93.0587 22.6292C92.3597 23.6426 91.7243 24.7827 91.0889 25.6694C90.9618 25.8594 90.517 26.5562 90.5806 26.6195C90.5806 26.6828 91.0253 26.6828 91.4701 26.5562C92.3597 26.4295 93.567 25.7961 94.266 25.2261C95.2826 24.4027 95.9816 23.3259 96.2993 22.0591C96.4264 21.4891 96.4899 20.2857 96.1087 19.7156C95.918 19.6523 95.6639 19.589 95.5368 19.7156ZM88.7378 30.1664C88.7378 30.1664 88.4837 30.9898 88.2931 31.5599C87.9753 32.6366 87.2128 35.4868 87.0222 36.4369C86.7681 37.767 86.0055 41.2506 86.0055 41.3139C85.942 41.4406 85.942 41.4406 85.8149 41.504C85.4972 41.694 85.3701 41.6306 84.9889 41.4406C84.4806 41.1873 84.0993 40.9339 83.7181 40.4272C83.0191 39.4771 83.1462 37.7037 83.3368 36.6903C83.8451 33.0166 84.3535 31.4332 85.7514 27.8229V27.6962C85.3066 26.7462 85.0524 25.6694 85.0524 24.7827C85.0524 21.9325 86.7045 19.1456 88.5472 16.8654C88.6743 16.6754 89.5639 15.5987 90.0087 15.662C90.3899 15.662 90.517 16.1687 90.4535 16.5487C90.2628 17.8788 89.3097 19.2089 88.6743 20.2857C87.9753 21.5524 87.7847 22.0591 87.467 23.1992C87.4035 23.3892 87.2764 24.2126 87.2764 24.3393C87.2764 24.656 87.3399 25.036 87.3399 25.036C87.3399 25.036 88.4837 23.3892 89.2462 22.4392C89.691 21.8691 89.9451 21.5524 90.3264 21.1091C90.7076 20.729 92.042 19.2723 92.4233 18.9556C93.2493 18.1955 93.6305 17.8788 94.5201 17.3721C95.2191 16.9921 95.8545 16.9288 96.5535 17.3721C97.6337 18.0688 98.142 19.589 98.2691 20.7924C98.3962 22.2492 98.142 23.896 97.443 25.1627C96.6805 26.6828 95.6003 27.7596 94.2024 28.6463C92.741 29.5964 91.0253 30.2931 89.3733 30.2298C88.992 30.1664 88.7378 30.1664 88.7378 30.1664Z" fill="#799CBC"/>
</svg>
