<svg width="26" height="26" viewBox="0 0 26 26" fill="none" xmlns="http://www.w3.org/2000/svg">
<path d="M8.85622 5.416C10.8501 4.33562 13.2908 4.89275 14.6375 6.62712L12.0729 8.01694C11.7087 8.21429 11.5735 8.6695 11.7708 9.03368C11.9683 9.39753 12.4235 9.53301 12.7876 9.33573L15.4071 7.91614L16.207 9.39206L13.5874 10.8117C13.2232 11.009 13.088 11.4642 13.2853 11.8284C13.4829 12.192 13.9382 12.3277 14.3021 12.1305L16.8667 10.7406C17.5837 12.8155 16.7178 15.1642 14.7244 16.2446C12.506 17.4468 9.73222 16.6227 8.53 14.4043L7.01595 11.6104C5.81372 9.39198 6.63776 6.61823 8.85622 5.416Z" fill="white"/>
<path d="M18.1364 9.19879C19.8091 12.2854 18.6629 16.1435 15.5763 17.8161M15.5763 17.8161C12.4898 19.4888 8.63166 18.3426 6.95898 15.2561M15.5763 17.8161L16.7121 19.9119M16.7121 19.9119L18.8078 18.7762M16.7121 19.9119L14.6163 21.0476" stroke="white" stroke-width="1.5" stroke-linecap="round"/>
</svg>
