<svg width="210" height="34" viewBox="0 0 210 34" fill="none" xmlns="http://www.w3.org/2000/svg">
<g clip-path="url(#clip0_18_68)">
<path fill-rule="evenodd" clip-rule="evenodd" d="M182.967 23.4401V14.6204H178.081V24.3778C178.081 27.6792 181.519 30.3585 185.761 30.3585C190.003 30.3585 193.441 27.6792 193.441 24.3778V14.6204H188.592V23.4401C188.592 24.907 187.331 26.099 185.781 26.099C184.229 26.099 182.969 24.9079 182.969 23.4401H182.967Z" fill="#799CBC"/>
<path d="M209.38 4.13696H204.459V29.8089H209.38V4.13696ZM201.065 4.13696H196.144V29.8089H201.065V4.13696Z" fill="#799CBC"/>
<path fill-rule="evenodd" clip-rule="evenodd" d="M106.123 9.5236H103.448V29.809H98.2129V5.31519H107.211C111.309 5.31519 114.627 8.55342 114.627 12.5483C114.627 15.9499 112.219 18.802 108.979 19.5762L116.21 29.809H110.039L104.808 21.7895V15.9314H106.023C107.955 15.9314 109.522 14.4951 109.522 12.7256C109.522 10.9552 108.055 9.51988 106.12 9.51988L106.123 9.5236Z" fill="#799CBC"/>
<path d="M131.674 23.2118C131.707 22.8775 131.722 22.535 131.719 22.184C131.793 16.8912 128.269 13.9844 123.777 13.9844C119.286 13.9844 115.645 17.6488 115.645 22.1682C115.645 26.6877 119.286 30.3585 123.777 30.3585C127.205 30.3585 129.881 28.8165 131.257 26.4008L127.264 24.57C126.753 25.6627 125.564 26.4333 124.181 26.4296C122.265 26.4268 120.85 25.0295 120.834 23.3816V23.2145H131.671L131.674 23.2118ZM120.818 20.3987C120.832 19.6156 121.154 18.8692 121.716 18.3203C122.278 17.7714 123.035 17.4638 123.823 17.4638C124.611 17.4638 125.367 17.7714 125.929 18.3203C126.491 18.8692 126.814 19.6156 126.828 20.3987H120.814H120.818ZM151.26 29.8089L151.253 4.13696H146.349V16.2841C145.043 14.9992 143.305 14.2221 141.406 14.2221C137.341 14.2221 134.048 17.8029 134.048 22.2221C134.048 26.6412 137.341 30.223 141.406 30.223C143.325 30.223 145.063 29.4106 146.371 28.0997V29.808L151.26 29.8089ZM142.801 26.0582C140.808 26.0582 139.188 24.297 139.188 22.1292C139.188 19.9614 140.804 18.2021 142.801 18.2021C144.798 18.2021 146.413 19.9614 146.413 22.1292C146.413 24.297 144.798 26.0573 142.801 26.0573V26.0582ZM172.059 16.4762C173.406 15.2266 174.23 13.5537 174.23 11.7164C174.23 10.0527 173.584 8.52084 172.457 7.3195C171.284 6.0346 169.207 5.3151 166.398 5.3151H157.988V29.8089H168.851C173.012 29.7411 176.366 26.6162 176.366 22.7847C176.366 19.9967 175.377 18.0081 172.063 16.4762H172.059ZM167.94 25.5559H163.232V9.52258H166.515C167.956 9.52258 169.125 10.8335 169.125 12.2688C169.126 12.6096 169.058 12.9472 168.927 13.2622C168.796 13.5772 168.604 13.8634 168.361 14.1045C168.119 14.3456 167.831 14.5368 167.514 14.6672C167.197 14.7976 166.858 14.8647 166.515 14.8646H164.806V19.2679H167.94C169.687 19.2679 171.009 20.6679 171.009 22.4059C170.947 24.2005 169.84 25.4408 167.94 25.5559Z" fill="#799CBC"/>
<path d="M44.1451 33.4222C53.4285 33.4222 60.9562 25.9403 60.9562 16.7111C60.9562 7.48193 53.4285 0 44.1451 0C34.8607 0 27.334 7.48193 27.334 16.7111C27.334 25.9403 34.8607 33.4222 44.1451 33.4222Z" fill="#D6E6F5"/>
<path d="M42.9458 24.4639C41.996 23.931 41.8082 22.881 41.3114 22.2385C41.1078 21.9842 40.7715 21.7019 40.681 21.4708C39.8245 19.2927 39.5341 18.0691 39.2333 15.9431C39.0783 14.8541 38.3517 13.9359 37.2917 12.6473C36.8294 12.0856 36.1709 11.1572 35.6012 10.6085C33.6894 9.00613 32.6555 8.1158 31.3798 7.26168C31.1305 7.0936 30.8664 6.94847 30.5906 6.82812H30.584C30.5792 6.82714 30.5747 6.8249 30.571 6.82162C30.1451 6.63594 29.7603 6.58395 29.2363 6.55517C29.1667 6.55107 29.0969 6.5489 29.0271 6.54867C28.0764 6.54867 27.1723 6.89218 26.2608 7.59219C25.5986 8.02297 24.8393 8.26342 24.1034 8.49459C23.175 8.78703 22.2121 9.09248 21.4276 9.77299C21.2875 9.87325 21.1596 10.0144 21.0335 10.1462C20.8616 10.3291 20.7393 10.538 20.4778 10.6215C20.2508 10.6726 20.0892 10.6726 19.9053 10.6884C19.6152 10.7101 19.3269 10.751 19.0423 10.8109C18.0766 11.0384 17.3369 11.6298 16.558 12.2564L16.2927 12.4681C15.7884 12.8664 14.9198 13.2294 14.4286 13.2452C13.0557 13.287 12.0834 13.6082 11.072 14.3565C10.0278 15.1502 8.90987 15.9691 7.67239 16.4732C7.38817 16.5829 7.08629 16.6405 6.7814 16.6431C6.45826 16.6431 5.99595 16.5725 5.62798 16.2328C5.15914 15.802 5.0041 14.9729 5.28522 14.4177C5.7055 13.5952 6.56099 12.924 7.25959 12.4291C8.16085 11.7514 9.03316 10.862 8.64557 9.3877C8.22809 8.03875 6.57127 7.60519 5.47574 7.31646C5.16567 7.23569 4.8967 7.16513 4.73886 7.09179C4.3933 6.93117 4.15047 6.76685 3.91511 6.60902C3.68654 6.44425 3.44073 6.30449 3.18196 6.19217C3.13807 6.1768 3.09211 6.16804 3.04561 6.16618C2.8912 6.16618 2.7676 6.24014 2.67483 6.38806C2.27977 7.07229 2.16396 7.76951 2.32927 8.45003C2.58424 9.56781 3.69283 10.5853 4.84906 10.7654C4.96487 10.7942 5.09749 10.8044 5.22731 10.8174C5.34686 10.8267 5.46921 10.8397 5.58221 10.862C4.81495 11.451 4.11498 12.122 3.49484 12.8627C2.64868 13.8524 2.41613 15.4873 2.95502 16.6626C3.42106 17.8379 4.60344 18.7951 5.83158 18.9882C6.07347 19.0328 6.33591 19.0551 6.63197 19.0551C7.05879 19.0551 7.4884 19.0105 7.89934 18.9659C7.99927 18.9567 8.10294 18.9427 8.19914 18.9335C8.24117 19.8646 8.27386 20.443 8.79406 21.7632C8.82582 21.8468 8.8034 21.9879 8.69413 22.0844C8.60354 22.1643 7.84704 22.4762 7.63036 22.5208C7.53871 22.5358 7.44585 22.5424 7.35298 22.5403H7.04291C6.94018 22.5403 6.80662 22.5403 6.67774 22.5588C6.20236 22.6266 5.967 23.0249 5.79889 23.4111C5.69616 23.6451 5.62144 23.8512 5.55606 24.0276C5.39449 24.4676 5.29456 24.7406 4.98449 24.9077C4.98449 24.9077 4.33819 24.3358 4.22799 24.2578C4.07849 24.1701 3.90843 24.1231 3.73486 24.1213C3.32766 24.1213 2.96622 24.3785 2.61693 24.6254C2.51117 24.704 2.40211 24.778 2.29004 24.8473C1.99678 25.0302 1.77637 25.3422 1.71286 25.6662C1.23748 25.9038 0.772376 26.1898 0.5557 26.6623C0.452965 26.8647 0.433352 27.1117 0.41374 27.3493C0.405836 27.4622 0.392747 27.5747 0.374514 27.6864C0.337497 27.7618 0.295372 27.8347 0.24843 27.9045C0.116744 28.0846 0 28.3511 0 28.5154C0 28.8617 0.128885 28.9935 0.323146 29.1579C0.559436 29.325 1.20199 29.5199 1.66056 29.6332C1.69403 29.6423 1.72861 29.6466 1.7633 29.6462C1.90339 29.6462 2.01546 29.5747 2.12287 29.5069C2.17423 29.4754 2.2256 29.4401 2.28444 29.4141C2.66269 29.5042 3.22119 29.6202 3.76382 29.6202C4.04525 29.6196 4.30052 29.5886 4.52965 29.5274C5.08255 29.3788 5.5542 28.6342 5.80916 28.2323C5.8708 28.1357 5.93245 28.0401 5.94832 28.0271C5.96421 28.0192 5.98203 28.016 5.99969 28.0178C6.08375 28.0178 6.2201 28.0559 6.36486 28.0976C6.53297 28.1459 6.72724 28.1998 6.90188 28.2165C7.52483 28.2712 8.11975 27.886 8.50454 27.6C8.66238 27.484 8.83329 27.3206 9.0014 27.1637C9.18819 26.9863 9.37965 26.8035 9.54496 26.6939C9.76327 26.6063 9.99694 26.5627 10.2323 26.5658C10.3164 26.5652 10.4092 26.5695 10.5107 26.5788C10.959 26.6716 11.5473 26.7812 12.1199 26.7812C12.6914 26.7812 13.1248 26.6846 13.5021 26.4887L13.8514 26.3086C14.2296 26.1164 14.6172 25.9205 14.9852 25.7209C15.6959 25.3384 15.9808 24.709 16.2134 24.2049L16.2713 24.0768C16.4076 23.7843 16.614 23.2542 16.6691 23.1224C16.7781 23.1378 16.8923 23.1453 17.0119 23.1447C17.3957 23.1447 17.774 23.0648 18.1392 22.9868C18.4978 22.9107 18.8723 22.8336 19.2468 22.8336C19.4448 22.8336 19.6251 22.8522 19.8063 22.8977C20.4787 23.0295 21.3641 23.1809 22.2653 23.1809C22.7323 23.185 23.1982 23.1364 23.6541 23.036C23.7578 23.1354 23.8745 23.2217 23.9876 23.3053C24.0996 23.3888 24.2033 23.4659 24.3004 23.5596C24.1968 23.5779 24.0924 23.5919 23.9876 23.6014C23.6737 23.6367 23.3478 23.672 23.1087 23.9264C22.8502 23.8224 22.5731 23.7719 22.2943 23.7778C21.9781 23.7851 21.6628 23.8152 21.351 23.8679C21.2246 23.8864 21.1016 23.9035 20.9821 23.9189C20.5011 23.9765 20.1714 24.1603 20.0005 24.4713C19.8969 24.6737 19.8193 24.8863 19.9874 25.2326L20.9335 26.7932C21.0503 26.9956 21.2436 27.16 21.3762 27.1692C21.4472 27.1757 21.5415 27.1692 21.6443 27.16C21.7265 27.1525 21.8083 27.1482 21.8899 27.147C22.0418 27.147 22.1337 27.1726 22.1654 27.224C22.2127 27.297 22.2588 27.3698 22.3036 27.4422C22.4979 27.7448 22.6978 28.0596 23.0013 28.326C23.4608 28.7243 24.2005 28.8905 24.8953 28.7308C25.1569 28.6349 25.4184 28.5405 25.6799 28.4476C26.498 28.1552 27.3442 27.8535 28.1642 27.5072L29.5249 27.3141C29.9742 27.2268 30.3169 26.6233 30.4299 26.3727L30.4589 26.3151C30.4589 26.3151 30.8698 25.5056 30.995 25.0144C31.0015 25.098 31.0015 25.2094 31.0015 25.3644C31.0015 26.1285 31.1379 27.0959 32.4491 27.0448C33.1795 27.0151 34.1489 26.5853 34.84 26.4599C35.5639 26.3374 36.5071 26.6428 37.2085 26.3021C37.8903 26.0264 38.2816 25.4991 38.3909 25.6086C38.8435 26.0471 39.3808 26.3896 39.9705 26.6156C40.5601 26.8416 41.1898 26.9462 41.8213 26.9232C42.801 26.8917 42.9075 26.1109 42.2229 25.7572C43.5594 25.9113 43.9545 25.1927 43.7051 24.9606C43.5463 24.813 43.4529 24.7396 42.9458 24.4565V24.4639ZM30.9361 23.7379C30.4318 23.0602 30.1031 22.5793 30.0545 21.9591C30.697 21.8848 31.2854 21.6731 32.2418 21.6221C31.9924 22.3574 31.1369 22.7074 30.9333 23.7351L30.9361 23.7379ZM87.7679 28.0521C87.7221 27.9621 87.6773 27.8757 87.6511 27.8108C87.6091 27.6669 87.6026 27.5155 87.5932 27.3549C87.5839 27.1785 87.5745 26.9947 87.5185 26.822C87.3672 26.3207 86.8274 26.0087 86.3912 25.8324C86.3754 25.643 86.3399 25.4378 86.1624 25.3125C85.4087 24.7786 85.0146 24.4769 84.8017 24.3163C84.6756 24.2197 84.6307 24.1845 84.6046 24.1752C84.5153 24.1338 84.4182 24.1117 84.3197 24.1102C83.9872 24.1102 83.722 24.3738 83.4642 24.6245L83.2868 24.7981C83.2803 24.8046 83.2774 24.8046 83.2672 24.8046C83.1859 24.8046 83.0178 24.5577 82.9758 24.4453C82.9011 24.2457 82.8441 24.0563 82.7853 23.8734C82.6888 23.5328 82.5644 23.2006 82.4135 22.8801C82.1296 22.3184 81.5226 22.3091 80.9855 22.2998H80.8342C80.5886 22.2998 80.2645 22.2645 80.2066 22.103C80.1487 21.9433 80.2683 21.6407 80.343 21.4197C80.3943 21.2656 80.4429 21.1208 80.4588 20.9796C80.5951 20.3762 80.6045 19.5722 80.4849 18.9205C80.6204 18.9242 80.7558 18.939 80.8987 18.9557C81.0207 18.9724 81.1477 18.9842 81.2797 18.991H81.3965C82.2043 18.991 82.8861 18.8332 83.4801 18.5129C84.6784 17.7962 85.4125 16.6403 85.4414 15.4102C85.3994 14.7677 85.2471 14.2376 84.9184 13.5822C84.4757 12.7151 83.7388 11.8609 82.6629 10.9743C83.2859 10.8462 83.8033 10.6958 84.2814 10.3959C85.2574 9.77949 85.6898 8.6617 85.4993 7.2459C85.4479 6.91168 85.3181 6.33329 85.0342 6.18289C84.9934 6.16135 84.9478 6.15018 84.9016 6.15039C84.6952 6.15039 84.4944 6.37228 84.3169 6.56817C84.2516 6.64244 84.188 6.70929 84.1329 6.75756C83.8005 7.05279 83.4091 7.12985 82.9991 7.21062C82.7825 7.2524 82.5602 7.29696 82.3491 7.37402C81.3666 7.69246 79.6967 8.41753 79.5473 9.73771C79.4025 11.0421 80.3364 11.9194 81.2414 12.7671C81.5412 13.0493 81.8298 13.3157 82.0745 13.5989C82.5975 14.1996 83.044 14.7965 82.9272 15.4715C82.8861 15.7026 82.5564 16.0564 82.2426 16.1975C82.0023 16.2804 81.7557 16.3219 81.5029 16.3219C80.6661 16.3219 79.8611 15.867 79.1541 15.4613L79.0532 15.4037C77.4122 14.2729 75.7162 13.1013 73.6129 12.8785C72.8116 12.7253 72.1168 12.2434 71.4415 11.7737C71.2865 11.6651 71.1302 11.5583 70.9727 11.4534C70.2651 11.0405 69.4857 10.7636 68.6751 10.6373C68.2549 10.5825 67.9224 10.3096 67.5703 10.0246C67.388 9.86753 67.1938 9.72475 66.9894 9.59752C66.1645 9.06838 65.245 8.70182 64.2809 8.5178C64.1857 8.48919 64.0891 8.46564 63.9914 8.44724C63.7392 8.39525 63.4768 8.33769 63.2956 8.1483C63.0182 7.82336 62.6362 7.40558 62.1749 7.07879C61.5575 6.66751 60.5984 6.23024 59.7615 6.23024C59.5923 6.22798 59.4236 6.2486 59.26 6.29151C58.7949 6.40756 58.4335 6.67679 58.0515 6.96274L57.9067 7.06858C57.1409 7.66275 56.1229 8.47973 55.3215 9.04791C52.9306 10.7404 52.0322 11.4822 50.847 12.7708C47.7967 16.0814 48.7241 21.0372 46.0876 23.9087C45.4058 24.6533 45.2153 24.7498 44.9669 24.9559C44.6586 25.2122 44.5877 26.5779 46.5845 25.9094C45.6739 26.6837 46.2482 27.043 46.846 27.056C47.9004 27.0783 49.0632 26.7153 50.2035 25.5083C50.9955 26.641 52.3749 26.1183 53.0922 26.1768C53.7647 26.2306 55.0021 26.9566 55.7222 26.9149C56.8205 26.8471 57.2249 25.7553 57.1147 25.1481C57.2922 25.1481 57.3407 25.1063 57.3893 25.02C57.5191 25.6522 57.606 26.0858 57.7293 26.4033C57.7399 26.4268 57.7535 26.4547 57.7704 26.4869V26.4943C57.8488 26.6317 58.0104 26.9371 58.172 27.0848C58.3587 27.3094 58.6399 27.3391 58.8631 27.3391C58.9537 27.3391 59.0443 27.3326 59.1311 27.3299C59.2307 27.323 59.3276 27.3196 59.4216 27.3196C59.5049 27.3814 59.5847 27.4477 59.6607 27.5183C59.8381 27.6724 60.0193 27.834 60.2425 27.8943C61.2829 28.1608 62.1459 28.3984 62.9827 28.6909C63.1536 28.7457 63.4151 28.8162 63.6767 28.8162C63.762 28.8162 63.8438 28.8088 63.9223 28.7939C64.718 28.6231 65.4259 27.9463 65.5997 27.1785C65.6127 27.0597 65.6996 27.0495 65.8481 27.043C65.9555 27.0402 66.0778 27.0337 66.146 26.9566C66.5784 26.6131 66.8437 26.1406 67.1024 25.6875C67.1559 25.591 67.212 25.4938 67.2705 25.396C67.3371 25.2816 67.3748 25.1528 67.3804 25.0206C67.3859 24.8885 67.3591 24.7571 67.3022 24.6375C67.2182 24.4704 67.0663 24.3497 66.8465 24.2754C66.4327 24.1594 65.9714 24.1492 65.5735 24.1492H65.1345C64.9272 24.1492 64.6881 24.1492 64.4556 24.1269L64.2875 23.944C64.1651 23.8344 64.0101 23.8094 63.8578 23.7834L63.7486 23.7648L64.1259 23.4714C64.2772 23.4758 64.4269 23.4779 64.5751 23.4779C65.454 23.4779 66.2618 23.4009 66.9828 23.2505C67.6242 23.0972 68.2808 23.0162 68.9404 23.0091C69.0282 23.0079 69.1175 23.01 69.2084 23.0156C69.3161 23.0218 69.4239 23.0292 69.5316 23.0379C69.9257 23.0639 70.3301 23.0936 70.7336 23.0936C71.2669 23.0936 71.7002 23.0444 72.0878 22.9423C72.1364 23.1344 72.1747 23.3238 72.2102 23.5104C72.3521 24.2104 72.4847 24.8724 73.0274 25.4471C73.3542 25.8611 73.7801 26.0988 74.1948 26.3337C74.4077 26.4525 74.6244 26.5871 74.8336 26.7255C75.1119 26.8666 75.3351 26.8889 75.6545 26.8889C76.1 26.8889 76.6688 26.6995 76.992 26.6995C78.3397 26.6995 79.3801 27.4255 80.5074 28.3019C80.7082 28.4337 80.9538 28.5015 81.2349 28.5015C81.5767 28.5015 81.9615 28.3994 82.2977 28.2183L82.3239 28.2573C82.5294 28.546 82.747 28.8487 83.0374 29.0836C83.454 29.4587 83.9938 29.5107 84.4664 29.5107C84.6242 29.5107 84.7886 29.5032 84.9473 29.4967C85.1734 29.4874 85.4022 29.4782 85.6226 29.4874C85.7094 29.6091 85.8776 29.7028 86.0102 29.6963C86.1428 29.6898 87.5998 29.2173 87.6773 29.1922C87.7548 29.1671 87.8641 29.1022 87.8641 29.1022C88.2171 28.922 87.9612 28.4151 87.7744 28.0419L87.7679 28.0521ZM57.5957 23.7852C57.2436 23.0889 56.9681 22.4623 56.5319 21.8078C57.5313 22.0417 58.6707 21.9285 58.6707 21.9285C58.3485 22.3852 57.9796 23.037 57.5957 23.7852Z" fill="#D6E6F5"/>
<path d="M63.809 24.4743C63.7567 24.4093 63.6539 24.4001 63.5951 24.4001C63.5702 24.3994 63.5453 24.4007 63.5204 24.4038C63.3401 24.4261 63.1748 24.4353 63.0039 24.4353C62.9158 24.4349 62.8276 24.4328 62.7396 24.4288C62.6677 24.4288 62.6032 24.4223 62.5388 24.4223C62.4323 24.4223 62.3455 24.4288 62.2586 24.4455H62.2381L62.2287 24.4641C62.2156 24.4901 61.8832 25.0676 61.928 25.4343C61.9765 25.8298 62.38 25.9096 62.6873 25.9709C62.7975 25.9932 62.9236 26.0155 63.0525 26.0155C63.2716 26.0148 63.4179 25.9421 63.4914 25.7973C63.6515 25.4067 63.7665 24.9993 63.8342 24.583C63.8394 24.5631 63.8398 24.5424 63.8354 24.5224C63.8311 24.5024 63.822 24.4837 63.809 24.4678V24.4743ZM85.7596 25.7778C85.569 25.5048 85.2366 25.2857 84.9713 25.1094C84.8651 25.0447 84.7634 24.973 84.6668 24.8949L84.6127 24.8559C84.5522 24.8047 84.4754 24.7764 84.396 24.7761C84.0953 24.7761 83.7693 25.1353 83.7628 25.257C83.7534 25.4371 84.0112 25.7583 84.3474 26.1575L84.4184 26.2438C84.5896 26.4462 84.7727 26.5542 84.9676 26.5679C85.1646 26.5679 85.3197 26.5029 85.485 26.3497C85.6073 26.2373 85.8791 25.9542 85.7558 25.7806L85.7596 25.7778ZM87.1661 28.1034C87.1198 28.0127 87.081 27.9183 87.0503 27.8212C87.0223 27.6851 87.0005 27.5479 86.9849 27.4099C86.9569 27.1908 86.9307 26.9829 86.8626 26.8222C86.8138 26.7232 86.7386 26.6393 86.6453 26.5797C86.5519 26.5202 86.4439 26.4872 86.333 26.4843C86.2564 26.4834 86.1807 26.5012 86.1126 26.5363C85.7839 26.6997 85.5858 26.877 85.641 27.2456C85.8221 27.7822 85.9118 28.1712 86.0323 28.7004C86.0454 28.7811 86.1005 29.0476 86.2284 29.0476C86.239 29.0476 86.249 29.0467 86.2583 29.0448L87.2053 28.7366C87.2273 28.7301 87.2477 28.7189 87.2649 28.7039C87.2822 28.6888 87.2959 28.6702 87.3053 28.6493C87.3604 28.524 87.2604 28.3123 87.1633 28.1062L87.1661 28.1034Z" fill="#799CBC"/>
<path d="M85.4931 28.8547C85.4182 28.2764 85.2567 27.7125 85.014 27.1817L85.0019 27.1566H84.9729C84.4228 27.191 84.0838 26.7482 83.7541 26.3239C83.6449 26.1828 83.544 26.0509 83.4347 25.9358C83.2715 25.7543 83.0955 25.5846 82.908 25.428C82.7137 25.2609 82.5493 25.1133 82.4849 24.9823C82.4074 24.8208 82.3233 24.5126 82.2421 24.2136C82.1842 24.002 82.13 23.7996 82.0777 23.6612L82.045 23.5749C81.9451 23.3112 81.8255 22.9835 81.4828 22.9297C81.3119 22.9009 81.1241 22.8944 80.9467 22.8879C80.4517 22.8684 79.9548 22.7821 79.6999 22.4283C79.4636 22.1034 79.5598 21.8017 79.6933 21.4814C79.7512 21.3393 79.7933 21.2214 79.8259 21.0859C80.0034 20.4917 80.065 19.7527 79.9287 19.2356C79.9067 19.1521 79.8808 19.0697 79.8512 18.9886C79.7802 18.7732 79.6961 18.4455 79.7484 18.3462C79.8026 18.2468 79.8577 18.2301 79.9576 18.2301C80.0454 18.2301 80.1453 18.2598 80.2387 18.2858C80.3069 18.3044 80.3583 18.3137 80.4237 18.3304C80.6684 18.388 81.0373 18.4548 81.3735 18.4548C81.9292 18.4548 82.5129 18.336 83.0172 18.1206C83.9708 17.662 84.9113 16.6249 84.8627 15.34C84.7366 14.0394 83.9288 12.7832 82.3878 11.4956C82.3523 11.4631 82.3102 11.4306 82.271 11.399C82.0711 11.2347 81.8283 11.0267 81.8227 10.8429C81.8171 10.6591 82.2972 10.5477 82.5979 10.4771C82.6683 10.4623 82.7305 10.4474 82.7847 10.4326L82.8622 10.4131C83.247 10.3137 83.6411 10.2107 83.968 9.986C85.0663 9.24978 85.0271 7.9556 84.9019 7.24259C84.8963 7.22402 84.8907 7.20174 84.8851 7.17575C84.8665 7.08291 84.8403 6.96686 84.7525 6.96686C84.7208 6.96896 84.6909 6.98249 84.6685 7.00492L84.5685 7.09776C84.4425 7.21752 84.3033 7.35214 84.1417 7.44127C83.7934 7.64737 83.3731 7.73464 82.9696 7.81819C82.7109 7.87204 82.4429 7.92682 82.1944 8.01316C81.1017 8.38916 80.4237 8.93877 80.1808 9.64806C80.0547 10.0176 80.1229 10.4836 80.3648 10.933C80.7235 11.4956 81.2371 11.9867 81.7377 12.462C82.5269 13.214 83.3404 13.9874 83.5281 15.0411C83.6308 15.6538 83.3796 16.1719 82.7623 16.6184C82.4391 16.8106 82.0254 16.9137 81.5668 16.9137C80.9855 16.9086 80.4139 16.7654 79.8997 16.4959C79.26 16.1784 78.6426 15.7671 78.0449 15.3688C77.1464 14.7719 76.2162 14.1545 75.1861 13.8277C74.7396 13.6244 74.2428 13.525 73.7637 13.4285C73.0819 13.2911 72.3777 13.15 71.8117 12.709C71.6174 12.5817 71.4268 12.4489 71.2401 12.3107C70.7265 11.9421 70.1969 11.5587 69.5964 11.4083C69.3722 11.3312 69.1537 11.3025 68.9398 11.2709C68.6101 11.2226 68.3038 11.1808 68.019 10.9784L67.6314 10.699C67.1532 10.3518 66.6591 9.9925 66.1651 9.74461C65.3152 9.32405 64.4102 9.10588 63.3987 8.88771C63.0756 8.81065 62.8757 8.56927 62.6618 8.3121C62.5199 8.13942 62.3714 7.9621 62.1836 7.83676C61.4057 7.22402 60.6977 6.81274 59.7862 6.81274C59.7009 6.81274 59.6159 6.81584 59.5312 6.82203C59.053 6.85452 58.5879 7.21381 58.2779 7.48397C57.3701 8.27311 56.3913 8.97683 55.448 9.65827C54.0377 10.6702 52.5845 11.7165 51.3405 13.0692C50.1161 14.3253 49.6734 15.8915 49.24 17.4113C49.1756 17.636 49.1149 17.8579 49.0467 18.0825C48.93 18.4975 48.8235 18.9246 48.7198 19.3359C48.1585 21.5733 47.5804 23.8098 45.3305 25.2609C45.182 25.3574 45.2343 25.544 45.3726 25.5951C45.4314 25.6174 46.3747 25.9321 47.3152 24.9944C47.883 24.2944 48.1996 23.6482 48.8786 22.926C48.901 22.9037 48.9785 22.8424 49.043 22.8489C49.0887 22.8712 49.1018 22.8944 49.0887 22.9742C49.0009 23.2639 48.8235 23.5173 48.6498 23.7643C48.4723 24.0177 48.2902 24.2786 48.1996 24.5766C47.9839 25.2191 47.3824 25.7399 46.8491 26.1958C46.8491 26.1958 46.7651 26.2505 46.7174 26.3118C46.6689 26.3722 46.6689 26.3982 46.6689 26.3982C46.6521 26.5393 46.7651 26.6265 46.9948 26.6358C48.2557 26.6358 49.1532 25.7464 50.019 24.8821C50.0378 24.8631 50.0606 24.8483 50.0858 24.8389C50.1109 24.8294 50.1378 24.8255 50.1646 24.8273C50.212 24.8259 50.2593 24.8335 50.3038 24.8496C50.3617 24.8821 50.4943 25.0111 50.5971 25.1003C50.8819 25.3509 51.1724 25.6109 51.5534 25.6879H51.5665C52.026 25.6239 52.4388 25.5728 52.8656 25.5728C52.9902 25.5722 53.1044 25.5765 53.2084 25.5858C53.667 25.7232 54.1293 25.8968 54.572 26.0611C54.8848 26.18 55.208 26.2988 55.5339 26.4074H55.5479C55.9682 26.3917 56.2671 26.0036 56.4875 25.6591C56.5902 25.415 56.5426 25.1773 56.494 24.9461C56.4651 24.8022 56.4361 24.6676 56.4455 24.5349C56.523 24.4968 56.6294 24.5033 56.7434 24.5191C56.8433 24.5349 56.9881 24.5191 57.0366 24.5126C57.1469 24.4968 57.2627 24.3715 57.2309 24.2081C57.1469 23.7903 56.9367 23.5331 56.7266 23.2119C56.5426 22.939 56.3679 22.6827 56.2811 22.3931C56.1419 22.0106 55.8477 21.693 55.5638 21.3848C55.2341 21.0283 54.9241 20.6904 54.8297 20.2633C54.8297 20.2633 54.8017 20.1733 54.8335 20.138C54.8652 20.1027 54.953 20.1445 54.953 20.1445C55.1043 20.254 55.2565 20.3766 55.4013 20.4945C55.8804 20.8807 56.3745 21.2818 56.9759 21.3718C57.5344 21.4266 58.148 21.4972 58.7458 21.4461C58.9045 21.4201 58.9849 21.2818 58.9466 21.1499C58.7075 20.6486 58.4619 20.1101 58.3134 19.5215C58.1873 19.0787 57.9062 17.9126 58.1938 17.0325C58.2228 16.9462 58.2807 16.9165 58.333 16.9165C58.3379 16.9158 58.3454 16.9171 58.3554 16.9202C58.4525 16.9425 58.517 17.0585 58.53 17.1476L58.5394 17.2637C58.6234 18.4613 58.7037 19.5921 59.4406 20.5558C59.6377 20.8677 59.9188 21.0311 60.1906 21.1917C60.3774 21.3013 60.5941 21.4006 60.7304 21.5742C60.8854 21.7692 60.9107 22.1034 60.8051 22.3058L59.8992 23.6334C59.6863 23.9351 59.4789 24.2591 59.4051 24.5896C59.3379 24.9239 59.3669 25.2488 59.3958 25.5635L59.4023 25.6397C59.3733 25.6219 59.3497 25.5965 59.3342 25.5663C58.9699 24.9109 58.8952 24.3557 59.082 23.9286C59.2015 23.652 59.9384 22.6149 60.1514 22.2742C60.2195 22.1647 60.2746 22.0561 60.2167 21.9818C60.1448 21.8889 59.5929 21.6541 59.4472 21.6541C59.4378 21.6534 59.4282 21.6547 59.4182 21.6578C59.2893 21.693 59.2053 21.8119 59.1306 21.9177L59.0792 21.9883L57.9641 23.9992L57.9379 24.0735C57.8735 24.2749 57.8165 24.4485 57.8735 24.6797C57.9351 24.9814 58.0285 25.3064 58.0995 25.5431L58.1583 25.7399C58.2583 26.0899 58.3516 26.4176 58.5067 26.6005C58.5532 26.6563 58.6123 26.7005 58.6791 26.7295C58.7459 26.7585 58.8187 26.7716 58.8915 26.7677C58.9755 26.7677 59.0624 26.7547 59.1464 26.7417C59.2865 26.7194 59.4378 26.7036 59.5508 26.7324C59.7189 26.7742 59.8348 26.8995 59.958 27.0276C60.0804 27.1594 60.2065 27.2941 60.3942 27.3488C60.7397 27.4649 61.1012 27.5577 61.4505 27.6478C61.9156 27.7694 62.3975 27.8947 62.8561 28.0711C63.1148 28.1547 63.3922 28.2317 63.6602 28.2317C63.9581 28.2317 64.1421 28.1482 64.4008 27.9402C64.7623 27.6478 64.8818 27.3581 64.9724 26.9413C65.0434 26.5588 65.1723 26.5328 65.4506 26.517C65.586 26.5105 65.6056 26.517 65.7383 26.4724C65.8774 26.4269 66.2809 25.9358 66.491 25.5347C66.5502 25.4246 66.6093 25.3259 66.6685 25.2386C66.7243 25.1657 66.7551 25.0768 66.7562 24.9851C66.7562 24.7855 66.5881 24.7252 66.4817 24.7215H66.4098C66.4098 24.7215 65.2208 24.7122 64.8949 24.7215C64.4074 24.7475 64.1944 25.2135 64.0226 25.6276C63.9544 25.7882 63.8928 25.9358 63.8124 26.0676C63.6836 26.2988 63.4314 26.4399 63.1213 26.4334C63.0307 26.4334 62.8299 26.3787 62.7272 26.3536C62.0837 26.1958 61.4215 26.0351 61.1498 25.3992C61.1245 25.2906 61.0825 25.065 61.2431 24.8756C61.5859 24.481 62.0389 23.9797 62.504 23.6204C63.1503 23.4848 63.7966 23.0095 64.1515 22.4126C64.2262 22.3095 64.2645 22.1879 64.3037 22.0718C64.3616 21.8917 64.4158 21.7218 64.5811 21.616C64.6848 21.564 64.7688 21.5807 64.7912 21.6708C64.8529 22.005 64.7268 22.3253 64.6007 22.6363C64.5725 22.7057 64.5457 22.7756 64.5204 22.8461L64.5008 22.8972L64.5559 22.9037C64.7346 22.9204 64.9164 22.9291 65.1013 22.9297C65.7644 22.9297 66.3939 22.8173 67.0047 22.7078C67.6089 22.5982 68.2356 22.4859 68.8819 22.4859C68.9504 22.4853 69.0205 22.4865 69.0921 22.4896C69.3797 22.4896 69.6571 22.5147 69.9289 22.5379C70.1941 22.5602 70.4687 22.5862 70.7433 22.5862C70.8395 22.5862 70.9301 22.5862 71.0207 22.5769C71.8481 22.5379 72.4496 22.1647 72.6299 21.5742C72.8008 21.0701 72.7821 20.2002 72.5748 18.9849C72.5654 18.9274 72.5589 18.8893 72.5589 18.8828V18.8605C72.5589 18.815 72.5589 18.7677 72.6205 18.738C72.698 18.6962 72.7793 18.738 72.8167 18.8373C73.1305 19.7109 73.3116 20.7164 73.4088 21.4071C73.5152 22.0783 73.7964 22.7588 74.2745 23.4848C74.8657 24.3622 75.8417 24.8663 76.9494 24.8663C77.2081 24.8663 77.4668 24.818 77.7217 24.7855C77.8992 24.7632 77.9674 24.7725 78.0869 24.7725C79.4963 24.7725 80.7207 25.3797 81.635 26.5272C81.635 26.5272 81.6509 26.5495 81.6509 26.581C81.6509 26.6293 81.5799 26.6776 81.5182 26.6516L81.3987 26.5588C80.6049 25.946 79.783 25.3129 78.7528 25.1875C78.5607 25.1547 78.366 25.1385 78.171 25.1392C77.8792 25.1437 77.5879 25.165 77.2987 25.2033C77.0147 25.2358 76.7495 25.2683 76.4749 25.2683C76.1556 25.2742 75.8382 25.2174 75.541 25.1012C74.3549 24.7113 73.3864 23.3558 73.0754 22.5147C73.0641 22.491 73.0464 22.471 73.0243 22.4569C73.0022 22.4428 72.9765 22.4351 72.9502 22.4348C72.9178 22.4342 72.8842 22.445 72.8493 22.4673C72.7111 22.5537 72.6878 22.5982 72.6691 22.6818C72.6495 22.7523 72.7653 23.3567 72.8176 23.6167C72.9726 24.2591 73.2052 25.2293 74.0513 25.5886C74.1559 25.6511 74.2605 25.7164 74.3651 25.7845C74.7882 26.0537 75.2244 26.3341 75.725 26.3341C75.8451 26.3341 75.9634 26.318 76.0799 26.2858C76.3818 26.2202 76.6879 26.1871 76.9979 26.1865C77.9739 26.1865 78.9658 26.517 79.7998 27.1204C79.938 27.2012 80.0706 27.3098 80.1967 27.4166C80.3779 27.567 80.5619 27.7211 80.7823 27.8019C80.9205 27.8576 81.069 27.8854 81.2278 27.8854C81.606 27.8854 81.7022 27.7731 81.9712 27.6413C82.0698 27.5927 82.1779 27.5664 82.2878 27.5642C82.5914 27.5642 82.7595 27.7982 82.9724 28.0971C83.1013 28.2772 83.247 28.4796 83.4441 28.656C83.7186 28.9225 84.0997 28.9549 84.4004 28.9549C84.5657 28.9549 84.7301 28.942 84.8917 28.9327C85.0467 28.9234 85.2344 28.916 85.3344 28.9067C85.4315 28.8937 85.4866 28.8807 85.4866 28.8807V28.8426L85.4931 28.8547ZM53.3886 24.3752C53.3345 24.4745 53.2019 24.5321 53.0272 24.5321C52.8822 24.5351 52.7394 24.4961 52.6163 24.4197C52.3903 24.2591 52.2586 23.9927 52.2389 23.6427C52.2352 23.5619 52.2296 23.4783 52.3389 23.3985C52.394 23.366 52.4267 23.366 52.4911 23.366C52.7069 23.366 53.0534 23.5043 53.2373 23.7262C53.2504 23.742 53.5381 24.1208 53.3896 24.378L53.3886 24.3752ZM53.6996 19.4315C53.6184 19.5345 53.496 19.6116 53.3765 19.554C53.2635 19.515 53.1626 19.3702 53.1019 19.2616C53.0244 19.1233 52.959 19.0044 52.775 19.0174H52.7461C52.5845 19.0304 52.4622 19.1103 52.3323 19.2096C52.2679 19.2616 52.0055 19.4547 51.942 19.5085C51.5899 19.8047 51.234 20.1092 51.15 20.5233C51.1323 20.5972 51.1161 20.6715 51.1014 20.7461C51.0752 20.89 51.05 21.0404 50.9268 21.1174H50.9174C50.9008 21.1273 50.8816 21.1319 50.8623 21.1304C50.8066 21.1285 50.753 21.1083 50.7101 21.0729C50.688 21.0563 50.67 21.035 50.6572 21.0106C50.6445 20.9862 50.6373 20.9593 50.6363 20.9318C50.5746 20.2188 50.8175 19.5763 51.3209 19.1205C51.6478 18.854 51.9093 18.5198 52.1642 18.1949C52.2875 18.037 52.4164 17.8736 52.549 17.7232C52.649 17.6239 52.8143 17.7075 53.0851 18.0018C53.1981 18.1243 53.554 18.7259 53.7155 19.1205C53.7343 19.1696 53.7423 19.2222 53.7391 19.2747C53.7359 19.3272 53.7215 19.3784 53.6968 19.425L53.6996 19.4315ZM59.6349 11.1418C59.4995 11.2709 59.3566 11.399 59.2146 11.5308C58.7103 11.9867 58.1901 12.4592 57.8482 12.9921C57.6867 13.2103 57.5671 13.461 57.4504 13.7051C57.4373 13.7311 57.4084 13.785 57.3533 13.785C57.3247 13.7831 57.298 13.7705 57.2785 13.7497C57.1823 13.6532 57.2627 12.9819 57.3887 12.6449C57.6671 11.9003 58.2965 11.1196 59.1212 10.5059C59.2126 10.4502 59.3176 10.4203 59.4248 10.4196C59.5798 10.4196 59.6993 10.4901 59.7479 10.6117C59.8506 10.7761 59.8133 10.9682 59.6349 11.1418ZM25.966 25.2581C25.937 25.2098 25.9102 25.1602 25.8857 25.1095C25.8016 24.9526 25.7568 24.7855 25.7148 24.6407C25.6307 24.3492 25.5598 24.0948 25.2394 24.1394C24.7874 24.2044 24.3475 24.2331 23.8572 24.2331C23.8497 24.2331 23.6984 24.2331 23.6498 24.339C23.5947 24.4615 23.718 24.5766 23.8506 24.6955C23.9244 24.7632 24.0019 24.8338 24.0533 24.9109C24.1439 25.0427 24.2307 25.2321 24.3148 25.415C24.4474 25.7074 24.5642 25.9581 24.6968 25.9999C24.7575 26.0171 24.8204 26.0256 24.8836 26.0249C25.1918 26.0249 25.6139 25.8615 25.9212 25.6239C26.0921 25.479 26.0379 25.3825 25.9604 25.2544L25.966 25.2581ZM3.86972 24.8022L3.84451 24.7827C3.75111 24.7085 3.583 24.7178 3.46906 24.7957C3.39154 24.8496 3.31029 24.9016 3.23371 24.9536C2.98154 25.1198 2.72003 25.2896 2.44545 25.5208C2.34459 25.6044 2.28948 25.7622 2.28014 25.8838C2.2708 25.9804 2.28948 26.0574 2.32871 26.1066C2.35112 26.1317 2.55192 26.3527 2.59395 26.3889C2.6821 26.4669 2.79538 26.511 2.91336 26.5133C3.00794 26.5111 3.10069 26.4869 3.18421 26.4427C3.67266 26.1995 4.17699 25.2999 4.19661 25.2479C4.24797 25.104 4.0836 24.9721 3.86972 24.8022ZM2.26053 26.9348C2.1606 26.7936 1.82811 26.4046 1.64039 26.4046C1.62451 26.4046 1.6077 26.4046 1.59556 26.4139C1.33685 26.5198 1.03612 26.854 1.02025 27.0536C0.954869 27.9235 0.929653 28.0163 0.690562 28.2837C0.622383 28.358 0.577554 28.5307 0.655072 28.6049C0.722316 28.6718 1.58248 28.942 1.67868 28.942H1.69829C1.77581 28.916 1.84025 28.7201 2.01584 28.1194C2.10923 27.7945 2.2157 27.4287 2.33525 27.0982C2.34178 27.0759 2.34459 27.0434 2.26707 26.9348H2.26053Z" fill="#799CBC"/>
<path d="M28.6184 26.8772C28.9705 26.8512 29.3357 26.8252 29.5944 26.5523C29.9213 26.0797 30.2015 25.6053 30.448 25.104C30.6675 24.6537 30.6703 24.2136 30.4546 23.8701C29.8045 22.8359 29.6887 22.563 29.4235 21.8602L29.417 21.8407L29.3983 21.8342C29.3215 21.8105 29.2458 21.7835 29.1713 21.7534C29.0126 21.693 28.8444 21.6253 28.6548 21.6253H28.6287C28.4055 21.6318 28.2542 21.7023 28.1925 21.8249L28.1832 21.8434L29.3618 24.1561C29.4366 24.3362 29.5234 24.5191 29.4786 24.7892C29.4328 25.0585 28.8547 25.9646 28.6801 26.0797C28.6509 26.1037 28.615 26.1182 28.5773 26.1215C28.5643 26.1215 28.5026 26.1094 28.5409 25.9739C28.6511 25.5988 28.7903 24.715 28.751 24.4327C28.709 24.105 27.7209 22.4794 27.6789 22.4088L27.6593 22.381C27.507 22.1331 27.3492 21.8759 27.3623 21.577C27.3623 21.4387 27.4911 21.343 27.5845 21.3078C27.7564 21.2428 27.9208 21.2177 28.0954 21.1787C28.5157 21.0859 28.9481 20.993 29.1041 20.7582C29.5757 20.0451 29.8559 19.3006 30.0436 18.2691C30.053 18.2236 30.0857 18.1373 30.1501 18.1373C30.1893 18.1373 30.2276 18.1503 30.2435 18.2394C30.3289 18.7271 30.3158 19.2268 30.205 19.7095C30.0942 20.1921 29.8879 20.648 29.5981 21.0506C29.5572 21.118 29.5423 21.1978 29.5561 21.2753C29.5692 21.3588 29.6626 21.4266 29.6626 21.4266C29.8886 21.5807 30.7161 21.4907 31.3166 21.1787C31.7752 21.188 32.2057 21.1082 32.6251 21.0311C32.7583 21.0057 32.8897 20.9822 33.0192 20.9605C33.0612 20.9828 33.0939 21.0218 33.1004 21.0506C32.7483 21.4452 32.5345 21.8889 32.4252 22.4441C32.3251 22.5449 32.2217 22.6425 32.1151 22.7366C31.7303 23.0866 31.3166 23.4793 31.297 23.9797C31.297 23.9797 31.2848 24.1598 31.4819 24.1719C31.5426 24.1756 31.6136 24.144 31.678 24.118C31.7413 24.0854 31.8113 24.0676 31.8826 24.066C31.9127 24.0703 31.9403 24.0849 31.9608 24.1073C31.9812 24.1296 31.9932 24.1584 31.9946 24.1886L31.5557 24.8273C31.3913 25.0938 31.4623 25.3769 31.5267 25.6536C31.5753 25.804 31.5529 25.9228 31.5949 26.0574C31.7042 26.3759 32.0955 26.5263 32.4056 26.5263C32.9772 26.5012 33.4983 26.3146 34.0017 26.1345C34.0923 26.1029 34.1792 26.0704 34.2726 26.0389C34.8255 25.8012 35.5623 25.7529 36.4384 25.894C37.1426 25.8485 37.6721 25.3862 38.1858 24.9369C38.4056 24.943 38.6319 25.0715 38.8648 25.3221C39.6269 26.1345 40.5608 26.5291 41.7208 26.5291H41.8534L41.9692 26.5198C42.0888 26.4919 42.1215 26.4334 42.128 26.3592C42.1373 26.27 42.0664 26.18 41.9375 26.1187L41.2874 25.7752C40.7672 25.4475 40.2022 25.052 40.0472 24.5311C39.8791 23.976 39.5652 23.4115 39.3299 23.0355C39.2819 22.9588 39.2311 22.8839 39.1777 22.8108C39.0871 22.679 38.9909 22.5435 38.9255 22.4023C39.6334 22.653 40.0303 23.1729 40.5095 24.041C40.8644 24.6862 41.789 25.3797 42.6641 25.3797C42.7808 25.3797 42.8901 25.3667 43.0003 25.3444C43.0937 25.3259 43.1553 25.2646 43.1684 25.1838C43.1778 25.1133 43.1684 25.0455 43.0909 25.0037L42.5604 24.741C41.9309 24.3743 41.5686 23.7708 41.2165 23.1831C41.0773 22.951 40.9363 22.7143 40.7803 22.4989C40.6804 22.3503 40.5057 22.1972 40.3544 22.0625C40.2218 21.9437 40.0957 21.8304 40.0724 21.7701C39.498 20.2085 38.8713 18.375 38.7191 16.3353C38.6967 16.0243 38.4763 15.34 38.2148 14.8963C37.3975 13.5733 35.4456 11.309 35.3391 11.1966C35.2719 11.1264 35.2031 11.0577 35.1327 10.9905L35.0804 10.9395L31.565 8.03637C30.8674 7.54803 30.6544 7.46076 30.1473 7.28158C29.7919 7.16009 29.4182 7.10042 29.0424 7.10519C28.5446 7.10519 28.0468 7.20081 27.6396 7.37442C27.3595 7.52297 27.0877 7.69565 26.8224 7.86276C26.3741 8.1487 25.9072 8.44393 25.4038 8.61104C25.0096 8.78744 24.5866 8.91649 24.1766 9.04182C23.378 9.28506 22.5543 9.53944 21.9015 10.1373C21.7109 10.31 21.5559 10.4548 21.4261 10.5802C20.8228 11.1456 20.7611 11.2059 20.2671 11.2059C19.123 11.2059 18.3123 11.4854 17.4652 12.1696C16.7965 12.773 16.1343 13.3394 15.3619 13.6058C15.0164 13.7246 14.6316 13.7692 14.2244 13.8082C13.6397 13.8593 13.5492 13.8658 12.9972 13.9976C12.1632 14.187 11.2787 14.8703 10.5316 15.4487C10.2859 15.6381 9.95999 15.8887 9.80495 15.989C9.7237 16.0401 9.6275 16.1004 9.54905 16.1468C8.61884 16.6853 7.74279 17.1959 6.61832 17.1959H6.53426C5.69464 17.1356 4.93254 16.56 4.67664 15.7987C4.44128 14.9418 4.69345 14.0616 5.3743 13.3867C5.69744 13.0655 6.06542 12.7545 6.42499 12.4527C7.0003 11.9672 7.54293 11.5076 7.92118 11.0044C8.36013 10.4196 8.31157 9.4336 7.81751 8.89699C7.32625 8.36038 6.22793 8.09393 5.81419 7.99459L5.74321 7.97788C5.70118 7.9686 5.6302 7.95931 5.59097 7.95003C5.32947 7.89804 5.0773 7.86276 4.82233 7.80148C4.1695 7.62509 3.66237 7.12097 3.08425 6.81274C2.86104 7.15254 2.78632 7.52204 2.81621 7.93332C2.92548 8.80044 3.65303 9.70005 4.45996 10.0658C4.49545 10.0788 4.52814 10.0946 4.56363 10.1048C4.8186 10.2135 5.08664 10.2302 5.33881 10.2302H5.66569C5.82073 10.2302 6.00845 10.2302 6.17563 10.2719C6.26442 10.2974 6.34384 10.348 6.4042 10.4176C6.46456 10.4872 6.50326 10.5727 6.51558 10.6637C6.52866 10.7788 6.47636 10.8689 6.32879 10.9812L5.91786 11.3182C5.223 11.8873 4.50573 12.4787 3.92387 13.1936C3.14216 14.0329 3.10667 15.4904 3.47184 16.4346C3.93695 17.6787 5.223 18.375 6.29237 18.5096C6.4829 18.5384 6.67342 18.5551 6.87422 18.5551C7.5037 18.5551 8.10143 18.4037 8.68328 18.2589C8.70507 18.2533 8.72344 18.2512 8.73838 18.2524C8.76453 18.2524 8.8159 18.2524 8.82524 18.3842C8.84205 18.6414 8.85793 18.9339 8.871 19.2161C8.88968 19.6756 8.91303 20.1092 8.94572 20.293C9.0223 20.7006 9.2259 21.1982 9.36226 21.5259C9.42017 21.6643 9.465 21.7729 9.47807 21.8277C9.53037 22.0133 9.48181 22.2167 9.35572 22.3318C8.91677 22.7338 8.02018 23.0513 7.8558 23.0745C7.59149 23.1061 7.31037 23.1218 7.10304 23.1321C7.0003 23.1376 6.91625 23.1413 6.87422 23.1478C6.78159 23.1574 6.69498 23.198 6.62859 23.263C6.50251 23.3855 6.36709 23.7355 6.20551 24.1403C6.10838 24.3845 6.01125 24.6379 5.91132 24.8468C5.6302 25.3091 5.16136 25.5821 4.70652 25.842C4.59196 25.907 4.47989 25.9736 4.3703 26.0416L4.35723 26.0546C4.17044 26.3499 3.98178 26.6293 3.73989 26.841C3.5531 27.0146 3.31307 27.0536 3.08052 27.0824H3.06464L3.0553 27.0954C2.69947 27.5002 2.58646 28.0358 2.47345 28.5595C2.45664 28.6405 2.43921 28.7198 2.42115 28.7971L2.40527 28.8714H2.45104C2.63783 28.8937 2.82462 28.9327 3.02261 28.9772C3.28412 29.0348 3.55216 29.0933 3.8174 29.0933C4.06957 29.0933 4.28251 29.0413 4.47677 28.9354C4.8158 28.7813 4.99698 28.4694 5.17443 28.1714C5.29118 27.9755 5.41072 27.7694 5.5723 27.6125C5.61723 27.5617 5.67299 27.5215 5.73551 27.4949C5.79803 27.4682 5.86575 27.4557 5.93373 27.4584C6.06635 27.4584 6.21205 27.4964 6.35027 27.5354C6.48009 27.5707 6.61178 27.606 6.73786 27.6125C7.36548 27.6478 7.95947 27.256 8.24713 27.0276C8.37321 26.9283 8.49929 26.8094 8.62164 26.6971C8.81216 26.5207 9.00643 26.3369 9.21657 26.2088C9.47153 26.0862 9.7788 26.0286 10.1599 26.0286C10.6315 26.0286 11.1321 26.1215 11.53 26.1958C11.7419 26.2505 11.96 26.2786 12.1791 26.2793C12.5367 26.2858 12.8899 26.1994 13.2036 26.0286C13.5529 25.8337 13.9041 25.6499 14.1861 25.5022C14.3505 25.415 14.4962 25.3416 14.6092 25.2776C15.1098 25.0046 15.5366 24.2461 15.6944 23.9314C15.8439 23.639 16.096 23.0067 16.0988 23.0002L16.1119 22.9714L15.5263 22.5277L15.5039 22.5667C15.5039 22.5667 15.1163 23.1989 14.8679 23.4913C13.8368 24.8858 12.1594 25.065 10.8127 25.065C10.7193 25.0613 10.6265 25.0591 10.5344 25.0585C8.86727 25.0585 7.52332 25.6146 6.5408 26.7129C6.49597 26.7639 6.41472 26.7741 6.38203 26.7287C6.36335 26.7036 6.35681 26.6618 6.36989 26.6098C6.38978 26.5121 6.4271 26.4187 6.48009 26.3341C7.52331 24.8598 9.30716 24.6416 10.7445 24.6156C11.8073 24.5451 12.5797 24.3622 13.2522 24.0215C14.1151 23.5851 14.7511 22.6214 15.0033 21.8564C15.1677 21.3551 15.2489 20.8194 15.3265 20.3023C15.3881 19.891 15.4525 19.4668 15.5553 19.075C15.5646 19.0507 15.5811 19.0297 15.6026 19.0148C15.6241 18.9999 15.6496 18.9917 15.6758 18.9914C15.6879 18.9914 15.6982 18.9914 15.7169 19.0007C15.7729 19.0109 15.8756 19.049 15.8756 19.1298C15.7299 19.9393 15.5329 21.0506 15.9046 21.9753C16.0792 22.3411 16.4472 22.5212 17.0356 22.5212C17.3905 22.5212 17.779 22.4599 18.1563 22.4023C18.4477 22.3578 18.7223 22.3123 18.9577 22.303C19.0573 22.2937 19.1588 22.2894 19.2621 22.29C19.73 22.29 20.183 22.3801 20.6191 22.4664C21.0002 22.5435 21.3943 22.6205 21.7978 22.64C21.87 22.6437 21.9466 22.6493 22.0275 22.6567C22.1667 22.6688 22.3115 22.679 22.4609 22.679C22.8027 22.679 23.0456 22.6112 23.2202 22.4701C23.3425 22.3708 23.3005 22.2194 23.2454 22.0301L23.2361 21.9948C23.2274 21.962 23.2165 21.9267 23.2034 21.8889C23.1259 21.6383 23.0073 21.2595 23.2034 21.0822C23.2354 21.0591 23.274 21.0467 23.3136 21.0469C23.3453 21.0469 23.3911 21.0562 23.4042 21.1082L23.4686 21.3263C23.5555 21.629 23.6461 21.9437 23.8403 22.2129C24.2513 22.7328 24.8836 23.2277 25.6718 23.6362C26.1799 23.9825 26.7898 24.5674 26.8393 25.3834C26.8393 25.7529 26.4769 26.0092 26.2088 26.1698C25.7848 26.3787 25.061 26.6135 24.7192 26.6135C24.6738 26.6169 24.6283 26.6093 24.5866 26.5913C24.0953 26.3313 23.8431 25.9098 23.5751 25.4633C23.435 25.2183 23.2764 24.9843 23.1007 24.7632C22.8448 24.481 22.5216 24.3715 22.0855 24.4067C21.6652 24.4392 21.2776 24.5191 20.819 24.6156C20.7743 24.6234 20.7322 24.6418 20.6962 24.6693C20.6603 24.6968 20.6316 24.7325 20.6126 24.7735C20.5926 24.8222 20.5845 24.8749 20.5889 24.9273C20.5933 24.9798 20.61 25.0304 20.6378 25.0752C20.8769 25.4985 21.1067 25.8838 21.3523 26.2914L21.4625 26.4752C21.5204 26.5745 21.6465 26.5875 21.7492 26.5875C21.8053 26.5875 21.8657 26.5844 21.9304 26.5783C21.9989 26.5733 22.069 26.5702 22.1406 26.569C22.3535 26.569 22.4898 26.62 22.5767 26.7259C22.6514 26.8373 22.7159 26.957 22.7803 27.0722C22.9419 27.3581 23.1072 27.6571 23.3846 27.8687C23.6367 28.0915 24.001 28.2159 24.383 28.2159C24.5511 28.2159 24.7127 28.1899 24.8677 28.1454C25.9697 27.8019 27.0419 27.4491 28.0627 26.906C28.0627 26.906 28.4671 26.8995 28.6222 26.8865L28.6184 26.8772ZM30.4508 14.5945C30.4322 14.6623 30.3892 14.7069 30.3406 14.7069C30.3219 14.7069 30.2696 14.6976 30.2538 14.6103C30.0698 13.6764 29.9596 13.2168 29.7429 12.786C29.6757 12.6486 29.5879 12.5326 29.5141 12.4295C29.3553 12.2151 29.2199 12.0312 29.3721 11.7815C29.417 11.7072 29.53 11.659 29.6523 11.659C29.7139 11.6596 29.7691 11.6713 29.8176 11.6942C29.9988 11.7815 30.1763 11.9997 30.3574 12.3627C30.8095 13.2846 30.4508 14.5853 30.4471 14.5983L30.4508 14.5945ZM36.3609 23.9026C36.3609 23.9026 36.331 24.1663 36.2086 24.2814C36.0825 24.3937 35.6371 24.455 35.4008 24.4485C35.1654 24.4392 35.0842 24.4067 35.0365 24.3362C34.9805 24.2554 35.0711 24.0985 35.0711 24.0985C35.1 24.041 35.3746 23.4719 35.9303 23.3215C35.9303 23.3215 36.1078 23.2565 36.2796 23.34C36.4505 23.4236 36.3702 23.8479 36.3637 23.9063L36.3609 23.9026ZM37.9691 20.228C37.9528 20.3579 37.9136 20.484 37.8533 20.6003C37.8244 20.6523 37.7758 20.7647 37.6142 20.7674C37.4368 20.7674 37.4489 20.5623 37.4489 20.5335C37.4489 20.5335 37.4265 19.9579 37.3163 19.7174C37.1968 19.4538 36.6158 18.712 36.2796 18.7445C36.1956 18.751 35.9761 18.8828 35.8145 19.0908C35.6174 19.3451 35.6174 19.3767 35.5558 19.4157C35.4942 19.4547 35.4166 19.4343 35.3914 19.2839C35.3653 19.1325 35.3354 19.0109 35.4073 18.725C35.4783 18.439 35.5493 18.375 35.6333 18.1698C35.6333 18.1698 35.808 17.7678 35.8724 17.6685C36.0536 17.3955 36.2927 17.415 36.2927 17.415C36.3571 17.4178 36.5635 17.3918 36.7877 17.6685C37.0454 17.9897 36.9903 17.9609 37.0613 18.0732C37.1323 18.1846 37.2108 18.3044 37.4237 18.5356C37.6366 18.7677 37.872 19.2161 37.9374 19.4955C38.0018 19.775 37.999 20.0127 37.9626 20.229L37.9691 20.228Z" fill="#799CBC"/>
</g>
<defs>
<clipPath id="clip0_18_68">
<rect width="209.134" height="33.4615" fill="white"/>
</clipPath>
</defs>
</svg>
