<svg width="20" height="20" viewBox="0 0 20 20" fill="none" xmlns="http://www.w3.org/2000/svg">
<path d="M14.583 4.16663C15.2733 4.16663 15.833 4.72627 15.833 5.41663C15.833 6.10698 15.2733 6.66663 14.583 6.66663C13.8927 6.66663 13.333 6.10698 13.333 5.41663C13.333 4.72627 13.8927 4.16663 14.583 4.16663Z" stroke="#141B34" stroke-width="1.5" stroke-linecap="round" stroke-linejoin="round"/>
<path d="M2.31219 9.28654C1.47623 10.2202 1.45824 11.6288 2.22546 12.6197C3.74792 14.586 5.41428 16.2524 7.3806 17.7748C8.3715 18.542 9.78008 18.524 10.7137 17.6881C13.2486 15.4185 15.5699 13.0465 17.8102 10.4399C18.0317 10.1822 18.1702 9.86638 18.2013 9.52796C18.3388 8.03161 18.6213 3.72052 17.4506 2.54974C16.2797 1.37897 11.9687 1.66143 10.4723 1.79893C10.1339 1.83003 9.81808 1.96857 9.56033 2.19005C6.95376 4.43034 4.58184 6.75172 2.31219 9.28654Z" stroke="#141B34" stroke-width="1.5"/>
<path d="M11.49 10.3055C11.5078 9.97136 11.6015 9.36003 11.0934 8.89545M11.0934 8.89545C10.9362 8.7517 10.7213 8.62195 10.4288 8.51878C9.38159 8.14973 8.09538 9.38503 9.00526 10.5158C9.49434 11.1235 9.87143 11.3105 9.83593 12.0007C9.81093 12.4863 9.33401 12.9935 8.70543 13.1868C8.15934 13.3546 7.55698 13.1324 7.17598 12.7066C6.71078 12.1869 6.75776 11.6968 6.75378 11.4832M11.0934 8.89545L11.6668 8.32202M7.21744 12.7714L6.67285 13.316" stroke="#141B34" stroke-width="1.5" stroke-linecap="round" stroke-linejoin="round"/>
</svg>
