<svg width="62" height="62" viewBox="0 0 62 62" fill="none" xmlns="http://www.w3.org/2000/svg">
<path d="M24.5485 2.04097C25.7217 -0.376751 29.0267 -0.719635 30.6713 1.40576C31.9544 3.0641 34.3733 3.28965 35.9409 1.89712C37.95 0.112398 41.1347 1.0604 41.8407 3.65334C42.3916 5.67648 44.54 6.81054 46.5212 6.12391C49.0604 5.2439 51.6399 7.33847 51.2998 10.0042C51.0345 12.0841 52.5855 13.9541 54.6786 14.0779C57.3613 14.2365 58.9428 17.1588 57.6085 19.4915C56.5675 21.3116 57.2848 23.6327 59.1712 24.5481C61.5889 25.7213 61.9318 29.0263 59.8064 30.6708C58.1481 31.954 57.9225 34.3729 59.3151 35.9405C61.0998 37.9496 60.1518 41.1343 57.5588 41.8403C55.5357 42.3911 54.4016 44.5396 55.0883 46.5208C55.9683 49.0599 53.8737 51.6394 51.208 51.2994C49.128 51.0341 47.2581 52.585 47.1343 54.6782C46.9756 57.3608 44.0534 58.9424 41.7207 57.6081C39.9006 56.567 37.5795 57.2843 36.6641 59.1708C35.4909 61.5885 32.1859 61.9314 30.5414 59.806C29.2582 58.1476 26.8393 57.9221 25.2717 59.3146C23.2626 61.0993 20.0779 60.1513 19.3719 57.5584C18.8211 55.5353 16.6726 54.4012 14.6914 55.0878C12.1522 55.9678 9.57276 53.8733 9.91278 51.2075C10.1781 49.1276 8.62714 47.2577 6.53401 47.1339C3.85136 46.9752 2.26979 44.053 3.60407 41.7203C4.64514 39.9002 3.92783 37.5791 2.04141 36.6637C-0.376315 35.4905 -0.719199 32.1854 1.4062 30.5409C3.06454 29.2578 3.29008 26.8389 1.89755 25.2712C0.112834 23.2621 1.06084 20.0775 3.65378 19.3715C5.67692 18.8206 6.81098 16.6721 6.12435 14.691C5.24434 12.1518 7.33891 9.57232 10.0046 9.91235C12.0846 10.1777 13.9545 8.6267 14.0783 6.53357C14.237 3.85093 17.1592 2.26935 19.4919 3.60363C21.312 4.6447 23.6331 3.9274 24.5485 2.04097Z" fill="url(#paint0_linear_18_33)"/>
<defs>
<linearGradient id="paint0_linear_18_33" x1="27.0978" y1="-3.21262" x2="34.1148" y2="64.4244" gradientUnits="userSpaceOnUse">
<stop stop-color="#FFCC00"/>
<stop offset="0.442308" stop-color="#FF8800"/>
<stop offset="0.740385" stop-color="#FFCC00"/>
<stop offset="1" stop-color="#FF8800"/>
</linearGradient>
</defs>
</svg>
