<svg width="14" height="14" viewBox="0 0 14 14" fill="none" xmlns="http://www.w3.org/2000/svg">
<path d="M2.04199 5.83325V8.74994C2.04199 10.3998 2.04199 11.2248 2.55456 11.7374C3.06712 12.2499 3.89207 12.2499 5.54199 12.2499H8.45864C10.1086 12.2499 10.9335 12.2499 11.4461 11.7374C11.9586 11.2248 11.9586 10.3998 11.9586 8.74994V5.83325" stroke="white" stroke-width="1.5" stroke-linecap="round" stroke-linejoin="round"/>
<path d="M4.66699 10.5H9.33366" stroke="white" stroke-width="1.5" stroke-linecap="round" stroke-linejoin="round"/>
<path d="M9.91697 4.37586C9.91697 5.18127 9.26405 5.83311 8.45864 5.83311C7.65323 5.83311 7.00031 5.18019 7.00031 4.37477C7.00031 5.18019 6.34738 5.83311 5.54199 5.83311C4.73658 5.83311 4.08366 5.18019 4.08366 4.37477C4.08366 5.18019 3.39914 5.83311 2.55474 5.83311C2.10022 5.83311 1.69203 5.64393 1.41198 5.34363C0.930513 4.82733 1.24025 4.06797 1.64209 3.49303L1.86816 3.18392C2.38256 2.48053 2.63977 2.12884 3.01319 1.93933C3.38661 1.74983 3.82232 1.74989 4.69374 1.75001L9.30745 1.75062C10.1786 1.75073 10.6142 1.75079 10.9874 1.94029C11.3608 2.12979 11.6179 2.48137 12.1321 3.18454L12.3585 3.49412C12.7604 4.06906 13.0701 4.82842 12.5886 5.34472C12.3086 5.64502 11.9004 5.8342 11.4459 5.8342C10.6015 5.8342 9.91697 5.18127 9.91697 4.37586Z" stroke="white" stroke-width="1.5" stroke-linecap="round" stroke-linejoin="round"/>
</svg>
