<svg width="15" height="23" viewBox="0 0 15 23" fill="none" xmlns="http://www.w3.org/2000/svg">
<path d="M0.0820663 6.48644C-0.0354702 6.17951 -0.0258938 5.83865 0.107958 5.53847L2.25003 0.734623C2.52902 0.109778 3.26194 -0.171034 3.88697 0.107572L8.69026 2.25091C8.99035 2.38485 9.22527 2.6321 9.34285 2.93897L14.702 16.9291C15.1918 18.2077 14.5521 19.6417 13.2735 20.1315L8.64355 21.905C7.36492 22.3948 5.93097 21.7552 5.44117 20.4766L0.0820663 6.48644ZM3.14952 4.09833C3.39445 4.73741 4.11091 5.05693 4.75008 4.81228C5.38933 4.56741 5.70971 3.85064 5.46495 3.21137C5.22005 2.57206 4.50244 2.25196 3.86313 2.49686C3.22402 2.74187 2.90466 3.45912 3.14952 4.09833Z" fill="#0EAA26"/>
</svg>
