<svg width="13" height="23" viewBox="0 0 13 23" fill="none" xmlns="http://www.w3.org/2000/svg">
<path d="M2.38658 4.13289C2.43828 3.80831 2.61703 3.51792 2.88305 3.32491L7.14033 0.236048C7.69439 -0.165544 8.46952 -0.0422073 8.87146 0.51162L11.9592 4.76971C12.1521 5.03576 12.2319 5.36735 12.1803 5.6919L9.82508 20.4871C9.60982 21.8393 8.33883 22.7612 6.98662 22.5459L2.09026 21.7665C0.738059 21.5512 -0.183858 20.2803 0.0313941 18.928L2.38658 4.13289ZM6.23717 3.59877C6.12974 4.27462 6.59043 4.90962 7.2662 5.01744C7.94221 5.12505 8.57808 4.66451 8.68583 3.98856C8.79346 3.31246 8.3321 2.6764 7.65599 2.56878C6.98006 2.46142 6.34477 2.92282 6.23717 3.59877Z" fill="#FF0073"/>
</svg>
