<svg width="18" height="21" viewBox="0 0 18 21" fill="none" xmlns="http://www.w3.org/2000/svg">
<path d="M9.13206 1.40111C9.32238 1.13316 9.6114 0.952198 9.93544 0.897229L15.1211 0.0174871C15.7959 -0.0966414 16.4358 0.357748 16.5504 1.03241L17.4288 6.21834C17.4836 6.54236 17.408 6.87493 17.2178 7.14289L8.54376 19.3578C7.751 20.4742 6.20293 20.7366 5.08654 19.9439L1.04409 17.0733C-0.0722988 16.2805 -0.334715 14.7325 0.458047 13.6161L9.13206 1.40111ZM12.82 2.63058C12.4239 3.18863 12.5551 3.96209 13.1129 4.35851C13.671 4.75484 14.4452 4.62419 14.8416 4.06617C15.238 3.50798 15.1067 2.73326 14.5485 2.33688C13.9903 1.94083 13.2163 2.07251 12.82 2.63058Z" fill="#FF7B00"/>
</svg>
