<svg width="14" height="14" viewBox="0 0 14 14" fill="none" xmlns="http://www.w3.org/2000/svg">
<g clip-path="url(#clip0_15_411)">
<path d="M11.0782 6.2177C8.85586 4.8979 5.19007 4.77654 3.06853 5.42044C2.72783 5.52384 2.36755 5.33144 2.26435 4.99085C2.16108 4.64992 2.35321 4.2899 2.69416 4.18633C5.12954 3.4471 9.17801 3.58986 11.7365 5.10858C12.0429 5.29052 12.1434 5.68628 11.9618 5.99219C11.78 6.29861 11.3839 6.39962 11.0782 6.2177ZM11.0055 8.17252C10.8495 8.42553 10.5187 8.50489 10.2661 8.34953C8.41326 7.21063 5.58802 6.8807 3.39601 7.54608C3.11176 7.63199 2.81151 7.4717 2.72517 7.18799C2.63952 6.90373 2.79987 6.60404 3.08362 6.51759C5.58766 5.75774 8.70059 6.12579 10.8286 7.43352C11.0813 7.58915 11.1608 7.9201 11.0055 8.17252ZM10.1618 10.0499C10.0379 10.2531 9.77341 10.3167 9.57096 10.1929C7.95195 9.20337 5.91414 8.97992 3.51426 9.52806C3.283 9.58108 3.05251 9.43617 2.99977 9.20492C2.9468 8.97375 3.09118 8.74323 3.32295 8.69045C5.9492 8.09007 8.20202 8.34847 10.0192 9.45891C10.2219 9.58266 10.2857 9.84734 10.1618 10.0499ZM6.99995 0.105624C3.19228 0.105624 0.105469 3.19238 0.105469 6.99998C0.105469 10.808 3.19228 13.8945 6.99995 13.8945C10.8077 13.8945 13.8944 10.808 13.8944 6.99998C13.8944 3.19238 10.8077 0.105624 6.99995 0.105624Z" fill="white"/>
</g>
<defs>
<clipPath id="clip0_15_411">
<rect width="14" height="14" fill="white"/>
</clipPath>
</defs>
</svg>
