<svg width="69" height="32" viewBox="0 0 69 32" fill="none" xmlns="http://www.w3.org/2000/svg">
<path d="M0.424077 19.063C0.151133 19.1049 -0.0361582 19.3601 0.0057505 19.6331L0.688682 24.0809C0.730589 24.3539 0.985827 24.5412 1.25877 24.4993C1.53172 24.4574 1.71901 24.2021 1.6771 23.9292L1.07005 19.9755L5.02372 19.3685C5.29666 19.3265 5.48395 19.0713 5.44204 18.7984C5.40014 18.5254 5.1449 18.3381 4.87195 18.38L0.424077 19.063ZM68.4122 0.187707L67.9488 -9.14519e-05C64.3724 8.82473 56.7173 20.3455 45.4098 26.2887C39.766 29.255 33.2098 30.8342 25.7783 29.9993C18.3433 29.164 10.0006 25.9085 0.79576 19.1541L0.499959 19.5572L0.204157 19.9603C9.51731 26.7942 18.0219 30.1342 25.6667 30.9931C33.315 31.8524 40.071 30.2245 45.8751 27.1738C57.4632 21.0832 65.2463 9.3308 68.8756 0.375505L68.4122 0.187707Z" fill="#799CBC"/>
</svg>
