<svg width="99" height="53" viewBox="0 0 99 53" fill="none" xmlns="http://www.w3.org/2000/svg">
<path fill-rule="evenodd" clip-rule="evenodd" d="M48.6894 50.2992C57.646 50.2992 64.6427 46.857 69.3218 41.4473C69.3427 41.4226 69.375 41.4073 69.4093 41.413C69.4588 41.4207 69.493 41.4682 69.4854 41.5196C69.4835 41.5329 69.4778 41.5462 69.4702 41.5577C64.9776 47.953 57.9067 52.0993 48.6894 52.0993L48.6799 52.0727H48.699L48.6894 52.0993L48.6799 52.0727H48.699L48.6894 52.0993C39.4722 52.0993 32.4013 47.953 27.9087 41.5577C27.9011 41.5462 27.8954 41.5348 27.8935 41.5196C27.8859 41.4701 27.9201 41.4226 27.9696 41.413C28.0038 41.4073 28.0362 41.4226 28.0571 41.4473C32.7362 46.857 39.7329 50.2992 48.6894 50.2992ZM93.2859 17.8447C93.2859 21.0566 93.2859 24.2667 93.2859 27.4787C94.9262 27.6423 96.5645 27.8136 98.2028 27.9943C98.2028 28.8468 98.2028 29.6993 98.2028 30.5517C95.6169 30.2663 93.029 30.0037 90.4393 29.764C90.4336 25.6995 90.4298 21.6351 90.4241 17.5726C91.3793 17.6601 92.3326 17.7514 93.2859 17.8447ZM20.3222 23.3781C18.6305 21.2374 16.9408 19.1062 15.2492 16.9865C15.2378 16.9732 15.2264 16.958 15.215 16.9446C14.2883 17.015 13.3635 17.0874 12.4388 17.1635C12.4388 21.2279 12.4388 25.2904 12.4388 29.3549C13.394 29.2768 14.3473 29.2007 15.3025 29.1284C15.3025 26.6662 15.3025 24.2039 15.3025 21.7417C17.1387 24.0498 18.9769 26.3693 20.815 28.7003C20.8264 28.7136 20.8378 28.7288 20.8492 28.7421C21.6294 28.6927 22.4095 28.6451 23.1897 28.5994C23.1897 24.535 23.1897 20.4725 23.1897 16.408C22.2345 16.4632 21.2793 16.5222 20.3241 16.5831C20.3222 18.8494 20.3222 21.1137 20.3222 23.3781ZM45.9113 25.2866C48.0901 25.2714 50.2688 25.2714 52.4475 25.2885C52.4475 26.1467 52.4475 27.0049 52.4475 27.863C49.3307 27.8402 46.2158 27.8497 43.0989 27.8916C43.0951 23.8272 43.0894 19.7646 43.0856 15.7002C46.1834 15.6583 49.2793 15.6488 52.3771 15.6716C52.3771 16.5241 52.3771 17.3766 52.3771 18.229C50.2231 18.2138 48.0672 18.2138 45.9132 18.229C45.9132 18.9464 45.9132 19.6657 45.9132 20.383C47.3765 20.3735 48.8398 20.3697 50.303 20.3735C50.303 21.2317 50.303 22.0899 50.303 22.948C48.8398 22.9442 47.3765 22.948 45.9132 22.9576C45.9113 23.7339 45.9113 24.5103 45.9113 25.2866ZM25.5758 16.2767C26.5368 16.2254 27.4977 16.1778 28.4586 16.134C28.4586 20.1985 28.4586 24.261 28.4586 28.3254C27.5034 28.3692 26.5463 28.4168 25.5911 28.4662C25.5854 24.4037 25.5816 20.3412 25.5758 16.2767ZM64.6884 19.7608C64.6884 17.4299 63.3983 15.881 61.132 15.8201C58.9571 15.7611 56.7803 15.7192 54.6034 15.6926C54.6034 19.757 54.6034 23.8195 54.6034 27.884C55.551 27.8954 56.4986 27.9106 57.4443 27.9277C57.4443 26.4816 57.4443 25.0354 57.4443 23.5893C58.1046 23.6007 58.7649 23.6159 59.4233 23.6312C60.2719 25.0963 61.1206 26.5653 61.9673 28.0362C63.0481 28.0666 64.1309 28.1028 65.2117 28.1409C64.2545 26.5368 63.2974 24.9365 62.3403 23.34C63.442 22.9614 64.6884 22.0385 64.6884 19.7608ZM57.4291 18.2937C58.3177 18.3109 59.2063 18.3299 60.0931 18.3508C61.4174 18.3832 61.6895 19.1462 61.6895 19.7703C61.6895 20.3964 61.4231 21.1385 60.0931 21.1061C59.2044 21.0852 58.3158 21.0642 57.4291 21.049C57.4291 20.13 57.4291 19.2109 57.4291 18.2937ZM75.9759 24.9765C75.9759 27.5453 74.1397 28.9001 70.9334 28.7421C69.0401 28.6489 67.0631 27.5243 66.5018 27.1837C66.4827 27.1723 66.4637 27.1609 66.4447 27.1495C66.4447 26.1886 66.4447 25.2257 66.4447 24.2648C66.5018 24.301 66.5589 24.3371 66.6159 24.3733C68.3418 25.4693 69.767 26.0839 70.9334 26.2304C72.3206 26.4055 72.9638 25.9907 72.9638 25.1572C72.9638 24.8109 72.6745 24.4703 72.0523 24.162C71.6946 23.9813 71.2645 23.8062 70.8117 23.6216C68.7966 22.8034 66.2868 21.9985 66.2868 19.2052C66.2868 16.741 68.4636 15.7211 70.6214 15.8258C72.273 15.9038 74.2425 16.7334 75.1615 17.2719C75.1824 17.2833 75.2015 17.2967 75.2224 17.3081C75.2224 18.269 75.2224 19.2318 75.2224 20.1928C75.1653 20.1566 75.1082 20.1204 75.0512 20.0824C74.4803 19.7151 72.4766 18.5145 70.6214 18.425C69.6909 18.3813 69.2856 18.7181 69.2856 19.1557C69.2856 19.4659 69.5844 19.8331 70.2009 20.1566C70.5643 20.3488 71.0286 20.541 71.5195 20.7446C73.4014 21.5209 75.9759 22.4647 75.9759 24.9765ZM5.052 27.7679C6.57045 27.6176 7.22122 26.6776 7.22122 24.9403C7.22122 22.5009 7.22122 20.0634 7.22122 17.6239C8.18404 17.5326 9.14687 17.447 10.1116 17.3614C10.1116 19.816 10.1116 22.2706 10.1116 24.7272C10.1116 28.1161 8.41999 30.0437 5.0539 30.3748C1.6878 30.7097 0 29.117 0 25.7281C0 23.2734 0 20.8188 0 18.3622C0.960926 18.2557 1.92375 18.1529 2.88658 18.054C2.88658 20.4934 2.88658 22.9309 2.88658 25.3703C2.88468 27.1076 3.53354 27.9182 5.052 27.7679ZM29.6688 16.0789C30.7363 16.0332 31.8038 15.9894 32.8713 15.9514C33.8379 18.465 34.8026 20.9805 35.7693 23.4999C36.7359 20.9234 37.7006 18.3489 38.6673 15.7801C39.7348 15.7554 40.8041 15.7344 41.8716 15.7173C40.199 19.8084 38.5265 23.909 36.8539 28.0191C36.4923 28.0286 36.1308 28.04 35.7693 28.0495C35.4077 28.0609 35.0462 28.0723 34.6847 28.0838C33.0121 24.0707 31.3414 20.071 29.6688 16.0789ZM85.2427 27.0125C83.5625 26.8755 81.8823 26.7499 80.2021 26.6319C79.8958 27.3778 79.5894 28.1237 79.283 28.8696C78.2631 28.8011 77.2432 28.7345 76.2252 28.6736C77.9644 24.7158 79.7036 20.7674 81.4427 16.8286C81.869 16.859 82.2971 16.8914 82.7233 16.9237C83.1496 16.9561 83.5777 16.9884 84.0039 17.0227C85.7412 21.2222 87.4804 25.4331 89.2158 29.6536C88.1978 29.5623 87.1797 29.4747 86.1617 29.3891C85.8535 28.5956 85.549 27.804 85.2427 27.0125ZM84.2285 24.3923C83.7261 23.0927 83.2238 21.7949 82.7214 20.4991C82.2191 21.7207 81.7167 22.9423 81.2144 24.1659C82.2191 24.2363 83.2238 24.3124 84.2285 24.3923ZM58.6659 38.6882C59.1264 38.6996 59.5888 38.7091 60.0493 38.7224C60.1444 38.9508 60.2396 39.181 60.3366 39.4094C60.603 39.417 60.8713 39.4246 61.1377 39.4322C60.6563 38.2962 60.1749 37.1621 59.6935 36.028C59.4708 36.0223 59.2482 36.0166 59.0256 36.0109C58.5442 37.1222 58.0628 38.2315 57.5813 39.3447C57.8477 39.3504 58.116 39.3561 58.3824 39.3618C58.4757 39.1373 58.5708 38.9127 58.6659 38.6882ZM59.3567 37.0651C59.4937 37.3981 59.6288 37.7311 59.7658 38.066C59.4937 38.0584 59.2197 38.0527 58.9476 38.0469C59.0846 37.7178 59.2216 37.3924 59.3567 37.0651ZM45.3062 39.2686C46.1663 39.2628 47.0264 39.2571 47.8884 39.2571C47.8884 39.0364 47.8884 38.8176 47.8884 38.5969C47.2814 38.5988 46.6763 38.6007 46.0693 38.6045C46.0693 38.3647 46.0693 38.125 46.0693 37.8852C46.4822 37.8833 46.897 37.8814 47.3099 37.8795C47.3099 37.6588 47.3099 37.4399 47.3099 37.2192C46.897 37.2211 46.4822 37.223 46.0693 37.2249C46.0693 37.0023 46.0693 36.7778 46.0693 36.5551C46.6667 36.5513 47.2623 36.5494 47.8598 36.5475C47.8598 36.3287 47.8598 36.1099 47.8598 35.893C47.0093 35.8949 46.1568 35.8987 45.3062 35.9044C45.3062 37.0251 45.3062 38.1459 45.3062 39.2686ZM25.7262 39.8565C26.5843 39.8109 27.4444 39.769 28.3026 39.729C28.3026 39.5083 28.3026 39.2895 28.3026 39.0688C27.6975 39.0973 27.0905 39.1258 26.4854 39.1563C26.4854 38.9165 26.4854 38.6768 26.4854 38.437C26.8983 38.4161 27.3112 38.3952 27.7241 38.3761C27.7241 38.1554 27.7241 37.9366 27.7241 37.7159C27.3112 37.7349 26.8983 37.7558 26.4854 37.7767C26.4854 37.5541 26.4854 37.3296 26.4854 37.1069C27.081 37.0765 27.6785 37.048 28.274 37.0194C28.274 36.8006 28.274 36.5818 28.274 36.3648C27.4235 36.4048 26.571 36.4467 25.7205 36.4923C25.7243 37.6131 25.7262 38.7358 25.7262 39.8565ZM32.3214 39.5616C33.1814 39.5292 34.0415 39.5007 34.9016 39.4722C34.9016 39.2514 34.9016 39.0326 34.9016 38.8119C34.2965 38.8309 33.6895 38.8518 33.0844 38.8728C33.0844 38.633 33.0844 38.3933 33.0844 38.1535C33.4973 38.1383 33.9102 38.125 34.325 38.1116C34.325 37.8909 34.325 37.6721 34.325 37.4514C33.9121 37.4647 33.4992 37.4799 33.0844 37.4932C33.0844 37.2706 33.0844 37.0461 33.0844 36.8234C33.68 36.8025 34.2775 36.7816 34.873 36.7625C34.873 36.5437 34.873 36.3249 34.873 36.108C34.0225 36.1346 33.1719 36.1651 32.3214 36.1955C32.3214 37.3182 32.3214 38.4389 32.3214 39.5616ZM74.9636 40.0449C75.8218 40.0963 76.68 40.1515 77.54 40.2066C77.54 39.9859 77.54 39.7671 77.54 39.5464C76.935 39.5064 76.3299 39.4684 75.7248 39.4303C75.7248 39.1905 75.7248 38.9508 75.7248 38.711C76.1377 38.7358 76.5506 38.7624 76.9635 38.789C76.9635 38.5683 76.9635 38.3495 76.9635 38.1288C76.5506 38.1021 76.1377 38.0755 75.7248 38.0508C75.7248 37.8281 75.7248 37.6036 75.7248 37.381C76.3203 37.4171 76.9159 37.4552 77.5115 37.4951C77.5115 37.2763 77.5115 37.0575 77.5115 36.8406C76.6609 36.7854 75.8104 36.7302 74.9598 36.6788C74.9617 37.8015 74.9617 38.9222 74.9636 40.0449ZM55.6309 36.6008C55.9792 36.6065 56.3274 36.6122 56.6756 36.6179C56.6756 36.3991 56.6756 36.1803 56.6756 35.9634C55.728 35.9462 54.7823 35.931 53.8347 35.9215C53.8347 36.1422 53.8347 36.361 53.8347 36.5818C54.1829 36.5856 54.5311 36.5913 54.8793 36.5951C54.8793 37.497 54.8793 38.399 54.8793 39.3009C55.1305 39.3047 55.3817 39.3085 55.6328 39.3123C55.6309 38.4066 55.6309 37.5027 55.6309 36.6008ZM42.7279 36.5856C43.0761 36.5818 43.4243 36.5761 43.7725 36.5723C43.7725 36.3534 43.7725 36.1346 43.7725 35.9177C42.8249 35.9291 41.8792 35.9424 40.9316 35.9595C40.9316 36.1803 40.9316 36.3991 40.9316 36.6198C41.2799 36.6141 41.6281 36.6084 41.9763 36.6027C41.9763 37.5046 41.9763 38.4066 41.9763 39.3085C42.2275 39.3047 42.4786 39.3009 42.7298 39.2971C42.7279 38.3933 42.7279 37.4894 42.7279 36.5856ZM73.312 36.5837C73.312 37.7063 73.312 38.8271 73.312 39.9498C73.0608 39.9364 72.8096 39.9212 72.5604 39.9079C72.5585 39.9079 72.5547 39.9079 72.5527 39.9079C72.5527 39.3028 72.5527 38.6977 72.5527 38.0926C72.2236 38.6939 71.8963 39.2952 71.5671 39.8965C71.2379 39.2609 70.9106 38.6235 70.5814 37.988C70.5814 38.5931 70.5814 39.1982 70.5814 39.8032C70.5795 39.8032 70.5757 39.8032 70.5738 39.8032C70.3226 39.7899 70.0715 39.7785 69.8203 39.7671C69.8203 38.6444 69.8203 37.5237 69.8203 36.401C70.0715 36.4124 70.3226 36.4257 70.5738 36.4391C70.9049 37.1165 71.236 37.7939 71.5652 38.4732C71.8963 37.83 72.2274 37.1869 72.5585 36.5437C72.8096 36.5551 73.0608 36.5685 73.312 36.5837ZM23.9718 36.5875C23.9718 37.7101 23.9718 38.8309 23.9718 39.9536C23.7206 39.9669 23.4694 39.9821 23.2202 39.9973C23.2183 39.9973 23.2144 39.9973 23.2125 39.9973C23.2125 39.3922 23.2125 38.7871 23.2125 38.182C22.8834 38.8195 22.5561 39.4588 22.2269 40.0982C21.8977 39.4988 21.5704 38.8994 21.2412 38.3019C21.2412 38.907 21.2412 39.5121 21.2412 40.1172C21.2393 40.1172 21.2355 40.1172 21.2336 40.1172C20.9824 40.1324 20.7313 40.1496 20.482 40.1648C20.482 39.0421 20.482 37.9214 20.482 36.7987C20.7332 36.7816 20.9843 36.7663 21.2355 36.7511C21.5666 37.3905 21.8958 38.0317 22.2269 38.673C22.558 37.9918 22.8891 37.3106 23.2202 36.6312C23.4694 36.616 23.7206 36.6027 23.9718 36.5875ZM67.3428 36.2868C67.3428 36.9262 67.3428 37.5655 67.3428 38.2049C66.8176 37.5427 66.2925 36.8824 65.7692 36.224C65.5351 36.2145 65.303 36.2069 65.0689 36.1974C65.0689 37.3201 65.0689 38.4408 65.0689 39.5635C65.3239 39.573 65.577 39.5825 65.832 39.592C65.832 38.8975 65.832 38.2011 65.832 37.5065C66.3952 38.2239 66.9585 38.9413 67.5217 39.6605C67.7158 39.6681 67.9099 39.6777 68.104 39.6853C68.104 38.5626 68.104 37.4418 68.104 36.3192C67.8509 36.3097 67.5959 36.2983 67.3428 36.2868ZM38.7148 36.0033C38.7148 36.6427 38.7148 37.282 38.7148 37.9214C38.1897 37.2934 37.6645 36.6674 37.1393 36.0433C36.9053 36.049 36.6731 36.0566 36.4391 36.0623C36.4391 37.185 36.4391 38.3057 36.4391 39.4284C36.694 39.4208 36.9471 39.4151 37.2021 39.4075C37.2021 38.7129 37.2021 38.0165 37.2021 37.322C37.7653 38.0013 38.3286 38.6844 38.8918 39.3656C39.0859 39.3618 39.28 39.3561 39.476 39.3523C39.476 38.2296 39.476 37.1089 39.476 35.9862C39.2229 35.9919 38.9698 35.9976 38.7148 36.0033ZM85.4235 38.0888C85.7698 38.1174 86.118 38.1478 86.4643 38.1782C86.4643 37.9594 86.4643 37.7406 86.4643 37.5237C85.5205 37.4418 84.5748 37.3638 83.631 37.2877C83.631 37.5084 83.631 37.7273 83.631 37.948C83.9773 37.9765 84.3255 38.0032 84.6718 38.0317C84.6718 38.9337 84.6718 39.8356 84.6718 40.7375C84.923 40.7585 85.1723 40.7794 85.4235 40.8003C85.4235 39.8965 85.4235 38.9926 85.4235 38.0888ZM81.378 37.1127C81.378 37.752 81.378 38.3914 81.378 39.0307C80.8548 38.3533 80.3296 37.6759 79.8063 36.9985C79.5742 36.9814 79.3401 36.9661 79.108 36.949C79.108 38.0717 79.108 39.1924 79.108 40.3151C79.363 40.3322 79.616 40.3513 79.871 40.3684C79.871 39.6739 79.871 38.9774 79.871 38.2829C80.4342 39.0174 80.9956 39.7538 81.5588 40.4921C81.7529 40.5073 81.947 40.5206 82.1411 40.5358C82.1411 39.4132 82.1411 38.2924 82.1411 37.1697C81.8861 37.1507 81.633 37.1317 81.378 37.1127ZM52.4456 39.2705C52.1488 39.2686 51.85 39.2648 51.5532 39.2628C51.3001 38.8385 51.0451 38.4161 50.7921 37.9918C50.6379 37.9918 50.4857 37.9899 50.3316 37.9899C50.3316 38.4123 50.3316 38.8347 50.3316 39.2552C50.0766 39.2533 49.8216 39.2533 49.5685 39.2533C49.5685 38.1307 49.5685 37.0099 49.5685 35.8872C49.8235 35.8872 50.0785 35.8891 50.3316 35.8891C50.6684 35.891 51.0052 35.893 51.3401 35.8949C51.9014 35.8987 52.3181 36.2221 52.3181 36.9014C52.3181 37.5065 51.987 37.7901 51.6255 37.9061C51.8995 38.3628 52.1716 38.8176 52.4456 39.2705ZM51.5189 36.8995C51.5189 36.7074 51.4257 36.5532 51.0413 36.5513C50.8035 36.5494 50.5656 36.5494 50.3278 36.5475C50.3278 36.812 50.3278 37.0765 50.3278 37.341C50.5009 37.341 50.676 37.3429 50.8491 37.3429C51.361 37.3467 51.5189 37.2249 51.5189 36.8995ZM18.9007 38.5835C18.9007 37.9347 18.6686 37.5103 18.3546 37.2516C18.0293 36.9833 17.6125 36.8957 17.2015 36.9262C16.7886 36.9566 16.3738 37.1031 16.0484 37.419C15.7344 37.7216 15.5023 38.1801 15.5023 38.829C15.5023 39.4779 15.7344 39.9003 16.0484 40.1572C16.3738 40.4236 16.7905 40.5111 17.2015 40.4807C17.6144 40.4502 18.0293 40.3037 18.3546 39.9916C18.6686 39.6891 18.9007 39.2343 18.9007 38.5835ZM17.2015 39.769C16.4994 39.8204 16.2558 39.2667 16.2558 38.7738C16.2558 38.281 16.4994 37.6911 17.2015 37.6397C17.9037 37.5884 18.1472 38.144 18.1472 38.6387C18.1453 39.1297 17.9018 39.7176 17.2015 39.769ZM62.5705 39.476C62.8255 39.4836 63.0786 39.4931 63.3336 39.5007C63.3336 38.378 63.3336 37.2573 63.3336 36.1346C63.0786 36.127 62.8255 36.1175 62.5705 36.1099C62.5705 37.2325 62.5705 38.3533 62.5705 39.476ZM13.1713 37.3315C13.1694 37.3315 13.1694 37.3315 13.1713 37.3315C13.1694 37.7748 13.1694 38.2182 13.1694 38.6635C12.6671 38.7034 12.1647 38.7453 11.6624 38.789C11.6624 38.3457 11.6624 37.9023 11.6624 37.4571C11.4093 37.478 11.1544 37.5008 10.9013 37.5218C10.9013 38.6444 10.9013 39.7652 10.9013 40.8879C11.1544 40.865 11.4093 40.8441 11.6624 40.8232C11.6624 40.3627 11.6624 39.9022 11.6624 39.4417C12.1647 39.3999 12.6671 39.358 13.1694 39.3161C13.1694 39.7766 13.1694 40.2371 13.1694 40.6976C13.2284 40.6919 13.2893 40.6881 13.3483 40.6824C13.5424 40.6671 13.7365 40.6519 13.9306 40.6348C13.9306 39.5121 13.9306 38.3914 13.9306 37.2687C13.6775 37.2915 13.4244 37.3125 13.1713 37.3315ZM61.7238 33.9635C62.1919 33.9768 62.6295 33.7922 62.9016 33.659C62.9016 33.3945 62.9016 33.1281 62.9016 32.8637C62.5934 33.0349 62.1786 33.2385 61.7238 33.2252C61.0521 33.2062 60.7781 32.6467 60.7781 32.1596C60.7781 31.6725 61.0521 31.1283 61.7238 31.1473C62.1786 31.1606 62.5762 31.3909 62.8845 31.5831C62.8845 31.3186 62.8845 31.0522 62.8845 30.7877C62.6124 30.6355 62.1919 30.4242 61.7238 30.4109C60.9056 30.3862 59.996 30.8942 59.996 32.1406C59.9979 33.3831 60.9075 33.9388 61.7238 33.9635ZM47.6771 30.312C47.6771 31.2139 47.6771 32.1158 47.6771 33.0178C48.2594 33.0159 48.8398 33.0159 49.422 33.0178C49.422 33.2385 49.422 33.4573 49.422 33.6781C48.5867 33.6762 47.7495 33.6781 46.9141 33.6819C46.9141 32.5592 46.9141 31.4384 46.9141 30.3158C47.1691 30.3139 47.4222 30.312 47.6771 30.312ZM43.0152 33.033C43.4757 33.0273 43.9381 33.0216 44.3986 33.0178C44.4937 33.2442 44.5889 33.4688 44.6859 33.6952C44.9523 33.6933 45.2206 33.6914 45.487 33.6895C45.0056 32.5706 44.5242 31.4537 44.0428 30.3367C43.8201 30.3386 43.5975 30.3424 43.373 30.3443C42.8915 31.4727 42.4101 32.6011 41.9287 33.7294C42.1951 33.7256 42.4634 33.7218 42.7298 33.718C42.8249 33.4878 42.9201 33.2613 43.0152 33.033ZM43.7079 31.3833C43.8449 31.7124 43.98 32.0397 44.117 32.3689C43.8449 32.3708 43.5709 32.3746 43.2987 32.3784C43.4338 32.0473 43.5709 31.7163 43.7079 31.3833ZM29.6574 34.0891C30.5175 34.051 31.3757 34.0168 32.2357 33.9844C32.2357 33.7637 32.2357 33.5449 32.2357 33.3241C31.6306 33.347 31.0236 33.3717 30.4185 33.3964C30.4185 33.1567 30.4185 32.9169 30.4185 32.6772C30.8314 32.6601 31.2444 32.6429 31.6592 32.6277C31.6592 32.407 31.6592 32.1882 31.6592 31.9674C31.2463 31.9826 30.8334 31.9998 30.4185 32.0169C30.4185 31.7943 30.4185 31.5697 30.4185 31.3471C31.0141 31.3224 31.6116 31.2976 32.2072 31.2767C32.2072 31.0579 32.2072 30.8391 32.2072 30.6221C31.3566 30.6545 30.5042 30.6887 29.6536 30.7249C29.6555 31.8456 29.6574 32.9683 29.6574 34.0891ZM77.7399 34.6409C78.598 34.698 79.4562 34.757 80.3144 34.8198C80.3144 34.599 80.3144 34.3802 80.3144 34.1595C79.7093 34.1157 79.1042 34.0738 78.4991 34.032C78.4991 33.7922 78.4991 33.5525 78.4991 33.3127C78.912 33.3413 79.3249 33.3698 79.7378 33.3983C79.7378 33.1776 79.7378 32.9588 79.7378 32.7381C79.3249 32.7095 78.912 32.6791 78.4991 32.6524C78.4991 32.4298 78.4991 32.2053 78.4991 31.9826C79.0947 32.0226 79.6902 32.0645 80.2858 32.1082C80.2858 31.8894 80.2858 31.6706 80.2858 31.4537C79.4353 31.3928 78.5847 31.3338 77.7341 31.2767C77.736 32.3975 77.7379 33.5201 77.7399 34.6409ZM66.1536 31.3148C66.5018 31.3281 66.85 31.3433 67.1963 31.3585C67.1963 31.1397 67.1963 30.9209 67.1963 30.704C66.2506 30.664 65.303 30.6278 64.3573 30.5936C64.3573 30.8143 64.3573 31.0331 64.3573 31.2539C64.7055 31.2672 65.0537 31.2786 65.4 31.2919C65.4 32.1939 65.4 33.0958 65.4 33.9977C65.6512 34.0073 65.9024 34.0168 66.1536 34.0263C66.1536 33.1224 66.1536 32.2186 66.1536 31.3148ZM20.0215 31.2501C20.0215 31.8894 20.0215 32.5288 20.0215 33.1681C19.4963 32.563 18.9731 31.9598 18.4479 31.3566C18.2157 31.3718 17.9817 31.389 17.7495 31.4061C17.7495 32.5288 17.7495 33.6495 17.7495 34.7722C18.0045 34.7551 18.2576 34.736 18.5126 34.7189C18.5126 34.0244 18.5126 33.3279 18.5126 32.6334C19.0758 33.2899 19.6371 33.9464 20.2004 34.6047C20.3945 34.5914 20.5885 34.58 20.7826 34.5667C20.7826 33.444 20.7826 32.3233 20.7826 31.2006C20.5296 31.2177 20.2765 31.2329 20.0215 31.2501ZM36.7036 33.8398C36.4067 33.8474 36.108 33.8569 35.8111 33.8645C35.5581 33.4497 35.3031 33.0349 35.05 32.622C34.8959 32.6277 34.7436 32.6315 34.5895 32.6372C34.5895 33.0596 34.5895 33.4821 34.5895 33.9026C34.3345 33.9102 34.0815 33.9197 33.8265 33.9273C33.8265 32.8047 33.8265 31.6839 33.8265 30.5612C34.0815 30.5517 34.3345 30.5441 34.5895 30.5365C34.9263 30.5251 35.2631 30.5156 35.598 30.5061C36.1593 30.4889 36.5761 30.7991 36.5761 31.4784C36.5761 32.0835 36.245 32.3784 35.8834 32.5078C36.1574 32.9512 36.4296 33.3964 36.7036 33.8398ZM35.7788 31.5012C35.7788 31.309 35.6855 31.1587 35.3012 31.1701C35.0633 31.1778 34.8255 31.1854 34.5876 31.193C34.5876 31.4575 34.5876 31.722 34.5876 31.9865C34.7608 31.9807 34.9358 31.975 35.109 31.9693C35.6189 31.9541 35.7788 31.8266 35.7788 31.5012ZM76.1567 34.5381C75.8599 34.5191 75.563 34.502 75.2662 34.483C75.0131 34.0453 74.76 33.6077 74.5051 33.1719C74.3528 33.1624 74.1987 33.1548 74.0465 33.1453C74.0465 33.5677 74.0465 33.9901 74.0465 34.4107C73.7915 34.3954 73.5384 34.3821 73.2834 34.3669C73.2834 33.2442 73.2834 32.1235 73.2834 31.0008C73.5384 31.016 73.7915 31.0293 74.0465 31.0446C74.3833 31.0636 74.7182 31.0845 75.055 31.1035C75.6144 31.1378 76.0311 31.4841 76.0311 32.1634C76.0311 32.7685 75.7 33.0349 75.3404 33.1301C75.6125 33.602 75.8846 34.07 76.1567 34.5381ZM75.2338 32.1177C75.2338 31.9256 75.1406 31.7676 74.7562 31.7448C74.5184 31.7315 74.2805 31.7163 74.0427 31.7029C74.0427 31.9674 74.0427 32.2319 74.0427 32.4964C74.2158 32.5059 74.3909 32.5173 74.564 32.5269C75.074 32.5554 75.2338 32.4412 75.2338 32.1177ZM26.4702 33.1947C26.1448 32.4374 25.8194 31.682 25.4921 30.9247C25.2257 30.938 24.9593 30.9532 24.691 30.9684C25.1725 32.0645 25.6539 33.1605 26.1353 34.2565C26.3579 34.2451 26.5805 34.2337 26.8032 34.2223C27.2846 33.0768 27.766 31.9313 28.2474 30.7877C27.981 30.801 27.7146 30.8124 27.4463 30.8257C27.1228 31.6154 26.7975 32.4051 26.4702 33.1947ZM55.1001 30.3576C55.6614 30.3652 56.0458 30.742 56.0458 31.4384C56.0458 32.1368 55.6614 32.4888 55.1001 32.4812C54.7537 32.4755 54.4055 32.4717 54.0592 32.4679C54.0592 32.8808 54.0592 33.2956 54.0592 33.7085C53.8042 33.7047 53.5493 33.7028 53.2962 33.699C53.2962 32.5763 53.2962 31.4556 53.2962 30.3329C53.8975 30.3424 54.4988 30.35 55.1001 30.3576ZM54.0554 31.8133C54.3047 31.8171 54.5539 31.819 54.8013 31.8228C55.1857 31.8285 55.2466 31.6249 55.2466 31.427C55.2466 31.2291 55.1857 31.0141 54.8013 31.0084C54.552 31.0046 54.3028 31.0008 54.0554 30.9989C54.0554 31.271 54.0554 31.5412 54.0554 31.8133ZM57.5718 33.7656C57.8268 33.7713 58.0799 33.777 58.3349 33.7808C58.3349 32.6581 58.3349 31.5374 58.3349 30.4147C58.0799 30.409 57.8268 30.4033 57.5718 30.3995C57.5718 31.5222 57.5718 32.6448 57.5718 33.7656ZM22.5542 34.4563C22.8091 34.4411 23.0622 34.4259 23.3172 34.4107C23.3172 33.288 23.3172 32.1672 23.3172 31.0446C23.0622 31.0598 22.8091 31.075 22.5542 31.0902C22.5542 32.2129 22.5542 33.3356 22.5542 34.4563ZM84.4758 34.1214C84.4758 34.8293 83.9697 35.1927 83.0868 35.1223C82.5654 35.0804 82.0212 34.7513 81.8671 34.6523C81.8614 34.6485 81.8557 34.6447 81.8518 34.6428C81.8518 34.3783 81.8518 34.1138 81.8518 33.8474C81.8671 33.8588 81.8842 33.8683 81.8994 33.8798C82.3751 34.1994 82.7671 34.3821 83.0887 34.4316C83.4712 34.4906 83.6481 34.3821 83.6481 34.1519C83.6481 34.0567 83.5682 33.9597 83.3969 33.8703C83.298 33.817 83.18 33.7656 83.0544 33.7123C82.4988 33.4707 81.8081 33.2233 81.8081 32.4526C81.8081 31.7733 82.4075 31.5146 83.0012 31.5621C83.4559 31.5983 83.9982 31.8399 84.2513 31.9941C84.257 31.9979 84.2627 32.0017 84.2684 32.0036C84.2684 32.2681 84.2684 32.5326 84.2684 32.799C84.2532 32.7894 84.2361 32.778 84.2209 32.7685C84.0648 32.6639 83.5111 32.3195 83.0012 32.2795C82.7443 32.2586 82.6339 32.348 82.6339 32.4698C82.6339 32.5554 82.7157 32.6601 82.8851 32.7533C82.9859 32.8104 83.1134 32.8656 83.2485 32.9264C83.7661 33.1529 84.4758 33.4288 84.4758 34.1214ZM14.6213 34.3802C15.116 34.3421 15.3272 34.0491 15.3272 33.5696C15.3272 32.9074 15.3272 32.2452 15.3272 31.5831C15.5803 31.564 15.8334 31.545 16.0865 31.526C16.0865 32.192 16.0865 32.8599 16.0865 33.5258C16.0865 34.4601 15.5974 35.0234 14.6213 35.0995C13.6451 35.1756 13.1181 34.7265 13.1181 33.7922C13.1181 33.1148 13.1181 32.4355 13.1181 31.7581C13.3711 31.7372 13.6242 31.7163 13.8773 31.6972C13.8773 32.3708 13.8773 33.0444 13.8773 33.718C13.8773 34.1956 14.1266 34.4202 14.6213 34.3802ZM70.1038 33.5772C70.5985 33.602 70.8098 33.3356 70.8117 32.856C70.8117 32.1939 70.8117 31.5317 70.8117 30.8695C71.0647 30.8828 71.3178 30.8961 71.5709 30.9095C71.5709 31.5754 71.5709 32.2433 71.5709 32.9093C71.5709 33.8436 71.08 34.3441 70.1038 34.2965C69.1277 34.2489 68.6367 33.7332 68.6367 32.799C68.6367 32.1216 68.6367 31.4422 68.6367 30.7648C68.8898 30.7763 69.1429 30.7877 69.3979 30.801C69.3979 31.4746 69.3979 32.1482 69.3979 32.8218C69.396 33.3013 69.6091 33.5544 70.1038 33.5772ZM40.7052 32.7286C40.7052 33.4364 40.1971 33.8512 39.3142 33.8683C38.7929 33.8798 38.2467 33.6039 38.0907 33.5201C38.085 33.5163 38.0793 33.5144 38.0755 33.5106C38.0755 33.2461 38.0755 32.9816 38.0755 32.7152C38.0907 32.7247 38.1078 32.7324 38.1231 32.7419C38.5988 33.014 38.9927 33.1567 39.3142 33.1738C39.6967 33.1947 39.8756 33.0673 39.8756 32.8389C39.8756 32.7438 39.7956 32.6562 39.6244 32.5839C39.5254 32.5402 39.4075 32.5021 39.2819 32.4603C38.7263 32.2738 38.0336 32.0949 38.0336 31.3262C38.0336 30.6469 38.6349 30.3291 39.2286 30.3158C39.6853 30.3063 40.2276 30.4946 40.4826 30.6221C40.4883 30.6259 40.494 30.6278 40.4997 30.6297C40.4997 30.8942 40.4997 31.1587 40.4997 31.4251C40.4845 31.4156 40.4673 31.408 40.4521 31.3985C40.2942 31.309 39.7405 31.0198 39.2286 31.0312C38.9717 31.0369 38.8595 31.1378 38.8595 31.2577C38.8595 31.3433 38.9413 31.4384 39.1125 31.5165C39.2134 31.5621 39.3409 31.6059 39.476 31.6535C39.9935 31.8323 40.7052 32.0359 40.7052 32.7286ZM60.2529 6.90154C60.2548 6.90344 60.2586 6.90534 60.2605 6.90725H60.2624L60.2529 6.90154ZM63.1718 8.27538C63.1737 8.27157 63.1737 8.25064 63.1737 8.224C63.1166 8.20117 63.0558 8.17643 62.9987 8.1536C63.0957 7.66838 62.7551 7.51425 62.5458 7.70073C62.2394 7.21551 61.6648 7.05186 61.1891 6.72458C61.1872 6.69984 61.1682 6.63134 61.172 6.56284C61.1891 6.34782 61.0559 6.27551 60.8504 6.30405C60.6068 6.34021 60.5269 6.28312 60.6867 6.05098C60.5041 6.05098 60.3614 6.05288 60.2548 6.05288C60.1844 6.16705 60.1178 6.27171 60.0436 6.38968C60.1045 6.42393 60.2091 6.46769 60.291 6.53429C60.3518 6.58377 60.3823 6.66559 60.428 6.73219C60.4489 6.72267 60.4698 6.71316 60.4927 6.70364C60.4603 6.75502 60.4508 6.75883 60.3861 6.86158C60.4984 6.82543 60.5212 6.85777 60.5802 6.83875C60.5973 6.88822 60.6125 6.93959 60.6278 6.98907C60.6963 6.95862 60.7667 6.92818 60.8618 6.88441C60.8161 7.31255 61.1358 7.11085 61.3071 7.11656C61.4897 7.27069 61.5639 7.32967 61.6819 7.51615C61.6667 7.53137 61.6496 7.5485 61.6343 7.56372C61.5506 7.56372 61.4669 7.56372 61.368 7.56562C61.3965 7.62651 61.4041 7.70643 61.4384 7.71024C61.68 7.73117 61.5354 7.94238 61.3661 8.03562C61.6039 8.08509 61.7847 8.12315 61.9407 8.1574C61.8284 8.25445 61.7333 8.12125 61.5221 8.5608C61.9978 8.33817 61.895 8.59124 62.0549 8.52465C62.3555 8.40096 63.0824 8.4276 63.1718 8.27538ZM54.4569 8.37623C54.4055 8.38194 54.3085 8.41619 54.2133 8.4276C54.2609 8.31724 54.4303 8.29631 54.3522 8.24493C54.3256 8.2259 54.1277 8.30392 54.0364 8.32866C54.0288 8.31724 54.0212 8.30582 54.0135 8.2925C54.0954 8.24113 54.3104 8.14789 54.2895 8.12125C54.2818 8.09651 54.141 8.14789 53.9698 8.05846C53.9964 7.98805 54.122 7.87198 54.1524 7.79016C53.8404 7.69882 53.5416 7.61129 53.2029 7.51234C53.2733 7.47429 53.3 7.45907 53.3247 7.44575C53.319 7.43052 53.3133 7.4153 53.3057 7.40008C53.1687 7.38486 52.927 7.43052 52.7767 7.4134C52.8262 7.30494 52.8091 7.14891 53.241 7.09563C53.1706 7.07089 53.2296 6.97385 53.2029 6.96433C52.9327 6.97194 52.6759 7.06708 52.5484 7.08231C52.0784 7.33158 51.5798 7.71975 51.7302 7.81109C51.8405 7.98995 52.3143 7.92716 52.594 8.00898C52.8928 8.09651 53.163 8.16121 53.4884 8.24874C53.5017 8.27538 53.2905 8.30772 53.1459 8.30392C53.1097 8.31534 53.0926 8.35149 53.1478 8.36671C53.3913 8.37623 53.6653 8.35339 53.9317 8.31534C54.0193 8.39716 53.8842 8.44853 53.8632 8.50752C53.926 8.51894 53.9793 8.53416 54.0231 8.54938C54.0992 8.52274 54.1163 8.45995 54.1429 8.47517C54.219 8.52655 54.1258 8.58554 54.1505 8.60457C54.3389 8.73967 54.3218 8.73586 54.4816 8.45614C54.4341 8.42189 54.4778 8.39906 54.4569 8.37623ZM60.6259 6.99858C60.624 6.99478 60.624 6.99287 60.622 6.98907C60.6201 6.98907 60.6182 6.99097 60.6163 6.99097L60.6259 6.99858ZM50.7806 7.12797C50.7902 7.10704 50.7997 7.08611 50.8092 7.06708C50.5447 6.82162 50.187 6.66939 49.8996 6.71887C50.088 6.84065 50.3772 7.02522 50.7806 7.12797ZM39.8166 42.3702C39.7747 42.5072 39.5959 42.4006 39.7709 42.745C39.9098 43.019 40.0126 43.3102 39.8927 43.6317C39.8908 43.725 39.8699 43.8981 39.9307 44.0161C39.9954 44.1417 39.9346 44.115 39.9269 44.1512C39.887 44.4233 39.9517 44.4918 40.1324 44.5127V44.0656C40.161 44.058 40.1876 44.0123 40.2561 44.0998C40.3151 44.5527 40.239 44.3738 40.3399 44.9999C40.2504 44.9161 40.2048 44.7354 40.1382 44.6022C40.1058 44.5603 40.0202 44.5946 40.0202 44.6364C40.0183 44.9371 40.0925 45.0075 40.0811 45.0684C40.0449 45.2796 40.0088 45.232 39.9269 45.4413C39.9384 45.5821 40.142 45.4718 40.2086 45.5231C40.2485 45.5536 40.2333 45.6601 40.2428 45.7324C40.161 45.7305 40.1172 45.7401 40.102 45.7648C40.0773 45.8086 40.1362 45.8752 40.1534 45.9246C40.4122 46.6382 40.7889 46.9769 40.7889 46.9769C41.493 47.66 41.649 47.7342 42.2484 47.9302C42.7602 48.0958 42.7108 47.9416 42.7241 47.9093C42.7336 47.8902 42.648 47.8617 42.4843 47.7133C42.3074 47.5515 42.3873 47.5154 42.2008 47.4088L41.8735 47.1976C41.9782 47.2052 42.1304 47.2909 42.1361 47.2471C42.0886 47.1634 41.9477 47.034 41.9116 46.8304C41.9744 46.8152 42.0676 46.7809 42.1304 46.7676C42.1818 46.7257 42.1628 46.6458 42.157 46.5411C42.2446 46.4784 42.4253 46.3547 42.4958 46.2709C42.5186 46.2386 42.5167 46.1492 42.5072 46.0578C42.2826 45.9075 41.9592 45.9513 42.0219 45.643C42.0657 45.5517 42.315 45.5555 42.4463 45.506C42.4653 45.4299 42.5167 45.3424 42.4996 45.272C42.4387 44.9789 42.7317 45.0303 42.9524 44.958C42.8896 44.8762 42.8497 44.7715 42.7945 44.762C42.4862 44.703 42.4501 44.6631 42.4824 44.2882C42.6994 44.4195 42.9239 44.4747 43.1693 44.4918C43.2645 44.4975 43.3045 44.4595 43.2683 44.3301C43.2074 44.1036 43.4034 43.9343 43.6279 43.9647C43.8962 44.0009 44.1664 44.0275 44.4366 44.0351C44.6478 44.0408 45.0132 43.7782 45.0417 43.5937C45.0551 43.5023 44.958 43.5195 44.9333 43.4719C44.8838 43.3806 44.8762 43.274 44.9028 43.2321C44.9599 43.1427 44.977 43.0495 44.9656 43.0342C44.8838 42.9239 44.7221 42.804 44.6231 42.6898C44.6231 42.6898 44.5641 42.6137 44.5546 42.5776C44.5451 42.5414 44.6402 42.4938 44.6536 42.4843C44.6859 42.4615 44.781 42.6727 44.7982 42.6841C44.8515 42.7184 44.9827 42.7012 45.0684 42.8154C45.2758 43.0951 45.5422 42.9581 45.7534 43.0951C45.7838 43.1142 45.8504 43.0989 45.8885 43.0761C46.3166 42.8192 46.7048 42.6099 47.0949 42.2979C47.2109 42.2332 46.8646 42.2313 46.7961 42.2313C47.2852 41.9211 47.1367 41.8412 47.1767 41.8355C47.3061 41.8183 47.4983 41.7708 47.4983 41.8583C47.1805 42.1608 47.3042 42.1171 47.2909 42.119C47.2794 42.119 47.3765 42.1228 47.4983 41.9972C47.7533 41.7308 47.9854 41.472 48.307 41.297C48.4345 41.2266 48.5163 41.1219 48.5334 40.9545C45.7401 40.9564 42.9467 40.9849 40.1553 41.0382C40.1363 41.5006 39.9498 41.9344 39.8166 42.3702ZM49.7512 7.44575C49.7113 7.46668 49.6656 7.54089 49.6218 7.54089C49.6218 7.54089 49.6104 7.54469 49.6199 7.55421C49.8178 7.72546 49.8445 7.74449 50.1451 7.87198C50.2555 7.84534 50.3658 7.8187 50.4876 7.79016C50.2441 7.63603 49.8863 7.75781 49.7512 7.44575ZM48.6228 2.01889C48.6228 2.0208 48.6228 2.0227 48.6228 2.0246C48.6247 2.0246 48.6266 2.0246 48.6286 2.0246L48.6228 2.01889ZM60.5098 7.26498C60.5231 7.23073 60.5497 7.16032 60.5535 7.15461C60.4394 7.05947 60.3499 6.98336 60.2605 6.90915C60.0759 6.95291 59.878 7.05186 59.7372 7.22692C59.7087 7.26498 59.8799 7.2802 59.7601 7.42291C59.6859 7.4838 59.6554 7.51996 59.5412 7.57133C59.5317 7.59607 59.566 7.6817 59.5565 7.70643C59.6897 7.78064 59.6763 7.78825 59.8095 7.86056C59.8476 7.91765 59.8609 8.03562 59.8286 8.14598C59.7867 8.2887 59.8229 8.35149 59.8647 8.37813C59.9294 8.42189 60.0588 8.4257 60.1463 8.37813C60.3214 8.28109 60.5783 8.05084 60.877 7.79967C60.8142 7.49522 60.6278 7.37534 60.5098 7.26498ZM48.0292 2.13306C48.2156 2.14829 48.6818 2.2948 48.6247 2.0246C48.4364 2.03412 48.2271 1.91995 48.0292 2.13306ZM71.9743 14.4748C71.9762 14.5319 71.9267 14.5661 71.8773 14.5642C71.843 14.5642 71.8164 14.5433 71.7973 14.5147C71.3673 13.8183 70.9068 13.1447 70.4159 12.492C70.4216 12.591 70.5529 12.6899 70.5871 12.8155C70.3778 12.65 70.1571 12.532 70.041 12.2789C69.9611 12.1058 69.6395 12.0487 69.4968 11.8964C69.3503 11.7404 69.1714 11.5939 69.0763 11.4131C68.8765 11.0326 68.5378 10.8156 68.1458 10.6178C67.7519 10.3685 67.4418 10.0069 67.0289 9.75197C66.9946 9.73104 66.9585 9.78812 66.9299 9.82237C66.987 10.0964 67.2096 10.3247 67.4779 10.496C67.7291 10.7148 67.8813 11.0097 68.2162 11.1677C68.5283 11.3427 68.7737 11.6186 69.0459 11.8508C69.0401 11.8565 69.0344 11.8622 69.0306 11.8679L69.0325 11.8698L68.9773 11.9288C68.8955 11.8717 68.8156 11.8165 68.7338 11.7613L68.7167 11.7709C68.7509 11.8565 68.7642 11.9707 68.8327 12.0125C69.0325 12.1343 69.0649 12.3341 69.0382 12.4825C69.0363 12.5034 69.0306 12.5244 69.0268 12.5453C69.0192 12.572 69.0154 12.5986 69.0116 12.6252C69.0116 12.629 69.0116 12.6309 69.0116 12.6347C69.0097 12.6538 69.0078 12.6728 69.0078 12.6918C69.0078 12.7946 69.0325 12.8897 69.0554 12.9925C69.0687 13.0439 69.0801 13.0971 69.0896 13.1523C68.9012 13.0343 68.7091 12.924 68.5283 12.7965C68.4864 12.766 68.4883 12.6861 68.4712 12.6271C68.4731 12.6252 68.475 12.6233 68.4769 12.6214C68.475 12.6138 68.475 12.6062 68.4731 12.6005C68.5568 12.4787 68.7604 12.5586 68.9298 12.5301C68.7585 11.9136 68.1744 11.6624 67.6891 11.2818C67.4646 11.103 67.2572 10.9032 67.0574 10.7015C66.8995 10.5435 66.732 10.3552 66.498 10.3019C66.4542 10.3628 66.4009 10.4122 66.3648 10.4788C66.3248 10.5531 66.3457 10.7509 66.2639 10.7319C66.0774 10.6939 65.8053 10.5531 65.6398 10.6729C65.5998 10.7567 65.6398 10.9222 65.733 10.9869C65.9614 11.1696 65.8206 11.3446 65.6417 11.4835C65.5123 11.6015 65.5199 11.8013 65.518 11.9592C65.518 12.022 65.5047 12.1191 65.5427 12.1438C65.8072 12.3132 65.6645 12.5586 65.7102 12.7679C65.7083 12.9411 65.695 13.2151 65.4762 13.2341C64.8977 13.2836 64.6732 13.7783 64.5723 13.6337C64.4125 13.5005 64.363 13.4606 64.2583 13.3597C64.129 13.236 64.0167 13.1751 63.8321 13.3045C63.7427 13.3673 63.5847 13.354 63.4496 13.3768C63.4116 13.2551 63.3888 13.158 63.3526 13.0648C63.3069 12.9506 63.2917 12.8212 63.1033 12.7946C63.0462 12.787 62.9511 12.7717 62.9663 12.6024C63.0158 12.0563 62.7741 11.6415 62.4373 11.2152C62.4069 11.1753 62.2813 11.1315 62.2699 11.0801C62.2375 10.9412 62.3764 11.0288 62.4716 10.9641C62.561 10.9051 62.464 10.7909 62.7894 10.8156C63.2936 10.8537 63.8055 10.7586 64.3744 10.7167C64.0624 10.2771 64.0148 9.95176 63.9063 9.82998C63.8131 9.72533 63.4858 9.52743 63.2156 9.39614C63.1452 9.35808 63.0481 9.34476 62.9644 9.34667C62.757 9.35428 62.582 9.31242 62.464 9.13926C62.6409 8.87667 62.9473 9.10311 63.189 8.98513C63.1033 8.8938 62.9264 8.77582 62.9245 8.70351C63.0386 8.65784 63.2403 8.75869 63.3621 8.77962C63.4344 8.67307 63.4915 8.58744 63.56 8.48659C63.5296 8.43331 63.4116 8.31343 63.4363 8.27347C63.7065 8.00518 63.7332 8.11554 63.6057 7.75971C63.6532 7.72356 63.7217 7.86437 63.7883 7.94048C63.8112 7.84914 63.9577 7.75971 63.6494 7.59226C63.6304 7.57704 63.716 7.54089 63.7731 7.50473C63.8093 7.4819 63.7712 7.43813 63.815 7.41911C63.912 7.38105 64.0376 7.39627 64.07 7.36392C63.8093 7.16223 63.6076 6.95482 63.3507 6.77024C63.1661 6.65037 63.0767 6.51717 63.2004 6.37826C63.345 6.45247 63.4915 6.52288 63.6304 6.6047C63.716 6.69413 63.6475 6.79688 63.8131 6.85777C63.8511 6.82733 64.0604 6.81591 64.0738 6.77976C64.0909 6.72838 63.933 6.63514 63.9158 6.6028C63.8397 6.4696 63.4801 6.21462 63.3602 6.20891C63.2042 6.2013 62.9397 6.02624 62.8236 5.92539C62.8636 5.95964 62.7494 6.0015 62.7513 6.03385C62.6619 6.37636 62.2356 6.24506 62.0986 6.02053C62.072 5.97677 61.9711 6.01102 61.9331 5.96915C61.6933 5.70847 61.7048 5.76746 61.4098 5.61333C61.3851 5.60001 61.4022 5.54863 61.387 5.47442C61.3699 5.27462 61.0863 5.16046 61.0863 5.11288C61.0863 5.05961 61.2956 5.08244 61.3432 4.80082C59.9104 4.05872 58.3957 3.4384 56.8145 2.95699C56.6356 2.98553 56.4625 3.02739 56.316 3.09018C56.0267 3.2329 55.6842 3.22148 55.3569 3.16059C55.2009 3.13205 55.1324 3.19484 55.0658 3.32233C55.0106 3.42698 54.8451 3.42889 54.7461 3.51642C54.7556 3.51642 54.8089 3.65532 54.8184 3.65532C54.7366 3.79994 54.6434 3.87795 54.5387 4.06443C54.2381 3.95597 53.9812 3.81706 53.671 3.76378C53.3285 3.71431 53.0564 3.5735 52.8357 3.32804C52.594 3.07306 52.2439 2.88658 52.0289 2.60877C51.9756 2.53266 51.9566 2.40897 51.9851 2.32335C52.0042 2.26626 52.1259 2.2244 52.2097 2.19776C52.261 2.18063 52.3276 2.21108 52.3866 2.20727C52.4342 2.20347 52.5598 2.08359 52.6321 2.03602C51.9109 1.93517 51.1783 1.85906 50.4362 1.81529C50.5923 1.87047 50.7064 1.96562 50.7806 2.11784C50.6741 2.11023 50.5828 2.10452 50.4895 2.09881L50.4838 2.13877C50.9861 2.34999 51.7473 2.60687 51.9204 2.7648C51.93 2.81047 51.753 2.85614 51.3477 2.96079C51.2487 2.98743 51.1041 2.79144 50.5066 2.58784C50.4857 2.58023 50.4058 2.6316 50.4077 2.63731C50.4343 2.6963 50.4572 2.77051 50.5085 2.80286C50.7045 2.92464 50.91 3.0331 51.1346 3.16059C51.009 3.25573 50.7616 3.18152 50.8796 3.4365C50.5923 3.28617 50.3411 3.15488 50.0899 3.02359L50.0652 3.05403C50.2041 3.16059 50.343 3.26524 50.4819 3.3718C50.4705 3.39083 50.4591 3.41176 50.4477 3.43079C50.0081 3.34897 49.5971 3.18152 49.1747 3.04642C49.1233 3.02929 49.0852 2.97792 49.0491 2.93796C48.7237 2.56691 48.2689 2.48889 47.7818 2.47177C47.6886 2.46796 47.5706 2.47938 47.4602 2.40326C47.6848 2.21489 47.8788 2.28529 48.071 2.31764C48.267 2.34999 48.463 2.37663 48.6875 2.40897C48.6685 2.33667 48.6609 2.30242 48.6476 2.25294C48.8455 2.23011 49.0434 2.20537 49.2603 2.18063C49.2089 2.07598 49.247 1.90092 49.0281 2.04934C48.9882 2.07598 48.8816 2.0246 48.7637 1.99987C48.836 1.958 48.8645 1.94088 48.8988 1.92185C48.8284 1.90853 48.7675 1.89711 48.7066 1.88379L48.7123 1.8895C48.6419 1.85906 48.5867 1.81529 48.5334 1.76582C47.7247 1.76963 46.9255 1.80768 46.1397 1.87809C46.25 2.10833 46.5659 2.12736 46.7276 2.37663C46.465 2.34047 46.1987 2.27007 45.938 2.24533C45.7914 2.24723 45.605 2.33286 45.4623 2.31764C45.3652 2.30812 45.3005 2.09311 45.2891 2.10262C45.3804 2.01699 45.5365 1.96752 45.7077 1.92185C45.0779 1.98845 44.4576 2.07408 43.8449 2.18063C42.707 2.46035 42.3321 2.81808 42.1437 3.00265C42.1437 3.00265 42.4139 3.14346 42.4996 3.19294C42.4311 3.3033 42.3721 3.40034 42.3264 3.47646C42.5585 3.54686 43.1808 3.74095 43.3577 3.85131C43.6641 4.3137 44.2597 4.28135 44.7468 4.43929C44.6383 4.582 44.6136 4.73993 44.5185 4.87694C44.4975 4.90738 44.4994 4.96637 44.5185 5.00252C44.5813 5.1224 44.5889 5.21564 44.665 5.32981C44.6859 5.36025 44.7373 5.40211 44.7696 5.39831C45.4642 5.37928 45.4185 5.17758 45.5231 4.6486C45.8638 4.60483 46.6991 4.63337 46.7866 4.249C46.798 4.03018 46.5564 3.83609 46.3813 3.78091C46.3965 3.75617 46.4099 3.73144 46.4251 3.7067C46.5526 3.7048 46.8837 3.58111 46.9255 3.53544C46.8665 3.45933 46.9426 3.44601 46.8342 3.32423C46.9541 3.3052 47.0112 3.3033 47.0378 3.22338C47.0473 3.20245 47.0378 3.15298 47.0264 3.12063C47.0321 3.1035 47.0397 3.08257 47.0511 3.06735C47.0701 3.04452 47.0873 3.03691 47.1196 3.02929C47.4697 3.06354 47.8313 3.11873 48.1776 3.20055C48.3336 3.24431 48.5277 3.31662 48.6152 3.4346C48.7941 3.67435 49.0415 3.66484 49.2622 3.75237C49.0491 3.96929 49.188 4.18811 49.4049 4.32512C49.8844 4.65621 50.3887 4.41835 50.8187 4.19192C50.9709 4.41074 51.3915 4.77609 51.5589 4.96827C51.5589 4.96827 51.5075 5.09957 51.7111 5.41924C51.9223 5.75033 52.497 5.89875 52.8947 6.06239C52.7748 6.18418 52.8357 6.23175 53.4084 6.48863C53.3856 6.56474 53.4046 6.6713 53.3361 6.72838C53.2372 6.81401 53.0888 6.84636 52.9879 6.8749C52.8376 6.91866 52.6759 6.84826 52.5769 6.86539C52.4019 6.83875 52.2325 6.82733 52.0593 6.89202C51.7168 7.01951 51.3934 6.98146 51.0508 6.88822C50.539 6.74931 50.0214 6.62753 49.5 6.51336C49.285 6.46579 49.0662 6.45628 48.8702 6.6085C48.8055 6.65798 48.6685 6.63324 48.5677 6.65037C48.2975 6.69223 47.6163 6.92437 47.3822 7.03854C47.9968 6.89583 48.6247 6.74931 49.3935 6.77976C49.5229 6.78927 49.6447 6.8102 49.8216 6.90915C49.8673 6.93389 49.9206 7.00429 49.913 7.04615C49.9072 7.0804 49.8197 7.12607 49.7645 7.12797C49.5933 7.13939 49.422 7.13178 49.2508 7.13178C49.247 7.14891 49.2432 7.16603 49.2394 7.18316C49.3954 7.20028 49.5514 7.21931 49.7455 7.24024C49.6313 7.29733 49.5381 7.34299 49.443 7.39247C49.5229 7.74068 49.8159 7.88149 50.1851 7.94619C50.2992 7.96712 50.4762 8.03562 50.5961 8.07558C50.7978 7.97473 50.99 7.87578 51.1821 7.77874C51.2278 7.7502 51.2963 7.754 51.2411 7.83582C51.1403 7.92716 51.2126 7.94048 51.1974 7.99566C51.2506 8.03752 51.3077 8.08509 51.3648 8.13266C51.3591 8.14979 51.3857 8.16691 51.3496 8.18404C51.1022 8.14598 51.1079 8.24493 50.8092 8.20687C50.7845 8.23161 50.8853 8.2906 50.7236 8.28299C50.1641 8.27538 49.6009 8.19165 49.0605 8.37623C48.9425 8.41619 48.8169 8.44092 48.7408 8.31343C48.7142 8.26967 48.6628 8.21258 48.6761 8.17833C48.6971 8.12886 48.7617 8.06987 48.8188 8.05655C49.0034 8.01659 49.1956 7.99566 49.3897 7.92145C49.3802 7.80919 48.9844 7.87198 48.6343 7.87008C48.4896 7.98044 47.993 7.95951 47.681 7.93287C47.2947 7.8872 46.8152 8.02801 46.6249 8.30202C46.602 8.33627 46.6363 8.4276 46.6782 8.46185C46.7295 8.50562 46.9084 8.51704 46.8951 8.57793C46.0769 8.58364 45.8542 8.40858 45.4071 8.44663C45.4052 8.46185 45.468 8.47708 45.4432 8.52084C45.5041 8.52845 45.565 8.53987 45.6221 8.5608C45.6659 8.57602 45.7914 8.58363 45.8771 8.59315C45.8999 8.60266 45.8961 8.61408 45.8752 8.6255C45.7496 8.6255 45.5574 8.64072 45.5098 8.6255C45.3976 8.59125 45.2872 8.6255 45.2054 8.6255C45.1178 8.74157 44.9466 8.77011 44.8952 8.81197C44.8324 8.86525 44.7411 9.10691 44.6041 9.08408C44.6041 8.9623 44.4766 8.93375 44.4328 8.88048C44.41 8.89189 44.3872 8.90521 44.3643 8.91663C44.5032 9.33525 44.0504 9.30671 43.9267 9.54646C43.8734 9.58071 43.8848 9.51792 43.8639 9.5046C43.9172 9.44942 43.9153 9.39995 43.9438 9.3695C43.8791 9.29148 43.9438 9.10881 43.9438 8.99274C43.9248 8.96039 43.8544 8.97181 43.8372 9.0346C43.7764 9.22679 43.6964 9.38663 43.7402 9.58642C43.8525 9.80334 43.7421 10.0222 43.489 10.0793C43.4148 10.0964 43.2835 10.0812 43.3197 10.2163C43.3216 10.222 43.2207 10.2638 43.1617 10.2638C42.8287 10.2581 42.6689 10.3133 42.5015 10.456C42.0334 10.4103 41.7175 10.7509 41.3008 10.8423C41.0781 10.8899 40.8574 11.0592 40.7166 11.2228C40.4312 11.6434 40.6481 12.2237 40.5587 12.6918C40.5225 12.903 40.2809 13.1352 40.2599 13.2969C40.2599 13.2969 40.2162 13.3007 40.1857 13.3026C40.1115 13.3102 39.9307 13.3692 39.8699 13.2874C39.9536 13.1409 39.7462 12.8783 39.6872 12.6576C39.6301 12.4464 39.6244 12.1647 39.7271 11.9669C39.788 11.8508 39.7899 11.8203 39.672 11.7214C39.6453 11.6986 39.6206 11.6681 39.6092 11.6377C39.5293 11.4265 39.4474 11.3675 39.2058 11.4683C39.0897 11.5159 38.9946 11.4988 38.9127 11.3675C38.8557 11.2761 38.6882 11.2152 38.5626 11.1639C38.4218 11.1068 38.2372 11.2419 38.0945 11.063C38.0451 11.0059 37.6321 11.1163 37.4875 11.1296C37.4647 11.1391 37.5351 11.259 37.4457 11.3104C37.4247 11.3294 37.3886 11.337 37.3924 11.3656C37.3943 11.377 37.4419 11.4531 37.4228 11.474C37.3867 11.5083 37.3619 11.5121 37.3619 11.5121C37.3505 11.495 37.2896 11.436 37.2744 11.4207C37.2059 11.3732 37.1736 11.3789 37.1165 11.3903C37.0556 11.4036 37.0499 11.4207 37.0023 11.4322C36.9528 11.4436 36.9034 11.4474 36.852 11.4303C36.7511 11.3979 36.6864 11.2761 36.6065 11.1962C36.5875 11.2171 36.5513 11.2666 36.5437 11.2628C36.2716 11.1486 35.9957 11.0992 35.6989 11.1867C35.6684 11.1962 35.6228 11.162 35.5885 11.1486C35.4819 11.358 35.2536 11.3884 35.05 11.4303C34.9625 11.4474 34.8711 11.4854 34.7817 11.5368C34.7265 11.5673 34.6828 11.67 34.6314 11.71C34.58 11.7499 34.5248 11.729 34.4792 11.7747C34.3288 11.9326 34.2242 12.1172 34.2204 12.2808C34.2166 12.4121 34.1766 12.5111 34.0301 12.5739C33.9673 12.6005 33.9045 12.6557 33.876 12.7109C33.7218 13.002 33.5639 13.2931 33.4402 13.5957C33.3888 13.7194 33.3698 13.8887 33.3051 14.001C33.288 14.0295 33.2766 14.0581 33.2671 14.0847C32.4736 14.1113 31.6801 14.1437 30.8847 14.1741C30.978 14.0485 31.1055 13.8354 31.1035 13.6851C31.1093 13.198 30.9 12.6633 30.8524 12.2713C31.1036 11.9231 30.841 11.5711 30.8657 11.2209C30.8676 11.2076 30.8181 11.1658 30.7972 11.141C31.0541 10.8252 31.1492 10.3076 30.9684 10.2144C30.3843 10.9013 30.7249 11.8184 30.3634 12.5834C30.3329 12.688 30.2834 12.7813 30.3976 12.8935C30.4985 12.9944 30.312 13.3959 30.2511 13.3331C30.3481 13.1428 30.0722 12.9753 29.939 12.8022C29.9048 12.7565 29.939 12.6956 29.939 12.6405C30.1674 12.4178 30.2739 12.1895 30.057 11.9041C29.9961 11.8241 30.017 11.6967 29.9999 11.592C30.2587 11.4931 30.4033 11.3161 30.3443 11.0973C30.2834 10.8708 30.3538 10.6748 30.4395 10.4731C30.546 10.222 30.664 9.9746 30.7744 9.72533C30.8486 9.55978 30.8942 9.40375 30.7725 9.25914C30.7534 9.2363 30.7401 9.19825 30.7496 9.17541C30.8885 8.81958 31.0712 8.48469 31.2919 8.16501C31.3871 7.99566 31.4955 7.83392 31.6078 7.67789C29.216 9.59594 27.1723 11.9079 25.5644 14.5128C25.5454 14.5414 25.5188 14.5623 25.4845 14.5623C25.4331 14.5642 25.3856 14.5281 25.3875 14.4729C25.3875 14.4596 25.3951 14.4462 25.3989 14.4329C29.6517 5.87782 38.4808 0 48.6818 0C58.8829 0 67.712 5.87972 71.9648 14.4329C71.9686 14.4462 71.9743 14.4615 71.9743 14.4748ZM64.9681 7.0747C64.8045 6.95292 64.6389 6.83304 64.4734 6.71696C64.4258 6.71506 64.3725 6.71887 64.3116 6.71506C64.3668 6.79498 64.3973 6.83684 64.4315 6.88632C64.382 6.90534 64.3345 6.92437 64.2907 6.9415C64.3078 7.00048 64.323 7.05567 64.3459 7.13939C64.2146 7.10514 64.1213 7.08231 64.0262 7.05947L64.0072 7.09563C64.1404 7.15842 64.2755 7.22121 64.4239 7.28971C64.4848 7.13368 64.5704 7.08802 64.7169 7.24785C64.7474 7.2821 64.9243 7.27259 64.9377 7.24405C64.9757 7.17935 64.9814 7.12417 64.9681 7.0747ZM67.5236 12.2884C67.5731 12.1362 67.6492 12.2237 67.6339 12.121C67.6073 11.9478 67.4361 11.6453 67.2115 11.4207C67.1659 11.4969 67.0802 11.5787 67.0993 11.6167C67.2058 11.8375 67.3999 11.9402 67.4646 12.2618C67.4684 12.2808 67.5046 12.2808 67.5236 12.2884ZM66.85 10.9698C66.8481 11.1106 66.9604 11.2267 67.1735 11.3275C67.1773 11.181 67.0174 11.0307 66.9204 10.7776C66.9261 10.9089 66.85 10.9089 66.85 10.9698Z" fill="#799CBC"/>
</svg>
