<svg width="25" height="19" viewBox="0 0 25 19" fill="none" xmlns="http://www.w3.org/2000/svg">
<path d="M21.1636 1.575C19.5701 0.845999 17.8614 0.308906 16.0749 0.00129041C16.0424 -0.00464648 16.0099 0.0101901 15.9931 0.039864C15.5751 0.781104 14.7726 1.24021 13.924 1.17651C12.9728 1.10511 12.0253 1.10445 11.0838 1.17453C10.2346 1.23774 9.42031 0.780848 9.0006 0.039864C8.98384 0.0111802 8.95134 -0.00365641 8.9188 0.00129041C7.13324 0.307923 5.42454 0.845016 3.83014 1.575C3.81634 1.58093 3.80451 1.59083 3.79666 1.60368C0.555616 6.43162 -0.33224 11.1409 0.103313 15.7918C0.105283 15.8145 0.118094 15.8363 0.135831 15.8501C2.27418 17.4159 4.34553 18.3665 6.37842 18.9965C6.41095 19.0064 6.44542 18.9946 6.46613 18.9679C6.94701 18.3131 7.37567 17.6227 7.7432 16.8966C7.76489 16.8541 7.74419 16.8036 7.69986 16.7868C7.01993 16.5297 6.3725 16.2161 5.74972 15.86C5.70046 15.8313 5.69651 15.7611 5.74183 15.7275C5.87289 15.6295 6.00398 15.5277 6.12912 15.4248C6.15176 15.406 6.18331 15.402 6.20993 15.4139C10.3013 17.2765 14.7308 17.2765 18.7739 15.4139C18.8005 15.4011 18.8321 15.405 18.8557 15.4238C18.9809 15.5267 19.1119 15.6295 19.244 15.7275C19.2893 15.7611 19.2863 15.8313 19.2371 15.86C18.6143 16.223 17.9669 16.5297 17.2859 16.7858C17.2416 16.8027 17.2219 16.8541 17.2436 16.8966C17.619 17.6216 18.0477 18.3121 18.5197 18.9669C18.5394 18.9946 18.5749 19.0064 18.6074 18.9965C20.6501 18.3665 22.7215 17.4159 24.8598 15.8501C24.8786 15.8363 24.8904 15.8155 24.8924 15.7928C25.4136 10.4158 24.0193 5.74517 21.1961 1.60466C21.1892 1.59083 21.1774 1.58093 21.1636 1.575ZM8.35419 12.9599C7.12239 12.9599 6.10743 11.8323 6.10743 10.4475C6.10743 9.0627 7.10271 7.93511 8.35419 7.93511C9.61549 7.93511 10.6206 9.0726 10.6009 10.4475C10.6009 11.8323 9.60563 12.9599 8.35419 12.9599ZM16.6612 12.9599C15.4294 12.9599 14.4145 11.8323 14.4145 10.4475C14.4145 9.0627 15.4097 7.93511 16.6612 7.93511C17.9225 7.93511 18.9276 9.0726 18.908 10.4475C18.908 11.8323 17.9225 12.9599 16.6612 12.9599Z" fill="white"/>
</svg>
