<svg width="20" height="20" viewBox="0 0 20 20" fill="none" xmlns="http://www.w3.org/2000/svg">
<mask id="mask0_123_2204" style="mask-type:luminance" maskUnits="userSpaceOnUse" x="0" y="0" width="20" height="20">
<path d="M19.8079 8.14476H10.213V11.9894H15.7263C15.6377 12.5336 15.4387 13.0688 15.1472 13.5569C14.8133 14.1161 14.4006 14.5418 13.9775 14.866C12.7101 15.8372 11.2325 16.0358 10.2063 16.0358C7.61409 16.0358 5.39919 14.3604 4.54176 12.0838C4.50716 12.0012 4.48418 11.9159 4.4562 11.8315C4.26673 11.2521 4.1632 10.6384 4.1632 10.0006C4.1632 9.33685 4.27531 8.70145 4.47972 8.10134C5.28599 5.73451 7.55082 3.96672 10.2082 3.96672C10.7427 3.96672 11.2574 4.03034 11.7455 4.15724C12.861 4.44725 13.6501 5.01843 14.1336 5.47023L17.0511 2.61313C15.2764 0.985973 12.9629 2.46015e-09 10.2033 2.46015e-09C7.99721 -4.74827e-05 5.96042 0.687318 4.29134 1.84899C2.93776 2.79107 1.82764 4.0524 1.07844 5.5173C0.381576 6.87555 0 8.38075 0 9.99913C0 11.6176 0.382159 13.1384 1.07902 14.4841V14.4932C1.81508 15.9218 2.89146 17.1519 4.19967 18.0897C5.34254 18.9089 7.39181 20 10.2033 20C11.8202 20 13.2531 19.7085 14.5169 19.1622C15.4285 18.7681 16.2363 18.2541 16.9676 17.5935C17.9339 16.7206 18.6906 15.6409 19.2072 14.3987C19.7237 13.1565 20 11.7518 20 10.2289C20 9.51963 19.9288 8.79934 19.8079 8.14469V8.14476Z" fill="white"/>
</mask>
<g mask="url(#mask0_123_2204)">
<g filter="url(#filter0_f_123_2204)">
<path d="M-0.146484 10.0671C-0.135879 11.6601 0.318015 13.3035 1.00506 14.6303V14.6394C1.50148 15.6029 2.17995 16.364 2.95271 17.1181L7.62 15.4151C6.73698 14.9666 6.60224 14.6917 5.96925 14.1902C5.3224 13.5379 4.8403 12.7891 4.54006 11.9111H4.52796L4.54006 11.902C4.34254 11.3222 4.32306 10.7067 4.31577 10.0671H-0.146484Z" fill="url(#paint0_radial_123_2204)"/>
</g>
<g filter="url(#filter1_f_123_2204)">
<path d="M10.2153 -0.0727539C9.75397 1.54791 9.93036 3.12324 10.2153 4.03984C10.748 4.04024 11.2612 4.10374 11.7478 4.23024C12.8633 4.52026 13.6523 5.09145 14.1358 5.54325L17.1279 2.61316C15.3554 0.987939 13.2222 -0.0701933 10.2153 -0.0727539Z" fill="url(#paint1_radial_123_2204)"/>
</g>
<g filter="url(#filter2_f_123_2204)">
<path d="M10.2055 -0.0854492C7.94272 -0.0854981 5.85365 0.619514 4.14172 1.81101C3.50608 2.25341 2.92277 2.76446 2.40336 3.33276C2.26729 4.60931 3.42196 6.17832 5.70857 6.16533C6.81801 4.8748 8.45886 4.03982 10.2851 4.03982C10.2868 4.03982 10.2884 4.03996 10.2901 4.03996L10.2155 -0.0851572C10.2121 -0.0851594 10.2089 -0.0854492 10.2055 -0.0854492Z" fill="url(#paint2_radial_123_2204)"/>
</g>
<g filter="url(#filter3_f_123_2204)">
<path d="M17.6743 10.5289L15.6546 11.9164C15.566 12.4605 15.3668 12.9958 15.0754 13.4839C14.7415 14.0431 14.3287 14.4688 13.9056 14.793C12.6409 15.7622 11.1672 15.9617 10.1413 15.9625C9.08094 17.7685 8.89504 18.6731 10.2159 20.1307C11.8503 20.1295 13.2993 19.8345 14.5774 19.282C15.5013 18.8826 16.3198 18.3617 17.0609 17.6922C18.0402 16.8077 18.8072 15.7135 19.3307 14.4546C19.8541 13.1957 20.1341 11.7723 20.1341 10.2289L17.6743 10.5289Z" fill="url(#paint3_radial_123_2204)"/>
</g>
<g filter="url(#filter4_f_123_2204)">
<path d="M10.0664 7.99866V12.1355H19.7835C19.869 11.5689 20.1516 10.8358 20.1516 10.2289C20.1516 9.51962 20.0805 8.65331 19.9596 7.99866H10.0664Z" fill="#3086FF"/>
</g>
<g filter="url(#filter5_f_123_2204)">
<path d="M2.44808 3.18665C1.84843 3.84274 1.33615 4.5771 0.929972 5.37129C0.233121 6.72955 -0.148438 8.38081 -0.148438 9.99919C-0.148438 10.022 -0.14655 10.0443 -0.146398 10.0671C0.162216 10.6588 4.11654 10.5455 4.31586 10.0671C4.31561 10.0448 4.31309 10.023 4.31309 10.0006C4.31309 9.33683 4.42523 8.84758 4.62964 8.24746C4.8818 7.50724 5.27664 6.82559 5.78152 6.23829C5.89597 6.09217 6.20125 5.77805 6.29031 5.58963C6.32424 5.51787 6.22872 5.47758 6.22338 5.45232C6.2174 5.42407 6.08933 5.44679 6.06064 5.42574C5.96953 5.35892 5.78913 5.32403 5.67958 5.29301C5.44544 5.22671 5.0574 5.08051 4.84186 4.92895C4.16057 4.44988 3.09736 3.87764 2.44808 3.18665Z" fill="url(#paint4_radial_123_2204)"/>
</g>
<g filter="url(#filter6_f_123_2204)">
<path d="M4.85582 5.45513C6.43566 6.41212 6.88999 4.97208 7.94036 4.52146L6.11321 0.732422C5.44108 1.01492 4.80605 1.36589 4.21684 1.77597C3.33691 2.3884 2.55986 3.13574 1.91797 3.98622L4.85582 5.45513Z" fill="url(#paint5_radial_123_2204)"/>
</g>
<g filter="url(#filter7_f_123_2204)">
<path d="M5.50147 15.1223C3.38074 15.8879 3.04873 15.9153 2.85352 17.2296C3.22656 17.5937 3.62736 17.9304 4.05328 18.2357C5.19615 19.0549 7.39453 20.146 10.2061 20.146C10.2094 20.146 10.2125 20.1457 10.2158 20.1457V15.8895C10.2137 15.8895 10.2113 15.8897 10.2091 15.8897C9.1563 15.8897 8.315 15.6131 7.45239 15.1323C7.23971 15.0137 6.85385 15.3321 6.6577 15.1897C6.38717 14.9934 5.73611 15.3589 5.50147 15.1223Z" fill="url(#paint6_radial_123_2204)"/>
</g>
<g opacity="0.5" filter="url(#filter8_f_123_2204)">
<path d="M8.97266 15.7555V20.072C9.36604 20.1181 9.77543 20.1461 10.2049 20.1461C10.6354 20.1461 11.0519 20.1239 11.4567 20.0833V15.7846C11.0031 15.8621 10.5759 15.8897 10.208 15.8897C9.78416 15.8897 9.372 15.8404 8.97266 15.7555Z" fill="url(#paint7_linear_123_2204)"/>
</g>
</g>
<defs>
<filter id="filter0_f_123_2204" x="-0.616564" y="9.59706" width="8.70578" height="7.99118" filterUnits="userSpaceOnUse" color-interpolation-filters="sRGB">
<feFlood flood-opacity="0" result="BackgroundImageFix"/>
<feBlend mode="normal" in="SourceGraphic" in2="BackgroundImageFix" result="shape"/>
<feGaussianBlur stdDeviation="0.23504" result="effect1_foregroundBlur_123_2204"/>
</filter>
<filter id="filter1_f_123_2204" x="9.46156" y="-0.542833" width="8.13547" height="6.55613" filterUnits="userSpaceOnUse" color-interpolation-filters="sRGB">
<feFlood flood-opacity="0" result="BackgroundImageFix"/>
<feBlend mode="normal" in="SourceGraphic" in2="BackgroundImageFix" result="shape"/>
<feGaussianBlur stdDeviation="0.23504" result="effect1_foregroundBlur_123_2204"/>
</filter>
<filter id="filter2_f_123_2204" x="1.9225" y="-0.555529" width="8.8386" height="7.19101" filterUnits="userSpaceOnUse" color-interpolation-filters="sRGB">
<feFlood flood-opacity="0" result="BackgroundImageFix"/>
<feBlend mode="normal" in="SourceGraphic" in2="BackgroundImageFix" result="shape"/>
<feGaussianBlur stdDeviation="0.23504" result="effect1_foregroundBlur_123_2204"/>
</filter>
<filter id="filter3_f_123_2204" x="8.81508" y="9.7588" width="11.7898" height="10.842" filterUnits="userSpaceOnUse" color-interpolation-filters="sRGB">
<feFlood flood-opacity="0" result="BackgroundImageFix"/>
<feBlend mode="normal" in="SourceGraphic" in2="BackgroundImageFix" result="shape"/>
<feGaussianBlur stdDeviation="0.23504" result="effect1_foregroundBlur_123_2204"/>
</filter>
<filter id="filter4_f_123_2204" x="9.59633" y="7.52858" width="11.0261" height="5.077" filterUnits="userSpaceOnUse" color-interpolation-filters="sRGB">
<feFlood flood-opacity="0" result="BackgroundImageFix"/>
<feBlend mode="normal" in="SourceGraphic" in2="BackgroundImageFix" result="shape"/>
<feGaussianBlur stdDeviation="0.23504" result="effect1_foregroundBlur_123_2204"/>
</filter>
<filter id="filter5_f_123_2204" x="-0.618517" y="2.71657" width="7.38547" height="8.223" filterUnits="userSpaceOnUse" color-interpolation-filters="sRGB">
<feFlood flood-opacity="0" result="BackgroundImageFix"/>
<feBlend mode="normal" in="SourceGraphic" in2="BackgroundImageFix" result="shape"/>
<feGaussianBlur stdDeviation="0.23504" result="effect1_foregroundBlur_123_2204"/>
</filter>
<filter id="filter6_f_123_2204" x="-1.38688" y="-2.57243" width="12.6312" height="11.654" filterUnits="userSpaceOnUse" color-interpolation-filters="sRGB">
<feFlood flood-opacity="0" result="BackgroundImageFix"/>
<feBlend mode="normal" in="SourceGraphic" in2="BackgroundImageFix" result="shape"/>
<feGaussianBlur stdDeviation="1.65243" result="effect1_foregroundBlur_123_2204"/>
</filter>
<filter id="filter7_f_123_2204" x="2.38344" y="14.6351" width="8.30344" height="5.98093" filterUnits="userSpaceOnUse" color-interpolation-filters="sRGB">
<feFlood flood-opacity="0" result="BackgroundImageFix"/>
<feBlend mode="normal" in="SourceGraphic" in2="BackgroundImageFix" result="shape"/>
<feGaussianBlur stdDeviation="0.23504" result="effect1_foregroundBlur_123_2204"/>
</filter>
<filter id="filter8_f_123_2204" x="8.50258" y="15.2854" width="3.42453" height="5.33066" filterUnits="userSpaceOnUse" color-interpolation-filters="sRGB">
<feFlood flood-opacity="0" result="BackgroundImageFix"/>
<feBlend mode="normal" in="SourceGraphic" in2="BackgroundImageFix" result="shape"/>
<feGaussianBlur stdDeviation="0.23504" result="effect1_foregroundBlur_123_2204"/>
</filter>
<radialGradient id="paint0_radial_123_2204" cx="0" cy="0" r="1" gradientTransform="matrix(-0.415601 -9.95993 14.9426 -0.597686 7.52657 16.9681)" gradientUnits="userSpaceOnUse">
<stop offset="0.141612" stop-color="#1ABD4D"/>
<stop offset="0.247515" stop-color="#6EC30D"/>
<stop offset="0.311547" stop-color="#8AC502"/>
<stop offset="0.366013" stop-color="#A2C600"/>
<stop offset="0.445673" stop-color="#C8C903"/>
<stop offset="0.540305" stop-color="#EBCB03"/>
<stop offset="0.615636" stop-color="#F7CD07"/>
<stop offset="0.699345" stop-color="#FDCD04"/>
<stop offset="0.771242" stop-color="#FDCE05"/>
<stop offset="0.860566" stop-color="#FFCE0A"/>
</radialGradient>
<radialGradient id="paint1_radial_123_2204" cx="0" cy="0" r="1" gradientTransform="matrix(7.05806 -1.69631e-05 -9.92038e-06 8.92439 16.848 5.33125)" gradientUnits="userSpaceOnUse">
<stop offset="0.408458" stop-color="#FB4E5A"/>
<stop offset="1" stop-color="#FF4540"/>
</radialGradient>
<radialGradient id="paint2_radial_123_2204" cx="0" cy="0" r="1" gradientTransform="matrix(-9.88885 5.36243 7.4323 13.1383 12.9937 -1.37729)" gradientUnits="userSpaceOnUse">
<stop offset="0.231273" stop-color="#FF4541"/>
<stop offset="0.311547" stop-color="#FF4540"/>
<stop offset="0.457516" stop-color="#FF4640"/>
<stop offset="0.540305" stop-color="#FF473F"/>
<stop offset="0.699346" stop-color="#FF5138"/>
<stop offset="0.771242" stop-color="#FF5B33"/>
<stop offset="0.860566" stop-color="#FF6C29"/>
<stop offset="1" stop-color="#FF8C18"/>
</radialGradient>
<radialGradient id="paint3_radial_123_2204" cx="0" cy="0" r="1" gradientTransform="matrix(-17.9337 -22.9206 -8.64137 6.48127 10.3629 18.8363)" gradientUnits="userSpaceOnUse">
<stop offset="0.131546" stop-color="#0CBA65"/>
<stop offset="0.209784" stop-color="#0BB86D"/>
<stop offset="0.297297" stop-color="#09B479"/>
<stop offset="0.396257" stop-color="#08AD93"/>
<stop offset="0.477124" stop-color="#0AA6A9"/>
<stop offset="0.568425" stop-color="#0D9CC6"/>
<stop offset="0.667385" stop-color="#1893DD"/>
<stop offset="0.768727" stop-color="#258BF1"/>
<stop offset="0.858506" stop-color="#3086FF"/>
</radialGradient>
<radialGradient id="paint4_radial_123_2204" cx="0" cy="0" r="1" gradientTransform="matrix(-1.26913 10.7101 15.1251 1.71807 9.33747 1.80342)" gradientUnits="userSpaceOnUse">
<stop offset="0.366013" stop-color="#FF4E3A"/>
<stop offset="0.457516" stop-color="#FF8A1B"/>
<stop offset="0.540305" stop-color="#FFA312"/>
<stop offset="0.615636" stop-color="#FFB60C"/>
<stop offset="0.771242" stop-color="#FFCD0A"/>
<stop offset="0.860566" stop-color="#FECF0A"/>
<stop offset="0.915033" stop-color="#FECF08"/>
<stop offset="1" stop-color="#FDCD01"/>
</radialGradient>
<radialGradient id="paint5_radial_123_2204" cx="0" cy="0" r="1" gradientTransform="matrix(-3.66844 3.97231 -11.4435 -10.1305 7.55208 1.6923)" gradientUnits="userSpaceOnUse">
<stop offset="0.315904" stop-color="#FF4C3C"/>
<stop offset="0.603818" stop-color="#FF692C"/>
<stop offset="0.726837" stop-color="#FF7825"/>
<stop offset="0.884534" stop-color="#FF8D1B"/>
<stop offset="1" stop-color="#FF9F13"/>
</radialGradient>
<radialGradient id="paint6_radial_123_2204" cx="0" cy="0" r="1" gradientTransform="matrix(-9.88885 -5.36243 7.4323 -13.1383 12.9941 21.3771)" gradientUnits="userSpaceOnUse">
<stop offset="0.231273" stop-color="#0FBC5F"/>
<stop offset="0.311547" stop-color="#0FBC5F"/>
<stop offset="0.366013" stop-color="#0FBC5E"/>
<stop offset="0.457516" stop-color="#0FBC5D"/>
<stop offset="0.540305" stop-color="#12BC58"/>
<stop offset="0.699346" stop-color="#28BF3C"/>
<stop offset="0.771242" stop-color="#38C02B"/>
<stop offset="0.860566" stop-color="#52C218"/>
<stop offset="0.915033" stop-color="#67C30F"/>
<stop offset="1" stop-color="#86C504"/>
</radialGradient>
<linearGradient id="paint7_linear_123_2204" x1="8.97266" y1="17.9508" x2="11.4567" y2="17.9508" gradientUnits="userSpaceOnUse">
<stop stop-color="#0FBC5C"/>
<stop offset="1" stop-color="#0CBA65"/>
</linearGradient>
</defs>
</svg>
